<?xml version="1.0" encoding="UTF-8" standalone="no"?>
<svg
   xmlns:dc="http://purl.org/dc/elements/1.1/"
   xmlns:cc="http://creativecommons.org/ns#"
   xmlns:rdf="http://www.w3.org/1999/02/22-rdf-syntax-ns#"
   xmlns:svg="http://www.w3.org/2000/svg"
   xmlns="http://www.w3.org/2000/svg"
   xmlns:sodipodi="http://sodipodi.sourceforge.net/DTD/sodipodi-0.dtd"
   xmlns:inkscape="http://www.inkscape.org/namespaces/inkscape"
   width="198.93893mm"
   height="206.45515mm"
   viewBox="0 0 198.93894 206.45516"
   version="1.1"
   id="svg129"
   inkscape:version="1.0.1 (3bc2e813f5, 2020-09-07)"
   sodipodi:docname="logoArtNavalColorSleg.svg">
  <defs
     id="defs123" />
  <sodipodi:namedview
     id="base"
     pagecolor="#ffffff"
     bordercolor="#666666"
     borderopacity="1.0"
     inkscape:pageopacity="0.0"
     inkscape:pageshadow="2"
     inkscape:zoom="0.4641344"
     inkscape:cx="375.9476"
     inkscape:cy="561.25984"
     inkscape:document-units="mm"
     inkscape:current-layer="layer1"
     inkscape:document-rotation="0"
     showgrid="false"
     inkscape:window-width="1310"
     inkscape:window-height="704"
     inkscape:window-x="56"
     inkscape:window-y="27"
     inkscape:window-maximized="1" />
  <metadata
     id="metadata126">
    <rdf:RDF>
      <cc:Work
         rdf:about="">
        <dc:format>image/svg+xml</dc:format>
        <dc:type
           rdf:resource="http://purl.org/dc/dcmitype/StillImage" />
        <dc:title></dc:title>
      </cc:Work>
    </rdf:RDF>
  </metadata>
  <g
     inkscape:label="Layer 1"
     inkscape:groupmode="layer"
     id="layer1"
     transform="translate(-5.5305312)">
    <g
       id="g347"
       transform="matrix(0.98522698,0,0,0.98522698,1.55117,1.5249801)">
      <path
         d="m 126.66651,15.382013 c 0.49494,0.331274 0.96741,0.683957 1.37765,1.077531 0.95223,0.859665 1.67977,1.859253 2.15194,2.812836 0.40173,0.872126 0.62339,1.67141 0.58391,2.364315 -0.061,1.81229 -0.38229,3.623303 -0.77126,5.300147 -0.62551,2.597835 -1.37856,4.881007 -1.92725,7.037996 -0.0543,0.221065 -0.092,0.48238 -0.15091,0.772132 -0.44879,-0.471203 -0.83564,-0.988405 -1.16236,-1.559918 -0.70902,-1.160593 -1.14384,-2.558227 -1.40741,-4.061598 -0.1169,-0.852959 -0.20769,-1.702718 -0.17459,-2.550243 0.0267,-1.389643 0.17126,-2.924644 0.25931,-4.566666 0.0513,-0.675972 0.0726,-1.34428 0.0856,-2.03527 0.006,-0.686198 0.0106,-1.403068 -0.0398,-2.099486 -0.0577,-1.101176 -0.16154,-2.246115 -0.40385,-3.380834 0.5581,0.256844 1.09496,0.552023 1.57897,0.889058 z m 0.5915,65.702792 c -0.82379,0.344698 -1.59414,0.491328 -2.22391,0.427118 -0.87086,-0.07571 -1.74506,-0.234484 -2.61592,-0.432867 -1.28321,-0.307641 -2.50114,-0.62678 -3.71178,-0.981699 -1.92907,-0.582695 -3.70206,-1.124814 -5.47172,-1.467277 -0.21832,-0.04281 -0.49373,-0.07539 -0.78068,-0.09903 0.47005,-0.525187 0.99718,-0.980736 1.58535,-1.36824 1.17298,-0.837305 2.59557,-1.355785 4.07797,-1.62509 0.41661,-0.06868 0.84202,-0.111487 1.26713,-0.129698 0.41144,-0.02811 0.82075,-0.03259 1.22035,-0.01023 0.52591,0.03067 1.07096,0.08817 1.63666,0.160049 0.78948,0.104786 1.5823,0.209566 2.38879,0.317866 0.86236,0.113723 1.73868,0.230007 2.6308,0.348206 1.42046,0.132896 2.92655,0.20861 4.48092,0.147593 0.10172,-0.0032 0.19919,-0.0099 0.29666,-0.02013 -0.58817,1.041432 -1.29627,1.977767 -2.04932,2.786956 -0.48613,0.469925 -0.9993,0.88586 -1.50912,1.239821 -0.41023,0.278247 -0.81529,0.532856 -1.22218,0.706644 z m -3.80166,-6.584047 c -0.36225,-0.05175 -0.7242,-0.104786 -1.08311,-0.155577 -0.97805,-0.141838 -1.96125,-0.297415 -2.87949,-0.361631 -0.21832,-0.01565 -0.48613,-0.01789 -0.767,-0.01118 l 0.14696,-0.189442 c 0.35436,-0.486857 0.74758,-0.933137 1.20487,-1.32192 0.32369,-0.266107 0.62582,-0.538605 0.97501,-0.770853 0.40598,-0.281761 0.84505,-0.529664 1.31206,-0.743701 0.45213,-0.225537 0.91367,-0.430632 1.41196,-0.592916 0.392,-0.127462 0.79707,-0.232248 1.20821,-0.314347 0.41023,-0.08242 0.7907,-0.16452 1.18574,-0.20861 1.31662,-0.153336 2.81208,-0.16899 4.34701,-0.292938 1.25984,-0.07444 2.6138,-0.155578 3.90551,-0.413385 1.01995,-0.184644 2.1146,-0.387499 3.13971,-0.743701 -0.1585,0.610811 -0.41114,1.158043 -0.65648,1.706874 -0.2581,0.539883 -0.52592,1.069547 -0.83777,1.544263 -0.58907,0.836021 -1.22976,1.579722 -1.89506,2.151234 -0.16275,0.138645 -0.32672,0.27729 -0.49039,0.392297 -0.68472,0.458741 -1.34971,0.748172 -1.93666,0.851995 l -0.21437,0.03035 c -0.83989,0.09456 -1.71379,0.09137 -2.57311,0.05527 -0.85568,-0.03387 -1.69678,-0.102546 -2.50751,-0.185929 -1.02724,-0.116279 -2.04082,-0.285274 -2.99609,-0.426155 z m -6.0277,-0.717827 -0.15212,0.23097 -0.11782,0.20509 -0.16063,0.306684 c -1.21368,0.322332 -2.48747,0.794492 -3.60156,1.59921 -0.89332,0.58046 -1.68828,1.360256 -2.42097,2.314802 l -0.14758,0.196148 -0.22409,0.32776 c -0.64798,0.09807 -1.30568,0.247902 -1.957,0.462261 0.002,0.437018 0.002,0.876591 0.002,1.318406 0.22166,-0.08338 0.44453,-0.172509 0.67713,-0.238954 0.72511,-0.216273 1.47694,-0.361631 2.25914,-0.412422 0.86873,-0.04952 1.72896,-0.01693 2.52907,0.120756 0.67379,0.119156 1.37006,0.284954 2.08879,0.478866 0.7081,0.183687 1.43655,0.391019 2.19172,0.611763 1.22218,0.376642 2.48839,0.757441 3.76735,1.032495 1.00356,0.230964 2.04719,0.459699 3.10206,0.585888 -0.7154,0.910777 -1.52218,1.683866 -2.35539,2.3362 -0.94708,0.691947 -1.94638,1.192543 -2.86977,1.468555 -0.83564,0.222022 -1.59931,0.253651 -2.21085,0.10478 -1.62299,-0.383027 -3.25024,-1.003101 -4.78943,-1.601445 -1.17511,-0.452993 -2.32017,-0.937614 -3.43333,-1.356742 -0.31701,-0.119477 -0.63098,-0.224263 -0.9489,-0.334793 0.002,0.460977 0.004,0.924195 0.006,1.389643 1.51367,0.495805 3.09264,1.150695 4.7797,1.815489 1.42138,0.539884 2.92109,1.111075 4.46057,1.510078 -0.77369,0.817179 -1.62208,1.469513 -2.48322,2.010674 -0.96954,0.594836 -1.97947,0.970201 -2.90074,1.15293 -0.8247,0.162284 -1.57471,0.115007 -2.16804,-0.08018 -0.55294,-0.185923 -1.10558,-0.396768 -1.65305,-0.615276 0.002,0.460977 0.009,0.921954 0.01,1.386129 0.54627,0.225536 1.09708,0.440852 1.65731,0.634444 -0.52926,0.493884 -1.07673,0.915253 -1.63787,1.284869 0.004,0.471197 0.008,0.945598 0.0149,1.421272 1.12471,-0.652654 2.26672,-1.549697 3.34649,-2.712847 1.18696,-0.117242 2.54304,-0.571192 3.91735,-1.400827 v 0 c 0.62461,-0.386547 1.25437,-0.84401 1.87016,-1.374952 0.6161,-0.535092 1.21581,-1.179761 1.79213,-1.875222 1.21489,-0.198384 2.5646,-0.847524 3.92282,-1.819003 v 0 c 1.20821,-0.939843 2.42401,-2.156983 3.43758,-3.768654 0.36195,-0.120435 0.73574,-0.276012 1.11712,-0.465454 0.37591,-0.198384 0.75092,-0.447243 1.1323,-0.720057 0.51103,-0.369615 1.02177,-0.796733 1.52552,-1.28359 l 0.002,-0.0013 c 1.08493,-1.171777 2.1562,-2.598798 2.90712,-4.412052 0.75092,-0.407945 1.48453,-1.037918 2.18747,-1.832415 0.38867,-0.437339 0.76792,-0.920682 1.13534,-1.448104 v -0.0035 c 0.45517,-0.702173 0.85477,-1.503377 1.22127,-2.350901 0.36832,-0.848161 0.61701,-1.818676 0.83776,-2.794626 0.52045,-0.457463 0.9574,-1.079451 1.40862,-1.770441 l 0.12297,-0.200619 c 0.40294,-0.646905 0.73908,-1.391564 1.02511,-2.212257 v -9.74e-4 c 0.0516,-0.151101 0.10294,-0.304443 0.15547,-0.457464 0.089,-0.266107 0.17248,-0.537648 0.23897,-0.82165 0.0437,-0.201897 0.0771,-0.415935 0.11448,-0.623261 0.0483,-0.254608 0.10384,-0.503789 0.1415,-0.766382 0.16275,-0.942085 0.1831,-1.957648 0.13482,-2.987581 0.3835,-0.602821 0.67379,-1.324156 0.91914,-2.134623 0.11993,-0.404437 0.24322,-0.830598 0.32247,-1.277835 0.0717,-0.4498 0.12753,-0.917489 0.167,-1.402105 v 0 c 0.15122,-1.749038 -0.0814,-3.712114 -0.70385,-5.650594 0.24322,-0.817174 0.33341,-1.759258 0.358,-2.79846 -0.0161,-0.688434 -0.089,-1.412967 -0.21012,-2.165931 v -0.0022 c -0.14545,-0.841776 -0.40902,-1.697285 -0.7154,-2.569405 -0.34919,-0.854236 -0.75942,-1.723164 -1.2823,-2.552799 0.0161,-0.687476 -0.0301,-1.450345 -0.18006,-2.249308 -0.17338,-0.78555 -0.39838,-1.63531 -0.76246,-2.471657 l -0.002,-0.0022 c -0.66225,-1.535958 -1.65184,-3.118236 -3.0307,-4.478492 -0.10172,-0.687476 -0.31366,-1.408816 -0.6243,-2.150282 -0.29666,-0.751686 -0.72541,-1.502414 -1.23827,-2.2541 V 23.1842 c -0.45547,-0.689712 -1.04455,-1.33566 -1.67006,-1.976816 -0.66195,-0.616554 -1.3658,-1.226081 -2.19051,-1.741048 -0.25506,-0.639235 -0.58178,-1.324155 -1.05851,-1.981286 -0.23229,-0.33128 -0.48948,-0.666073 -0.76914,-0.997347 -0.2912,-0.324573 -0.60942,-0.643712 -0.94798,-0.959017 v -0.0013 c -0.60092,-0.579182 -1.34334,-1.09095 -2.11672,-1.581006 -0.81621,-0.462255 -1.67098,-0.89608 -2.6469,-1.208191 -0.49373,-0.704409 -1.21792,-1.376231 -2.08241,-2.016103 -0.62673,-0.401244 -1.25012,-0.820693 -2.04931,-1.1350403 l -9.2e-4,-9.573e-4 c -0.43178,-0.1737878 -0.90213,-0.3718505 -1.34546,-0.4868569 -0.44788,-0.1185201 -0.90639,-0.2233006 -1.37977,-0.3111489 -0.46792,-0.091368 -0.96499,-0.1194773 -1.46206,-0.1520636 -0.25173,-0.019168 -0.50983,-0.02588 -0.76914,-0.020446 -0.24747,0.00351 -0.49829,0.016932 -0.74879,0.037378 -1.24374,-0.7516914 -2.96299,-1.2161822 -4.90816,-1.2340717 h -0.004 c -1.61965,-0.01821 -3.37989,0.3469337 -5.06271,1.1043686 -0.17125,0.078906 -0.34372,0.1555773 -0.51316,0.2411901 -1.38281,-0.215316 -3.11056,-0.078906 -4.869589,0.5849311 h -0.0021 c -1.593845,0.5951511 -3.216837,1.5979319 -4.628497,2.9933299 -1.328454,0.182409 -2.856708,0.773089 -4.332738,1.827945 h -0.0021 c -0.653445,0.464176 -1.295054,1.021948 -1.904776,1.664383 -0.08775,0.573748 -0.145747,1.158673 -0.145747,1.759258 0,0.491328 0.03643,0.978185 0.09777,1.457372 0.1081,-0.0048 0.220452,-0.01374 0.321261,-0.0093 0.898796,0.06325 1.787872,0.196142 2.661769,0.377599 1.285339,0.278248 2.535454,0.653612 3.712693,1.029933 1.889592,0.639236 3.608842,1.341409 5.206028,1.906851 0.201316,0.06772 0.448786,0.142159 0.709016,0.215316 -0.45517,0.426156 -0.943734,0.795771 -1.482403,1.11683 -1.113172,0.652655 -2.422196,1.078489 -3.863002,1.286141 -0.798895,0.107016 -1.628151,0.148544 -2.414298,0.09903 -0.519535,-0.03163 -1.056082,-0.08114 -1.610846,-0.13641 -0.231377,-0.02236 -0.47126,-0.04728 -0.711137,-0.0722 0.4166,0.49612 0.878144,0.947834 1.376431,1.360256 0.707801,0.0936 1.40497,0.180494 2.079979,0.242474 0.209819,0.01789 0.475514,0.02683 0.746671,0.02939 -0.253852,0.371851 -0.534725,0.711115 -0.825921,1.03441 0.109315,0.05399 0.214072,0.113728 0.325508,0.164519 0.786444,-0.614318 1.420464,-1.037923 1.958221,-1.347794 l 0.02672,-0.0508 0.142411,-0.292945 c 1.172075,-0.238954 2.308628,-0.62678 3.346494,-1.237585 0.790692,-0.47216 1.525522,-1.064755 2.210852,-1.840079 l 0.13937,-0.161327 0.21438,-0.271541 c 1.15477,0.09456 2.2731,0.06293 3.33556,-0.19487 0.80892,-0.204133 1.58868,-0.519758 2.39304,-1.023547 l 0.16488,-0.103503 0.12754,-0.08785 0.13937,-0.09935 c 0.98321,0.495799 1.94638,0.853273 2.96511,0.999588 0.76489,0.135452 1.57684,0.101588 2.49476,-0.03929 l 0.18948,-0.03163 0.3076,-0.06996 c 0.28178,0.271857 0.45425,0.563522 0.70385,0.790022 0.23441,0.236719 0.49889,0.50826 0.77126,0.706643 0.10598,0.08785 0.2162,0.173782 0.32673,0.259401 0.14969,0.113728 0.30395,0.22298 0.46913,0.315305 0.34798,0.227777 0.72936,0.428396 1.14718,0.597386 0.41144,0.200625 0.87086,0.321375 1.3573,0.465454 l 0.20011,0.05175 0.29454,0.06325 c 0.5004,1.089672 1.12166,2.150277 1.96581,3.05754 0.64069,0.702173 1.4074,1.326391 2.33959,1.855097 l 0.1907,0.105744 0.31488,0.162283 c 0.28482,1.23535 0.68867,2.464624 1.35821,3.5658 0.48857,0.847525 1.12046,1.627326 1.92391,2.347382 l 0.17034,0.143122 0.28057,0.230007 c 0.004,1.281349 0.18857,2.542573 0.57845,3.757477 0.3161,0.91397 0.74333,1.803028 1.37006,2.668442 l 0.12844,0.17698 0.21862,0.276333 c -0.16184,0.839534 -0.31822,1.693771 -0.30425,2.543531 -0.0203,0.377599 -0.0203,0.756156 0.0216,1.135997 0.0662,0.467684 0.0996,0.93633 0.225,1.409769 0.13057,0.475673 0.26752,0.953583 0.4582,1.443638 l 0.0838,0.199662 0.13482,0.286232 c -0.54201,1.06699 -0.97046,2.173921 -1.16236,3.361667 -0.18097,0.901514 -0.17247,1.86628 -0.0717,2.915381 l 0.0301,0.215316 0.061,0.34949 c -0.81742,0.878827 -1.5158,1.84807 -2.02988,2.974162 -0.10384,0.2693 -0.21649,0.54404 -0.32672,0.824843 -0.0622,0.171226 -0.13087,0.3415 -0.18098,0.523909 -0.0847,0.293265 -0.14574,0.604099 -0.20587,0.921002 -0.0352,0.199341 -0.0729,0.399961 -0.11144,0.605056 l -0.0297,0.220745 -0.0355,0.368657 c -0.25263,0.166755 -0.49707,0.345971 -0.73148,0.53637 -0.24232,0.185923 -0.4992,0.373129 -0.72845,0.578219 -0.13179,0.111493 -0.24535,0.239918 -0.36651,0.361631 -0.31579,0.319139 -0.61276,0.658403 -0.90608,1.022269 -0.63219,0.743701 -1.06702,1.676838 -1.49546,2.707092 l -0.0826,0.215316 -0.11235,0.354598 c -0.40598,0.158775 -0.77339,0.358432 -1.16874,0.559057 -0.39535,0.19934 -0.77855,0.428075 -1.14292,0.687476 -0.32976,0.226493 -0.62127,0.491328 -0.94374,0.757114 -0.72299,0.598349 -1.31328,1.378466 -1.88626,2.265283 z m 21.7475,-8.568205 c -0.12965,0.176023 -0.26052,0.353004 -0.39322,0.510496 -0.59666,0.740502 -1.32086,1.190302 -1.92391,1.41456 -0.85263,0.298699 -1.71499,0.532862 -2.60954,0.688439 -1.31631,0.222022 -2.55154,0.391013 -3.81866,0.464491 -0.96408,0.05048 -1.91116,0.100309 -2.85702,0.14855 -0.92642,0.03514 -1.83494,0.05974 -2.6812,0.139923 -0.21407,0.02012 -0.47126,0.06197 -0.73999,0.111487 0.26873,-0.610805 0.60942,-1.168578 1.02512,-1.676838 0.4916,-0.679807 1.12349,-1.266653 1.82522,-1.801108 0.42085,-0.322338 0.86236,-0.628695 1.32936,-0.910461 0.7242,-0.392291 1.45994,-0.751686 2.20357,-1.012044 0.46276,-0.161327 0.95953,-0.307641 1.4654,-0.46194 0.2997,-0.09583 0.60517,-0.190714 0.9073,-0.286232 0.21103,-0.06677 0.41751,-0.131939 0.62763,-0.197427 0.53017,-0.165476 1.09799,-0.332557 1.65701,-0.520715 0.5496,-0.19487 1.11529,-0.401244 1.69587,-0.628695 l 0.23988,-0.09807 c 1.39678,-0.545638 2.7562,-1.24749 4.13263,-2.136864 -0.0598,0.722619 -0.15425,1.442676 -0.29757,2.136864 -0.10081,0.50027 -0.22834,0.988405 -0.40507,1.444911 l -0.0106,0.02907 c -0.22835,0.618789 -0.46064,1.223845 -0.77552,1.744561 -0.1919,0.321375 -0.39231,0.616555 -0.59667,0.897043 z m -10.64343,-2.670677 -0.20041,0.07858 0.0191,-0.07858 c 0.10203,-0.507303 0.28938,-0.976265 0.47794,-1.444911 l 0.11448,-0.289752 c 0.54322,-1.198928 1.36793,-2.293392 2.39851,-3.314383 0.5666,-0.563528 1.24465,-1.085207 1.87046,-1.540435 1.21125,-0.794492 2.42614,-1.590262 3.67929,-2.410634 1.07127,-0.713351 2.14041,-1.514876 3.19012,-2.432044 0.78645,-0.708879 1.59931,-1.488674 2.33626,-2.357602 0.13512,0.616233 0.20375,1.241735 0.2581,1.85829 0.0601,0.617511 0.0516,1.228317 -0.002,1.821232 -0.0793,1.336617 -0.43907,2.577395 -0.89212,3.566763 -0.4169,0.88586 -0.97713,1.542985 -1.50821,1.928254 -0.70082,0.518481 -1.49971,0.954541 -2.27098,1.349073 -0.77673,0.393253 -1.53736,0.740508 -2.33838,1.02674 -0.81317,0.299656 -1.58018,0.556816 -2.34294,0.794498 -0.37167,0.115964 -0.74424,0.235441 -1.11924,0.337029 -1.04971,0.307635 -2.09639,0.611762 -3.17069,0.92643 -0.14909,0.04728 -0.32247,0.110215 -0.49919,0.181452 z m 13.6213,-16.752746 c -0.15425,0.95806 -0.53685,1.749038 -0.95223,2.271032 -0.29363,0.361631 -0.58938,0.709842 -0.90943,1.04463 -0.32793,0.335756 -0.66316,0.659367 -0.9996,0.969243 -0.5077,0.452992 -0.99718,0.881068 -1.52006,1.284542 -0.52683,0.402516 -1.04637,0.783315 -1.55437,1.147496 -0.80011,0.575668 -1.657,1.0852 -2.4316,1.57525 -0.74758,0.463218 -1.49425,0.927709 -2.25914,1.40211 -0.17885,0.113723 -0.38775,0.267065 -0.59757,0.43159 -0.0525,-0.640199 0.017,-1.256432 0.12327,-1.878742 0.19798,-1.28582 0.72724,-2.558227 1.44475,-3.838298 0.20163,-0.352683 0.42876,-0.702173 0.67623,-1.042394 0.22895,-0.340543 0.46579,-0.670544 0.7239,-0.980741 0.33218,-0.407945 0.72328,-0.825801 1.08948,-1.25547 0.53655,-0.614003 1.0743,-1.231515 1.62299,-1.860531 0.55811,-0.663837 1.12987,-1.364726 1.71045,-2.116412 0.47034,-0.601863 0.88391,-1.220653 1.31782,-1.880977 0.42936,-0.65936 0.84718,-1.353549 1.20488,-2.070092 l 0.13937,-0.27729 c 0.13937,0.274734 0.27116,0.553302 0.39535,0.835063 0.11022,0.284003 0.21195,0.57247 0.30729,0.860943 0.1831,0.576941 0.36013,1.149411 0.44879,1.729871 0.11478,0.721335 0.17915,1.432455 0.18128,2.10747 -0.0203,0.544354 -0.0741,1.063798 -0.16185,1.541707 z m -7.28631,-0.483343 c -0.25385,0.279531 -0.50679,0.5565 -0.75942,0.832833 -0.64282,0.708879 -1.2899,1.415523 -1.94851,2.137815 -0.14574,0.16229 -0.30638,0.369615 -0.47156,0.590365 -0.21316,-0.608569 -0.27935,-1.223851 -0.36073,-1.861488 -0.0419,-0.390061 -0.044,-0.786828 -0.0182,-1.192543 0.005,-0.956776 0.19282,-1.956364 0.45729,-2.979591 0.24535,-0.806953 0.50254,-1.615185 0.86995,-2.359843 0.31367,-0.629016 0.61033,-1.26346 0.96833,-1.936239 0.3577,-0.674058 0.7239,-1.371439 1.0819,-2.094058 0.30091,-0.583647 0.61276,-1.191259 0.90183,-1.811969 0.27844,-0.615597 0.55051,-1.250041 0.80557,-1.903653 0.42298,-1.024505 0.75426,-2.064664 1.05518,-3.177023 0.37287,0.471203 0.72298,0.959017 1.03482,1.460571 0.29667,0.511768 0.56024,1.034725 0.78949,1.556404 0.2666,0.581732 0.43057,1.199244 0.57844,1.780661 0.14545,0.581418 0.22379,1.157401 0.23563,1.701756 0.0279,0.859985 -0.0632,1.6072 -0.31184,2.20203 l -0.0932,0.212123 c -0.76489,1.623812 -1.80063,3.137404 -2.82574,4.474021 -0.67592,0.849759 -1.34121,1.630839 -1.98919,2.367828 z M 116.4752,22.334397 116.34555,22.22961 c -0.31914,-0.23097 -0.62764,-0.571512 -0.91368,-0.856466 -0.28179,-0.302207 -0.5581,-0.658088 -0.88817,-1.025783 -0.48401,-0.614004 -0.96407,-1.246212 -1.37431,-1.941673 -0.36619,-0.599622 -0.72936,-1.198929 -1.09798,-1.804306 -0.39292,-0.608564 -0.81074,-1.28582 -1.27258,-1.946144 -0.37167,-0.531899 -0.76914,-1.082002 -1.1985,-1.618378 -0.42966,-0.520715 -0.8912,-1.040159 -1.38615,-1.550654 -0.76154,-0.763184 -1.61662,-1.541707 -2.55276,-2.1934042 1.18999,-0.4370174 2.44679,-0.6366793 3.63982,-0.6376365 0.67167,-0.018211 1.32936,0.087848 1.94425,0.19487 0.6161,0.1306547 1.18817,0.3335151 1.69465,0.5510665 0.80346,0.3855844 1.43565,0.8532732 1.8395,1.3580202 l 0.14119,0.191671 c 0.79161,1.159637 1.41196,2.399137 1.89506,3.653654 0.15729,0.408908 0.30304,0.820372 0.43483,1.230558 0.33644,1.022264 0.55051,2.071371 0.73907,3.032623 0.0632,0.375364 0.12753,0.747215 0.18857,1.119381 0.16488,0.987132 0.28603,1.980008 0.44029,2.872574 0.0352,0.214038 0.0877,0.484622 0.15425,0.756163 -0.5581,-0.224264 -1.09161,-0.437339 -1.57472,-0.765105 -0.25384,-0.143121 -0.49038,-0.325851 -0.72298,-0.516244 z m 2.31926,-5.111027 c -0.20679,-0.842732 -0.4157,-1.788331 -0.74151,-2.686646 -0.5162,-1.47846 -1.17511,-2.953716 -2.06936,-4.370203 l -0.17793,-0.2718558 c 0.64161,0.01821 1.26195,0.1172418 1.87047,0.2558868 0.30638,0.07219 0.59757,0.13066 0.90061,0.236719 0.3076,0.106059 0.6076,0.222023 0.90092,0.344693 0.75092,0.291987 1.35518,0.708879 1.94759,1.106925 0.44758,0.337991 0.83655,0.70313 1.17815,1.06476 0.66955,0.742738 1.07674,1.511356 1.23403,2.180943 0.19494,0.951032 0.33978,1.879699 0.40172,2.825297 0.0419,0.700895 0.0589,1.38613 0.0656,2.054438 -0.005,0.679492 -0.0237,1.350036 -0.0483,1.994705 -0.10385,2.080312 -0.32794,4.009845 -0.40506,5.796261 -0.014,0.227457 -0.0118,0.504747 -0.004,0.794493 -0.5162,-0.3776 -1.0069,-0.775325 -1.43534,-1.259946 -0.90852,-0.964767 -1.60144,-2.203309 -2.14466,-3.571549 -0.28695,-0.788743 -0.53655,-1.571101 -0.68776,-2.391467 -0.11235,-0.514972 -0.20861,-1.065082 -0.30851,-1.644258 -0.14241,-0.776602 -0.29666,-1.593461 -0.47642,-2.459196 z m -12.69609,3.621068 c -0.26539,0.09009 -0.53533,0.173467 -0.8162,0.24918 -1.15265,0.277291 -2.44011,0.307636 -3.84782,0.120435 -0.77552,-0.107022 -1.578659,-0.280489 -2.329582,-0.520721 -1.259831,-0.406667 -2.626851,-0.925153 -4.119882,-1.44012 -1.199708,-0.420406 -2.472293,-0.822607 -3.777974,-1.107882 -1.023898,-0.237676 -2.079074,-0.423604 -3.16643,-0.519443 0.743328,-0.959011 1.601434,-1.784175 2.510858,-2.433316 1.019948,-0.732518 2.120671,-1.234072 3.128777,-1.465999 0.901829,-0.214353 1.724717,-0.195185 2.345977,-0.0057 1.673096,0.534134 3.25965,1.32192 4.686486,2.202031 2.1896,1.346836 3.99539,2.854685 5.59044,4.146259 0.16185,0.120756 0.36226,0.271536 0.58058,0.437339 -0.2581,0.115006 -0.51833,0.243425 -0.78523,0.337986 z m 1.68068,-7.921621 c 0.77127,0.809189 1.46328,1.660227 2.08363,2.499767 1.18999,1.650964 2.08241,3.32109 2.89558,4.766007 0.10172,0.190393 0.23563,0.411458 0.3747,0.634444 -0.55143,0.02364 -1.09677,0.04057 -1.63575,-0.06421 -0.95527,-0.138645 -1.91935,-0.48015 -2.92958,-0.984891 -0.17156,-0.08466 -0.3407,-0.163568 -0.51742,-0.259401 -0.66195,-0.378562 -1.34333,-0.790027 -1.97219,-1.266658 -1.55315,-1.162829 -3.33981,-2.605504 -5.4951,-3.890367 -1.347583,-0.799926 -2.839703,-1.549376 -4.432637,-2.078082 0.954363,-0.766383 2.024414,-1.356742 3.096896,-1.764693 1.217931,-0.438616 2.452861,-0.6539324 3.534751,-0.5759832 0.95892,0.039293 1.78059,0.3255302 2.33323,0.6874762 0.77977,0.55458 1.49637,1.117787 2.16591,1.781624 0.17157,0.166755 0.33645,0.3415 0.49798,0.514967 z m 24.08073,11.002805 c 0.13269,-0.838582 0.22804,-1.691535 0.26569,-2.554713 0.47248,0.369609 0.9073,0.774046 1.29809,1.205635 0.39322,0.429354 0.77461,0.864457 1.08311,1.335659 0.7242,1.036646 1.22552,2.160497 1.49,3.190436 0.22621,0.926431 0.24201,1.776191 0.0932,2.427567 -0.21863,0.911734 -0.52258,1.817724 -0.83443,2.680897 -0.49281,1.282627 -1.06276,2.507757 -1.62177,3.661639 -0.47885,0.929944 -0.92977,1.798556 -1.38949,2.642882 -0.4743,0.84753 -0.87936,1.646493 -1.2908,2.43875 -0.10385,0.200625 -0.21529,0.448522 -0.32217,0.709842 -0.16731,-0.276017 -0.3076,-0.560971 -0.43513,-0.855193 -0.1412,-0.290709 -0.26235,-0.590681 -0.36407,-0.901514 -0.41144,-1.284863 -0.60942,-2.709328 -0.52592,-4.253276 0.0118,-0.834106 0.15729,-1.724437 0.32551,-2.525641 0.22075,-1.000866 0.53685,-2.074884 0.83442,-3.193949 0.32248,-1.132484 0.63857,-2.314802 0.9246,-3.575705 0.1907,-0.797049 0.33614,-1.598253 0.46914,-2.433316 z"
         style="fill:#004f65;fill-rule:evenodd;stroke-width:0.0573198"
         id="path31-7" />
      <path
         d="m 113.43345,54.65353 c 31.52189,4.381552 53.29985,31.973076 48.64234,61.62729 -4.65751,29.65421 -33.98681,50.14181 -65.508706,45.76026 C 65.045189,157.65953 43.26723,130.068 47.924742,100.41379 52.582254,70.759583 81.911554,50.271978 113.43345,54.65353 Z M 28.177004,82.637907 c 1.45771,0.867816 1.405606,2.647325 2.384812,2.598483 0.973496,-0.04331 1.118228,-0.401726 1.118228,-0.401726 0.487654,1.329939 1.782868,0.741202 1.782868,0.741202 l -0.268583,0.638749 3.929941,1.455807 c -4.750869,13.779778 -4.805689,29.048928 0.791191,43.540938 l -3.869532,1.58124 0.286593,0.62682 c 0,0 -1.305085,-0.54498 -1.751148,0.79538 0,0 -0.15646,-0.34418 -1.131962,-0.36176 -0.974126,-0.0169 -0.857893,1.75885 -2.287259,2.67534 -1.430937,0.91446 -14.445729,3.41598 -18.795869,5.44691 -4.3558214,2.02693 -3.5736816,5.4364 -3.1516018,6.34526 0.4185031,0.90698 2.5343822,3.77291 7.0808718,2.1632 4.546707,-1.6079 15.369557,-8.85401 17.05861,-9.2112 1.685688,-0.35719 2.987334,0.93212 3.636888,0.25181 0.654666,-0.67911 0.492549,-1.03041 0.492549,-1.03041 1.343483,0.61271 1.815689,-0.65526 1.815689,-0.65526 l 0.290164,0.62554 3.871057,-1.58185 c 7.442341,13.73461 19.343616,24.11563 33.29103,30.25205 l -1.548127,3.69934 0.677181,0.24561 c 0,0 -1.33179,0.48827 -0.643225,1.72947 0,0 -0.374602,-0.13983 -1.069805,0.4975 -0.706552,0.64208 0.715575,1.82244 0.387041,3.41833 -0.320068,1.5971 -7.642382,12.02279 -9.195536,16.35359 -1.55661,4.32846 1.565438,6.21768 2.540894,6.58119 0.977073,0.36555 4.627391,0.98463 6.629604,-3.17836 2.010239,-4.16183 4.215239,-16.48415 5.143716,-17.85964 0.922963,-1.37444 2.81146,-1.3272 2.767307,-2.24591 -0.05261,-0.91673 -0.429119,-1.05682 -0.429119,-1.05682 1.402907,-0.45753 0.784805,-1.66995 0.784805,-1.66995 l 0.678139,0.24891 1.551583,-3.69465 c 14.647488,4.46753 30.876431,4.5188 46.276901,-0.74511 l 1.68091,3.64015 0.67078,-0.27355 c 0,0 -0.57861,1.23241 0.84525,1.64558 0,0 -0.36891,0.14812 -0.38815,1.06934 -0.0187,0.91813 1.87338,0.81079 2.84452,2.15365 0.97331,1.34139 3.63568,13.58546 5.78831,17.68336 2.15508,4.0946 5.77771,3.35681 6.74701,2.96378 0.96442,-0.39549 4.01036,-2.38606 2.30329,-6.66443 -1.716,-4.2764 -9.41832,-14.45936 -9.7933,-16.04451 -0.38196,-1.58657 0.9911,-2.81208 0.26823,-3.42493 -0.729,-0.61643 -1.09889,-0.46525 -1.09889,-0.46525 0.65085,-1.26073 -0.69558,-1.70477 -0.69558,-1.70477 l 0.66329,-0.27185 -1.68681,-3.65241 0.13963,-0.0674 c 14.22077,-6.8534 25.0391,-17.68811 31.5899,-30.40665 0.14376,-0.27856 0.28544,-0.55797 0.42505,-0.83829 l 3.93884,1.46247 0.26787,-0.63746 c 0,0 0.51856,1.25555 1.83372,0.60082 0,0 -0.14676,0.35315 0.5314,1.01181 0.67762,0.66218 1.93533,-0.67344 3.6346,-0.3703 1.69413,0.30242 12.7772,7.19546 17.3784,8.64993 4.60313,1.46653 6.61727,-1.46837 7.0044,-2.38775 0.37825,-0.92061 1.03821,-4.35442 -3.38557,-6.23781 -4.42778,-1.88846 -17.52214,-3.96681 -18.98806,-4.83759 -1.45489,-0.8643 -1.4091,-2.64646 -2.38147,-2.59801 -0.97896,0.0444 -1.12947,0.39968 -1.12947,0.39968 -0.4823,-1.32421 -1.77141,-0.74052 -1.77141,-0.74052 l 0.27125,-0.6343 -3.9424,-1.46101 c 0.0285,-0.083 0.0569,-0.16603 0.0851,-0.24913 4.59528,-13.52622 4.6779,-28.468 -0.66313,-42.694311 -0.0729,-0.195214 -0.14648,-0.390393 -0.22084,-0.585378 l 3.88608,-1.586835 -0.28989,-0.627279 c 0,0 1.30907,0.541025 1.74834,-0.798934 0,0 0.1624,0.349553 1.13667,0.36558 0.97594,0.01448 0.86327,-1.762612 2.28557,-2.676925 1.42909,-0.914715 14.44951,-3.41866 18.79948,-5.448187 4.35221,-2.025652 3.57224,-5.436643 3.14988,-6.343722 -0.41682,-0.908564 -2.53767,-3.773366 -7.07968,-2.161689 -4.546,1.606616 -15.37259,8.852247 -17.05828,9.20943 -1.6856,0.356328 -2.98356,-0.93476 -3.64207,-0.252534 -0.65313,0.681629 -0.49359,1.027577 -0.49359,1.027577 -1.33689,-0.611831 -1.81311,0.660559 -1.81311,0.660559 l -0.2868,-0.625502 -3.88766,1.587482 c -0.0917,-0.167706 -0.18388,-0.335074 -0.2765,-0.502121 -7.40196,-13.389927 -19.06474,-23.545849 -32.71786,-29.623545 -0.0948,-0.04218 -0.18957,-0.0841 -0.28454,-0.125874 l 1.55606,-3.706342 -0.67971,-0.250952 c 0,0 1.33765,-0.482472 0.63566,-1.724184 0,0 0.37811,0.13896 1.08087,-0.500476 0.70061,-0.637964 -0.71651,-1.819404 -0.39504,-3.413152 0.3224,-1.599909 7.64283,-12.0259 9.19577,-16.355342 1.55521,-4.328652 -1.55977,-6.220055 -2.53897,-6.584081 -0.97546,-0.363511 -4.6296,-0.979951 -6.63322,3.17963 -2.0069,4.162333 -4.21552,16.485929 -5.13491,17.859087 -0.92469,1.376018 -2.81675,1.330059 -2.76743,2.246373 0.0504,0.919105 0.42233,1.057171 0.42233,1.057171 -1.40312,0.458891 -0.78144,1.669978 -0.78144,1.669978 l -0.68283,-0.249559 -1.54927,3.707202 c -0.29956,-0.0912 -0.59983,-0.180581 -0.90072,-0.268056 C 111.70718,40.04965 95.888911,40.09076 80.84818,45.198599 L 80.703127,45.24802 79.014446,41.598173 78.35144,41.8682 c 0,0 0.574161,-1.228431 -0.849903,-1.640291 0,0 0.370056,-0.152505 0.388313,-1.070699 0.01753,-0.919678 -1.869829,-0.811642 -2.844259,-2.154959 -0.976603,-1.341845 -3.634962,-13.590346 -5.788357,-17.683367 -2.158364,-4.095102 -5.783312,-3.354898 -6.745591,-2.960458 -0.962055,0.392692 -4.015232,2.383609 -2.304426,6.659331 1.716486,4.273304 9.414955,14.459319 9.79373,16.045007 0.381853,1.58429 -0.996499,2.81271 -0.269145,3.427528 0.727852,0.614886 1.099101,0.463889 1.099101,0.463889 -0.650855,1.260777 0.699141,1.703486 0.699141,1.703486 l -0.670355,0.27404 1.687419,3.655832 c -0.325828,0.158174 -0.65031,0.31805 -0.973656,0.47948 -1.714022,0.849788 -3.383363,1.751921 -4.997401,2.721004 C 54.91827,58.77708 45.988801,68.622994 40.38639,79.888816 l -3.929763,-1.455738 -0.267925,0.637493 c 0,0 -0.522057,-1.254684 -1.836737,-0.603056 0,0 0.15,-0.3491 -0.528104,-1.01135 -0.681389,-0.659544 -1.935121,0.672126 -3.63467,0.370768 -1.693312,-0.307297 -12.780921,-7.192858 -17.384375,-8.654409 -4.5933659,-1.461528 -6.6106894,1.469289 -6.9978558,2.391828 -0.3819904,0.920097 -1.0422339,4.355649 3.3848643,6.239062 4.4249025,1.885368 17.5258525,3.964625 18.9851795,4.834493 z"
         style="fill:#f8b51c;fill-rule:evenodd;stroke-width:0.0573198"
         id="path33-5" />
      <path
         d="M 105.00001,206.45226 C 97.36987,206.66609 92.467121,194.82997 82.401821,191.1493 64.414161,182.62728 50.22534,186.01777 27.075163,164.02544 l -1.363678,7.8806 -12.857598,-27.9486 27.955528,16.40261 -8.230815,0.0916 c 33.06194,22.25301 62.76943,25.68721 65.602981,8.06386 L 96.038733,74.590079 c -0.330173,-4.00394 -2.072453,-5.770444 -4.87026,-5.864592 l -40.033898,0.549806 0.146113,-9.46127 39.595552,-0.06875 c 9.3997,-0.626173 8.182105,-18.113122 1.16887,-18.510199 -8.410725,0.312811 -7.994056,-8.94173 -0.04869,-8.659487 l 3.384927,0.0687 V 31.734581 C 90.207536,28.706933 86.762675,23.310724 86.762675,17.15677 86.762675,7.6813654 94.927825,3.5487203e-7 105.00001,3.5487203e-7 115.07219,3.5487203e-7 123.23735,7.6813654 123.23735,17.15677 c 0,6.153954 -3.44486,11.550163 -8.61868,14.577811 v 0.909705 l 3.38493,-0.0687 c 7.94537,-0.282243 8.36204,8.972298 -0.0487,8.659487 -7.01324,0.397077 -8.23083,17.884026 1.16887,18.510199 l 39.59555,0.06875 0.14612,9.46127 -40.03391,-0.549806 c -2.7978,0.09415 -4.54008,1.860652 -4.87025,5.864592 l -2.14285,93.925472 c 2.83355,17.62335 32.54104,14.18915 65.60298,-8.06386 l -8.23081,-0.0916 27.95553,-16.40261 -12.8576,27.9486 -1.36368,-7.8806 c -23.15018,21.99233 -37.339,18.60184 -55.32666,27.12386 -10.0653,3.68067 -14.96805,15.51679 -22.59819,15.30296 z m 0,-200.6871862 c 6.5631,0 11.88353,5.0051912 11.88353,11.1794242 0,6.174234 -5.32043,11.17943 -11.88353,11.17943 -6.563098,0 -11.88353,-5.005196 -11.88353,-11.17943 0,-6.174233 5.320432,-11.1794242 11.88353,-11.1794242 z"
         style="fill:#004f65;fill-rule:evenodd;stroke-width:0.0573198"
         id="path35-3" />
      <path
         d="m 113.39523,54.653507 c 3.71224,0.516004 7.28723,1.35767 10.70193,2.482949 V 43.699527 C 111.88169,40.491213 98.705071,40.313608 85.902867,43.66897 v 13.441188 c 8.54197,-2.819772 17.915143,-3.787886 27.492363,-2.456651 z"
         style="fill:#f8b51c;fill-rule:evenodd;stroke-width:0.0573198"
         id="path37-5" />
      <g
         id="Layer1003-6"
         transform="matrix(0.05731977,0,0,0.05731977,-30.849325,-16.497409)">
        <path
           d="m 1331.5714,2328.8314 -0.2173,-0.5549 -0.05,-0.1227 v 0.041 c -3.527,-7.337 -12.5493,-19.353 -25.2787,-30.8317 -12.7667,-11.4377 -29.3708,-22.4607 -48.8001,-26.8302 -30.5195,-6.6535 -50.4953,-26.4388 -62.2126,-45.1901 -11.8104,-18.7339 -15.5361,-36.0015 -15.7099,-37.0121 0.043,0 -4.7503,12.5886 -6.3958,32.8879 -1.6206,20.1942 0.1987,48.1811 13.1455,77.0909 2.67,6.3088 9.5501,19.8904 22.739,32.2745 13.0771,12.3666 32.4382,23.4713 59.2506,25.5334 30.3394,2.4301 49.3963,13.7452 61.6413,25.6152 12.0712,11.87 17.3492,24.5228 19.0196,29.9846 0.043,0 0.4781,-10.5732 -1.4717,-26.1292 -1.8193,-15.521 -6.0231,-36.0014 -15.6602,-56.7565 z"
           style="fill:#004f65;fill-rule:evenodd"
           id="path39-2" />
        <path
           d="m 1326.728,2197.7647 -0.2173,-0.5549 v -0.082 h -0.068 c -3.024,-7.5005 -11.0839,-20.0716 -23.0433,-32.333 -11.916,-12.1971 -27.6445,-24.1723 -46.7448,-29.675 -29.9917,-8.6163 -48.5455,-29.5933 -58.9712,-49.0281 -10.494,-19.4114 -12.9467,-36.8835 -13.102,-37.9174 0.068,0 -5.6257,12.2847 -8.6746,32.4205 -2.9992,20.0716 -3.2165,48.1577 7.7122,77.7685 2.2602,6.4958 8.153,20.3812 20.4601,33.5947 12.183,13.1844 30.7368,25.4458 57.3071,29.1552 30.1655,4.2701 48.4089,16.7769 59.735,29.3479 11.2826,12.6353 15.6602,25.5509 16.8649,31.1179 0,0 1.2294,-10.5089 0.416,-26.1526 -0.8072,-15.6203 -3.4773,-36.311 -11.6738,-57.6619 z"
           style="fill:#004f65;fill-rule:evenodd"
           id="path41-9" />
        <path
           d="m 1372.0074,2475.5185 -0.3291,-0.4966 -0.062,-0.1226 h 0.043 c -4.6695,-6.7003 -15.5112,-17.291 -29.9916,-26.8127 -14.4557,-9.4984 -32.5935,-18.0095 -52.4637,-19.5108 -31.2584,-2.2899 -54.1713,-19.0668 -68.7822,-35.9021 -14.6792,-16.8996 -21.1184,-33.4837 -21.4661,-34.4359 0.043,-0.041 -2.7197,13.1493 -0.9873,33.4487 1.5337,20.2175 7.8177,47.7079 25.2539,74.4329 3.707,5.8766 12.6176,18.3191 27.6693,28.6469 14.9834,10.4272 35.9279,18.5878 62.7404,16.7945 30.358,-1.9569 51.0355,6.5133 64.9881,16.5082 13.9589,10.0533 21.2302,21.7597 23.7264,26.912 0,0 -1.2295,-10.4681 -5.6755,-25.5509 -4.3776,-15.1472 -11.7172,-34.728 -24.6639,-53.9116 z"
           style="fill:#004f65;fill-rule:evenodd"
           id="path43-1" />
        <path
           d="m 1423.1981,2603.2672 -0.4781,-0.4148 v -0.082 c -5.7624,-5.9759 -18.0757,-14.9018 -33.9098,-22.2563 -15.859,-7.3136 -35.2015,-13.126 -55.1152,-11.8116 -31.1963,2.2256 -56.6054,-11.0639 -73.7559,-25.7379 -17.194,-14.4636 -26.2412,-30.043 -26.769,-30.9076 0.068,0 -0.5278,13.4122 4.3591,33.215 4.8433,19.7678 15.4863,46.0372 37.089,69.9876 h -0.043 c 4.5764,5.2749 15.4864,16.257 32.0035,24.4001 16.4923,8.0964 38.5297,13.1844 64.7088,7.5823 29.6812,-6.2271 51.495,-0.7827 66.9193,7.0449 15.3994,7.9153 24.4032,18.4652 27.7314,23.2903 0,0 -2.937,-10.2227 -9.6619,-24.5228 -6.7683,-14.2826 -17.2126,-32.7068 -33.0778,-49.7875 z"
           style="fill:#004f65;fill-rule:evenodd"
           id="path45-2" />
        <path
           d="m 1502.3004,2732.7216 -0.4781,-0.3913 -0.1118,-0.064 c -6.551,-5.088 -20.2428,-12.1562 -37.0208,-17.1625 -16.8462,-4.9886 -36.909,-8.0204 -56.3818,-3.8554 -30.4947,6.636 -57.7045,-2.8623 -77.047,-14.855 -19.3859,-11.9109 -30.7989,-25.9482 -31.4323,-26.7952 0,0 1.5772,13.3363 9.662,32.2103 8.035,18.8799 22.7142,43.2975 47.9308,63.8422 h -0.043 c 5.3401,4.5798 17.8956,13.8912 35.487,19.5984 17.5852,5.6488 40.169,7.5882 65.2118,-1.6882 28.3896,-10.3629 50.7995,-8.0964 67.2732,-2.5352 16.4489,5.6487 27.1167,14.82 31.1466,19.1018 0,0 -4.4708,-9.7028 -13.4745,-22.893 -8.954,-13.1902 -22.3416,-29.9029 -40.7216,-44.5126 z"
           style="fill:#004f65;fill-rule:evenodd"
           id="path47-7" />
        <path
           d="m 1601.2916,2849.5058 -0.5465,-0.2862 -0.087,-0.064 c -7.3396,-4.0832 -21.9691,-9.1479 -39.43,-11.7649 -17.4362,-2.5177 -37.679,-2.6579 -56.3198,4.1592 -29.0913,10.9237 -57.481,5.3567 -78.5062,-3.7094 -21.0749,-9.0894 -34.568,-21.3274 -35.338,-22.046 0,0 3.6574,12.9391 14.6543,30.4579 10.9349,17.472 29.3583,39.5647 57.5058,56.3183 6.0853,3.7736 19.864,11.2333 38.2689,14.3001 18.2868,3.1778 40.8768,1.8167 64.2058,-10.8186 26.3529,-14.2825 48.8932,-15.2055 66.0872,-11.9926 17.2375,3.2771 29.1783,10.8185 33.8664,14.4695 0,0 -6.0046,-8.9668 -17.0201,-20.7142 -10.9535,-11.7882 -26.7938,-26.3745 -47.3409,-38.3088 z"
           style="fill:#004f65;fill-rule:evenodd"
           id="path49-0" />
        <path
           d="m 1717.7686,2951.061 -0.5713,-0.2453 -0.087,-0.023 v 0.023 c -7.886,-3.0727 -23.1986,-5.9817 -40.8334,-6.1044 -17.6784,-0.041 -37.7908,2.6579 -55.0282,12.0978 -27.0298,14.8375 -56.0528,13.3772 -78.2702,7.337 -22.2547,-5.9584 -37.5859,-16.1343 -38.3993,-16.7536 0,-0.023 5.694,12.2615 19.3424,28.0453 13.5615,15.7254 35.3381,34.9324 65.8265,47.5619 v -0.041 c 6.5944,2.9091 21.4909,8.2833 40.1131,8.7798 18.5973,0.5374 40.7402,-3.9547 61.7034,-19.7853 23.8132,-17.8634 45.9624,-21.9642 63.4606,-21.1814 17.5231,0.8236 30.5816,6.636 35.7727,9.5392 0,0 -7.3831,-8.0555 -20.0441,-18.0737 -12.7667,-10.1351 -30.7306,-22.3381 -52.9853,-31.1764 z"
           style="fill:#004f65;fill-rule:evenodd"
           id="path51-9" />
        <path
           d="m 1849.111,3034.9515 -0.6147,-0.1227 -0.1056,-0.058 c -8.2834,-1.8576 -23.8567,-2.5995 -41.3364,-0.187 -17.4609,2.4535 -36.8469,7.9153 -52.4202,19.7211 -24.3411,18.4651 -53.2523,21.1464 -76.2087,18.3015 -22.9377,-2.7864 -39.7405,-10.6549 -40.7029,-11.1281 0,-0.041 7.6686,11.2917 23.6331,24.9551 15.9521,13.6809 40.5478,29.6108 72.7066,37.7305 6.9918,1.9394 22.5651,5.1347 41.0321,3.0318 18.4855,-2.1439 39.6722,-9.7262 57.8721,-28.314 20.6775,-21.0003 41.9263,-28.2322 59.3624,-29.9671 17.3741,-1.6707 31.2398,2.1438 36.8469,4.3286 0,0 -8.5628,-6.8814 -22.7142,-15.0011 -14.2382,-8.1606 -33.9098,-17.7057 -57.3505,-23.2902 z"
           style="fill:#004f65;fill-rule:evenodd"
           id="path53-3" />
        <path
           d="m 1992.3756,3099.2084 -0.6396,-0.041 -0.1304,-0.041 v 0.041 c -8.4511,-0.7185 -23.9188,0.8062 -40.8334,5.6255 -16.84,4.9069 -35.1579,13.1084 -48.6697,26.9528 -21.1432,21.7423 -49.2658,28.46 -72.4457,28.9566 -23.0868,0.514 -40.9638,-4.9244 -41.9697,-5.2983 0,0 9.3079,10.1409 27.3588,21.3742 17.964,11.2275 44.8199,23.5297 77.9846,27.0171 l -0.043,-0.047 c 7.2092,0.9522 23.1551,1.8751 41.0756,-2.8623 17.9391,-4.7375 37.679,-15.2465 52.6189,-36.2059 17.0636,-23.7225 36.8842,-33.8576 53.8422,-38.0635 16.9767,-4.1826 31.2584,-2.3308 37.1077,-0.9873 0,-0.064 -9.5501,-5.5669 -24.8626,-11.6246 -15.3809,-6.0168 -36.3874,-12.6119 -60.3932,-14.7967 z"
           style="fill:#004f65;fill-rule:evenodd"
           id="path55-6" />
        <path
           d="m 2144.29,3142.2373 -0.6334,0.064 h -0.043 c -8.569,0.5141 -23.6394,4.2234 -39.5418,11.4378 -15.8838,7.2318 -32.6431,18.0094 -43.7705,33.5888 -17.3492,24.5404 -44.0747,35.1778 -66.9193,38.9281 -22.739,3.832 -41.2929,0.9697 -42.3236,0.8003 0,-0.018 10.91,8.6571 30.4511,17.2092 19.5598,8.5345 48.1916,16.8178 81.4681,15.5385 7.2278,-0.1227 23.1302,-1.4429 40.0634,-8.6981 17.0015,-7.2318 34.7668,-20.4396 46.1984,-43.315 13.015,-25.9073 30.9541,-38.7821 47.0739,-45.3363 16.1011,-6.5542 30.5195,-6.7586 36.5426,-6.3088 0,0 -10.3387,-4.0774 -26.4833,-7.892 -16.126,-3.7678 -37.946,-7.2318 -62.0821,-6.0167 z"
           style="fill:#004f65;fill-rule:evenodd"
           id="path57-0" />
        <path
           d="m 2301.4824,3163.0916 -0.6334,0.1635 h -0.068 c -8.3455,1.735 -22.7142,7.5239 -37.2381,16.923 -14.586,9.4341 -29.377,22.4607 -37.8529,39.4421 -13.2323,26.7251 -37.8963,41.0894 -59.8653,48.035 -21.907,7.0683 -40.6782,6.8813 -41.7773,6.8813 0,-0.041 12.183,6.9865 32.9226,12.6119 20.7271,5.6488 50.2966,9.7262 82.9832,3.7912 7.2029,-1.215 22.6272,-4.7375 38.2005,-14.3585 15.6417,-9.5626 31.1094,-25.142 38.6849,-49.3786 8.7616,-27.426 24.4901,-42.6958 39.3866,-51.4173 14.8717,-8.7798 29.1162,-11.0054 35.1828,-11.3968 0,0 -10.91,-2.6345 -27.4955,-4.0599 -16.604,-1.4837 -38.7904,-1.8926 -62.4298,2.7631 z"
           style="fill:#004f65;fill-rule:evenodd"
           id="path59-6" />
        <path
           d="m 2460.4072,3161.6487 -0.6334,0.2278 -0.087,0.064 c -7.9295,2.9032 -21.2301,10.6082 -34.1272,21.9058 -12.9281,11.3735 -25.5022,26.3161 -31.2646,44.3256 -8.7615,28.2497 -30.9045,45.8912 -51.4764,55.927 -20.5036,10.0357 -39.0761,12.5301 -40.1503,12.6761 0,-0.064 13.1206,5.1698 34.4997,7.8101 21.404,2.6988 51.2156,2.5762 82.5858,-7.9561 6.8739,-2.1614 21.6399,-7.8277 35.5305,-19.5166 13.9092,-11.6422 26.7255,-29.2194 30.4263,-54.2388 4.3156,-28.3315 17.4362,-45.6224 30.7555,-56.3826 13.2758,-10.7133 27.0297,-14.9602 32.9039,-16.1986 0,0 -11.177,-1.0047 -27.7811,-0.1635 -16.6227,0.8879 -38.5732,3.6276 -61.1818,11.5195 z"
           style="fill:#004f65;fill-rule:evenodd"
           id="path61-2" />
        <path
           d="m 2617.0532,3137.8269 -0.5651,0.3096 -0.087,0.041 c -7.3831,4.0423 -19.2121,13.5582 -30.1656,26.544 -10.91,13.0208 -21.0066,29.6341 -23.7698,48.2219 -4.1851,29.2019 -23.2854,49.7641 -42.0566,62.5454 -18.7091,12.793 -36.6917,17.8868 -37.7225,18.1964 0,-0.082 13.754,3.2771 35.4436,2.9033 21.5096,-0.4323 51.0418,-4.6791 80.4125,-19.5166 6.4206,-3.1311 20.1559,-10.8595 31.9601,-24.3593 11.9656,-13.4764 21.7765,-32.6834 21.4723,-57.989 -0.3105,-28.5826 9.8792,-47.5385 21.2674,-60.0919 11.4129,-12.4893 24.3348,-18.5878 29.9482,-20.6499 0,0 -11.2392,0.5374 -27.4955,3.7736 -16.275,3.2538 -37.5672,9.0895 -58.6421,20.0716 z"
           style="fill:#004f65;fill-rule:evenodd"
           id="path63-6" />
        <path
           d="m 2768.0734,3091.9941 -0.5465,0.333 -0.087,0.1227 h 0.043 c -6.6628,4.9653 -16.8897,16.0934 -25.5892,30.522 -8.6932,14.4462 -15.9707,32.2512 -15.7285,51.0201 0.6147,29.4706 -14.9586,52.5096 -31.4572,67.8203 -16.4736,15.3341 -33.4068,22.8989 -34.3879,23.3487 0,0 14.1513,1.2968 35.5305,-2.2023 21.2239,-3.4231 49.7005,-11.9343 76.3391,-30.7674 5.9362,-4.0015 18.2495,-13.5816 27.7128,-28.6236 9.5936,-15.0069 16.2501,-35.3822 11.8041,-60.3022 -4.8806,-28.2906 2.0802,-48.444 11.3075,-62.4987 9.2831,-13.973 21.0686,-21.8474 26.2846,-24.7331 0,0 -10.997,2.1263 -26.5268,7.6875 -15.5795,5.567 -35.6858,14.3468 -54.6991,28.273 z"
           style="fill:#004f65;fill-rule:evenodd"
           id="path65-1" />
        <path
           d="m 2909.9533,3025.0617 -0.4782,0.4557 -0.087,0.041 h 0.044 c -5.8059,5.8941 -14.0458,18.3599 -20.3981,33.8575 -6.2405,15.5385 -10.5374,34.1439 -7.3147,52.6908 5.3215,29.0208 -6.3088,54.0343 -20.1559,71.5297 -13.7788,17.4954 -29.3087,27.4085 -30.1594,27.9868 -0.087,0 14.17,-0.7185 34.6736,-7.2318 20.485,-6.4491 47.2726,-18.8565 70.5146,-41.3406 5.1477,-4.7609 15.7534,-15.9883 22.7577,-32.2278 7.0788,-16.222 10.3884,-37.3041 1.9932,-61.307 -9.4135,-27.2684 -5.7375,-48.1636 1.2047,-63.3691 6.8614,-15.1062 17.2436,-24.5871 21.9318,-28.1329 0,-0.041 -10.5375,3.6685 -24.9745,11.3794 -14.5425,7.6641 -33.0094,19.2245 -49.5514,35.6684 z"
           style="fill:#004f65;fill-rule:evenodd"
           id="path67-8" />
        <path
           d="m 3039.5074,2938.7179 -0.354,0.5549 -0.062,0.041 v -0.041 c -4.8433,6.6769 -10.9969,20.1533 -14.766,36.3928 -3.6574,16.257 -4.9738,35.2596 1.2232,53.1698 9.9227,27.8992 2.4093,54.2796 -8.4511,73.5275 -10.7796,19.2479 -24.5335,31.2406 -25.347,31.9415 0,0 13.9092,-2.7221 33.1648,-12.0569 19.1437,-9.253 43.6338,-25.3465 63.0694,-50.8156 h -0.05 c 4.3404,-5.4852 13.0585,-18.138 17.3989,-35.1194 4.3342,-17.0222 4.2473,-38.3672 -7.9108,-60.8747 -13.6236,-25.6561 -13.3814,-46.8609 -8.9168,-62.8316 4.3839,-15.9708 13.102,-26.7894 17.2437,-30.931 0,-0.082 -9.8793,5.1289 -22.9129,14.7732 -13.1889,9.6269 -29.5757,23.6817 -43.3296,42.2695 z"
           style="fill:#004f65;fill-rule:evenodd"
           id="path69-7" />
        <path
           d="m 3153.8297,2835.083 -0.2422,0.5316 -0.087,0.1052 v -0.041 c -3.6574,7.2727 -7.6439,21.491 -8.7367,38.0226 -1.0743,16.5666 0.6768,35.6275 9.6371,52.3636 14.2817,26.2519 11.1025,53.3917 3.4152,73.9189 -7.6253,20.6089 -19.2556,34.3716 -19.9759,35.2186 -0.043,-0.082 13.3628,-4.7199 30.8859,-16.6308 17.461,-11.8934 39.014,-31.264 54.1961,-59.1632 3.3904,-6.0226 9.9414,-19.6802 11.5434,-37.1581 1.6393,-17.4311 -1.9063,-38.4957 -17.4796,-59.1222 -17.6163,-23.3312 -20.6589,-44.3899 -18.883,-60.7754 1.7945,-16.4031 8.6933,-28.3549 12.1333,-33.0924 0,0 -8.9168,6.49 -20.3298,17.8868 -11.4564,11.4144 -25.4091,27.5721 -36.0769,47.9357 z"
           style="fill:#004f65;fill-rule:evenodd"
           id="path71-9" />
        <path
           d="m 3250.3433,2716.4646 -0.1739,0.5959 -0.044,0.082 c -2.4527,7.6875 -4.1168,22.2563 -2.5831,38.7821 1.5958,16.5491 6.3274,35.096 17.9391,50.43 18.2496,23.8802 19.4108,51.1895 15.0704,72.5987 -4.2038,21.4151 -13.5366,36.6615 -14.0644,37.567 -0.044,0 12.4003,-6.5075 27.8245,-20.7725 15.3995,-14.1541 33.6863,-36.3695 44.1617,-66.1088 2.3844,-6.4257 6.7248,-20.8718 5.5202,-38.414 -1.186,-17.4312 -8.0412,-37.7714 -26.769,-55.9269 -21.0997,-20.6674 -27.4706,-40.9901 -28.3461,-57.4341 -0.8135,-16.4673 4.092,-29.2428 6.6565,-34.4125 0,0 -7.7556,7.6232 -17.194,20.5447 -9.4632,12.8806 -20.7458,30.8725 -27.9984,52.4687 z"
           style="fill:#004f65;fill-rule:evenodd"
           id="path73-2" />
        <path
           d="m 3326.7755,2585.5615 -0.1304,0.5783 v 0.146 -0.023 c -1.2295,7.9152 -0.503,22.6067 3.676,38.7411 4.21,16.0993 11.9408,33.7758 25.7879,47.2581 21.8821,21.0354 27.4458,47.9123 26.5454,69.6312 -0.7638,21.8006 -7.5569,38.2446 -7.973,39.1967 0,0 11.2826,-8.184 24.248,-24.5228 12.9281,-16.1986 27.452,-40.7039 33.1212,-71.6524 h -0.043 c 1.3598,-6.7002 3.3531,-21.6195 -0.6769,-38.6827 -3.9864,-17.1274 -14.0396,-36.2701 -35.4001,-51.5165 -24.2045,-17.4137 -33.8229,-36.6031 -37.3499,-52.7784 -3.4586,-16.1577 -0.6582,-29.4706 1.0556,-34.9091 0,0 -6.4205,8.6339 -13.6732,22.6886 -7.3396,14.0957 -15.5298,33.4662 -19.1872,55.8452 z"
           style="fill:#004f65;fill-rule:evenodd"
           id="path75-0" />
        <path
           d="m 3381.1207,2445.3878 v 0.701 -0.041 c 0.087,8.0379 3.1978,22.4198 9.904,37.7772 6.7683,15.3107 17.2375,31.6904 33.0964,43.0464 25.0862,17.659 34.8289,43.4026 37.5052,65.0397 2.757,21.6137 -1.3351,38.8463 -1.5586,39.851 -0.062,0 9.7923,-9.6852 20.0006,-27.6714 10.1463,-17.8283 20.6154,-44.1854 21.2053,-75.5486 0.2608,-6.8405 -0.2608,-21.8649 -6.967,-38.1862 -6.7,-16.3447 -19.715,-33.8401 -43.3482,-45.8737 -26.682,-13.7042 -39.3431,-31.3223 -45.3476,-46.8024 -6.0667,-15.4509 -5.4768,-29.0325 -4.6199,-34.6579 0,0 -4.9738,9.4984 -9.8792,24.4001 -4.9303,14.9602 -9.9476,35.3005 -9.991,57.9657 z"
           style="fill:#004f65;fill-rule:evenodd"
           id="path77-2" />
        <path
           d="m 3412.317,2298.9695 0.087,0.6017 v 0.099 c 1.3599,7.9386 6.6814,21.7422 15.8403,35.9021 9.1962,14.1949 22.1429,28.9098 39.7095,37.8357 27.5824,13.8853 41.4233,37.9583 47.5396,58.9353 6.2405,20.9361 4.9676,38.6009 4.8372,39.6115 -0.044,0 8.153,-11.0055 15.356,-30.1949 7.2091,-19.1019 13.2137,-46.6331 8.6994,-77.751 -0.8755,-6.7586 -3.6822,-21.5319 -13.015,-36.679 -9.2211,-15.1705 -24.9248,-30.6857 -50.2035,-39.1968 -28.6132,-9.7086 -43.9257,-25.3465 -52.3767,-39.816 -8.4139,-14.4227 -9.9911,-27.9634 -10.1028,-33.6297 0,0 -3.3904,10.0766 -5.8493,25.5509 -2.4714,15.4976 -4.1355,36.2935 -0.5216,58.7309 z"
           style="fill:#004f65;fill-rule:evenodd"
           id="path79-3" />
        <path
           d="m 3419.7,2149.6888 0.1304,0.555 0.062,0.146 v -0.058 c 2.6514,7.6641 10.1028,20.5856 21.404,33.361 11.326,12.7171 26.4833,25.4283 45.2545,31.7956 29.5322,9.8547 47.0118,31.6319 56.475,51.4815 9.5067,19.8437 11.0839,37.4852 11.1274,38.4549 0,0 6.2902,-12.0394 10.3201,-32.0058 4.0486,-19.8847 5.5823,-47.9358 -3.8374,-78.0022 -1.9063,-6.5717 -7.1161,-20.7316 -18.7464,-34.4125 -11.4999,-13.7276 -29.4204,-26.7484 -55.8168,-31.6553 -29.8364,-5.6839 -47.4465,-18.9559 -58.0957,-32.0643 -10.643,-13.1084 -14.3252,-26.2519 -15.269,-31.9007 0,0 -1.7697,10.4681 -1.8132,26.1293 0,15.6845 1.6828,36.4337 8.805,58.1759 z"
           style="fill:#004f65;fill-rule:evenodd"
           id="path81-7" />
        <path
           d="m 3403.3133,2001.0858 0.2856,0.5608 0.1055,0.099 h -0.1055 c 3.8561,7.15 13.2944,18.8565 26.4585,29.8853 13.2758,10.9412 30.2338,21.4268 49.9054,25.0778 30.6871,5.602 51.4081,24.7097 63.8767,43.0463 12.5928,18.2607 16.9332,35.429 17.1691,36.3928 -0.062,0.088 4.297,-12.7521 5.1042,-33.0748 0.8569,-20.2351 -2.0802,-48.1986 -16.1632,-76.6177 v 0.041 c -2.8936,-6.2855 -10.2767,-19.5575 -23.9437,-31.445 -13.6049,-11.9752 -33.4069,-22.3381 -60.2814,-23.4538 -30.4077,-1.3611 -49.924,-12.057 -62.5665,-23.4305 -12.6176,-11.4552 -18.38,-23.9036 -20.1931,-29.2836 -0.093,0 -0.1366,10.5498 2.4527,25.989 2.4714,15.4918 7.4265,35.8145 17.8957,56.2132 z"
           style="fill:#004f65;fill-rule:evenodd"
           id="path83-5" />
        <path
           d="m 3363.3119,1856.6478 0.4161,0.4965 0.043,0.082 c 4.9055,6.5542 16.1695,16.7944 30.9293,25.8021 14.8531,8.9609 33.2765,16.8119 53.302,17.659 31.215,1.1566 54.873,17.104 70.1172,33.4253 15.356,16.3446 22.3665,32.7068 22.7825,33.6297 -0.043,0 2.1485,-13.2077 -0.2856,-33.4019 -2.3907,-20.1942 -9.724,-47.4392 -28.2593,-73.51 -3.8995,-5.7656 -13.3379,-17.8459 -28.7373,-27.7181 -15.4243,-9.8255 -36.6731,-17.3085 -63.3551,-14.5688 -30.2711,3.0492 -51.346,-4.6966 -65.6899,-14.1541 -14.2879,-9.5217 -21.9939,-21.0237 -24.6701,-26.0708 -0.043,0 1.6206,10.4505 6.5758,25.3464 5.0172,14.9427 13.2075,34.3366 26.831,52.9829 z"
           style="fill:#004f65;fill-rule:evenodd"
           id="path85-9" />
        <path
           d="m 3300.4225,1719.5876 0.4595,0.4556 0.043,0.082 c 5.9797,5.7481 18.6408,14.2359 34.7854,21.0179 16.1011,6.7587 35.6857,11.9109 55.5125,9.8488 31.1467,-3.318 56.9283,9.0895 74.7371,23.08 17.8335,13.973 27.452,29.1435 27.9301,30.0255 0,0 0.043,-13.4122 -5.6071,-33.0923 -5.6506,-19.5575 -17.3244,-45.4414 -39.8461,-68.6031 v 0.058 c -4.7937,-5.1698 -16.0763,-15.7839 -32.9226,-23.2844 -16.7779,-7.5648 -39.014,-11.8291 -64.9757,-5.3567 -29.3708,7.337 -51.4081,2.6754 -67.1367,-4.6791 -15.6664,-7.3778 -25.1296,-17.6414 -28.6504,-22.2796 0,0.041 3.3034,10.1234 10.643,24.1957 7.3396,14.0547 18.5539,32.0233 35.0275,48.5315 z"
           style="fill:#004f65;fill-rule:evenodd"
           id="path87-2" />
        <path
           d="m 3216.2161,1592.9721 0.503,0.3914 0.087,0.082 c 6.818,4.8835 20.7272,11.4377 37.7659,15.889 17.0201,4.3928 37.176,6.7003 56.4502,1.8985 30.209,-7.7284 57.7666,0.7828 77.612,12.1154 19.8268,11.2099 31.7862,24.8324 32.4009,25.656 0,0 -2.0801,-13.3129 -10.91,-31.8598 -8.7181,-18.5235 -24.4031,-42.4913 -50.3835,-62.0897 -5.5388,-4.4104 -18.3986,-13.3129 -36.2757,-18.3425 -17.7217,-5.0646 -40.3925,-6.1394 -65.0564,3.9372 -27.8867,11.3794 -50.427,9.8722 -67.1429,4.866 -16.6724,-5.0295 -27.7128,-13.8678 -31.8731,-17.951 0,0.023 4.9303,9.4808 14.3935,22.3614 9.4818,12.8981 23.4593,29.0967 42.4292,43.0463 z"
           style="fill:#004f65;fill-rule:evenodd;stroke:#004f65;stroke-width:0.216;stroke-linecap:butt;stroke-linejoin:miter;stroke-dasharray:none"
           id="path89-2" />
        <path
           d="m 3112.7107,1479.7338 0.5278,0.3096 0.1552,0.041 c 7.47,3.8554 22.2795,8.3885 39.8026,10.3454 17.4983,1.9569 37.7846,1.4019 56.1397,-6.122 28.6132,-11.8875 57.2636,-7.2961 78.5993,1.0515 21.4227,8.2658 35.4436,20.0131 36.1639,20.755 0,0 -4.2038,-12.8397 -15.8341,-29.9262 -11.6117,-17.0807 -30.9107,-38.5133 -59.6729,-54.2972 -6.197,-3.5691 -20.3918,-10.468 -38.747,-12.9624 -18.4483,-2.4943 -41.0073,-0.3913 -63.7711,13.0617 -25.7382,15.1881 -48.3034,16.923 -65.6029,14.3235 -17.3058,-2.6988 -29.6005,-9.8079 -34.3508,-13.2895 0,0 6.284,8.7331 17.7405,20.13 11.4564,11.3384 27.8432,25.434 48.8498,36.5797 z"
           style="fill:#004f65;fill-rule:evenodd"
           id="path91-8" />
        <path
           d="m 2992.2782,1382.3027 0.5899,0.2044 0.1304,0.064 h -0.043 c 7.9978,2.7806 23.4841,5.1698 41.0755,4.6323 17.6535,-0.5549 37.6107,-3.9313 54.5439,-13.9496 26.4399,-15.8072 55.4194,-15.334 77.8728,-10.0533 22.4969,5.1464 38.2254,14.7908 39.0389,15.3283 0,0.041 -6.1164,-12.0336 -20.3733,-27.2859 -14.2196,-15.2464 -36.7165,-33.694 -67.6893,-45.2311 -6.7062,-2.6812 -21.82,-7.5414 -40.4359,-7.3545 -18.5974,0.099 -40.5478,5.3742 -60.9024,21.8824 -23.0868,18.7105 -45.0558,23.5532 -62.6286,23.4305 -17.4982,-0.187 -30.774,-5.5612 -36.0086,-8.2658 0,0 7.6438,7.7108 20.7209,17.3319 13.1455,9.6443 31.6124,21.1872 54.1092,29.2661 z"
           style="fill:#004f65;fill-rule:evenodd"
           id="path93-9" />
        <path
           d="m 2857.7131,1303.0855 0.6334,0.1227 0.1552,0.041 c 8.302,1.5889 23.9188,1.7933 41.2681,-1.256 17.3926,-3.0317 36.5364,-9.2296 51.6751,-21.491 23.5897,-19.3764 52.3767,-23.0215 75.3766,-21.0003 23.0867,1.9335 40.1503,9.3114 41.119,9.7261 0,0 -8.0661,-11.0697 -24.5833,-24.1548 -16.4923,-13.085 -41.6592,-28.1679 -74.1719,-35.1953 -7.0043,-1.6473 -22.7328,-4.3286 -41.1128,-1.5246 -18.38,2.7806 -39.2562,11.1048 -56.7358,30.3118 -19.7834,21.7013 -40.7465,29.675 -58.0274,32.0058 -17.4362,2.3249 -31.395,-1.0515 -37.0891,-3.0318 0,0.041 8.8298,6.5951 23.3538,14.2417 14.499,7.6057 34.5866,16.4031 58.1391,21.2048 z"
           style="fill:#004f65;fill-rule:evenodd"
           id="path95-7" />
        <path
           d="m 2712.0144,1243.9632 0.683,0.018 h 0.087 c 8.5628,0.4147 24.0057,-1.6473 40.6781,-7.1092 16.6227,-5.5203 34.5681,-14.341 47.5583,-28.6411 20.1931,-22.5075 48.0612,-30.1716 71.1665,-31.4275 23.093,-1.3611 41.1625,3.4582 42.1685,3.7503 0,0 -9.6806,-9.7904 -28.1661,-20.4221 -18.38,-10.5498 -45.7389,-21.8649 -78.9967,-24.1956 -7.2465,-0.6368 -23.1924,-1.0515 -40.8955,4.3286 -17.7404,5.3566 -37.0394,16.5257 -51.1908,38.0401 -16.1011,24.3183 -35.4684,35.1602 -52.2712,39.9795 -16.7531,4.7433 -31.1466,3.3823 -37.0394,2.2665 0,0.023 9.7923,5.1932 25.3222,10.7368 15.6167,5.4618 36.8469,11.2917 60.8961,12.6761 z"
           style="fill:#004f65;fill-rule:evenodd"
           id="path97-3" />
        <path
           d="m 2558.5228,1206.2678 h 0.6334 0.093 c 8.476,-0.8821 23.4159,-5.088 38.9892,-12.8748 15.6168,-7.7926 31.9601,-19.1252 42.4106,-35.096 16.3868,-25.1245 42.6466,-36.7024 65.2987,-41.2588 22.6521,-4.6791 41.2245,-2.4126 42.3236,-2.2841 0,0 -11.1708,-8.3066 -31.1528,-16.1577 -19.8641,-7.8335 -48.7629,-15.1296 -81.9897,-12.6352 -7.2526,0.3913 -23.0433,2.249 -39.6971,10.1409 -16.6661,7.7868 -33.9533,21.6195 -44.4845,44.8806 -11.9656,26.3161 -29.4018,39.8393 -45.2173,46.9485 -15.8589,7.0857 -30.2959,7.8276 -36.2942,7.5823 0,0 10.5374,3.7502 26.831,6.9631 16.275,3.1953 38.2503,5.9175 62.256,3.7912 z"
           style="fill:#004f65;fill-rule:evenodd"
           id="path99-6" />
        <path
           d="m 2400.5418,1190.9395 0.6582,-0.1635 0.062,-0.041 c 8.24,-2.0445 22.3913,-8.2658 36.5861,-18.1964 14.1514,-9.9131 28.4332,-23.4538 36.3378,-40.7448 12.0712,-27.1632 36.1701,-42.3453 57.81,-50.0737 21.5965,-7.7926 40.3926,-8.3067 41.5103,-8.3067 0,0.058 -12.4624,-6.5717 -33.4256,-11.502 -20.901,-4.8835 -50.6008,-7.9503 -83.0266,-0.8003 -7.0477,1.4195 -22.4969,5.5203 -37.6107,15.6203 -15.2256,10.0767 -30.1158,26.211 -36.7786,50.6754 -7.6438,27.759 -22.7577,43.5195 -37.3064,52.7725 -14.4805,9.2355 -28.6504,11.9752 -34.7171,12.5301 0.087,0.064 11.0404,2.2899 27.6445,3.1545 16.6227,0.9054 38.8588,0.5374 62.256,-4.9245 z"
           style="fill:#004f65;fill-rule:evenodd"
           id="path101-1" />
        <path
           d="m 2241.8592,1197.8851 0.565,-0.2687 0.1118,-0.023 c 7.886,-3.1486 20.7892,-11.3326 33.2765,-23.08 12.3506,-11.8466 24.4466,-27.2216 29.439,-45.3771 7.6438,-28.5827 29.1534,-46.966 49.3093,-57.6619 20.0628,-10.7367 38.5111,-13.8678 39.6039,-14.0314 0,0 -13.2944,-4.7433 -34.8288,-6.6768 -21.404,-1.8752 -51.2156,-0.8237 -82.1698,10.8185 -6.7869,2.3892 -21.3108,8.5754 -34.7605,20.7316 -13.4497,12.0979 -25.5457,30.1307 -28.2593,55.2494 -3.2661,28.5009 -15.5981,46.2416 -28.4331,57.4515 -12.9032,11.1924 -26.4833,15.8482 -32.2705,17.291 0,0.041 11.177,0.6835 27.7128,-0.7594 16.6041,-1.4662 38.4428,-5.012 60.7037,-13.6634 z"
           style="fill:#004f65;fill-rule:evenodd"
           id="path103-2" />
        <path
           d="m 2086.306,1227.1863 0.4782,-0.3096 0.093,-0.082 c 7.2465,-4.2468 18.6843,-14.1774 29.1534,-27.572 10.3388,-13.4181 19.7833,-30.3527 21.8201,-49.0281 2.9991,-29.3246 21.2922,-50.5294 39.5356,-63.9825 18.2061,-13.4589 35.903,-19.1252 36.9773,-19.4172 0,0 -13.9278,-2.8215 -35.5305,-1.7058 -21.491,1.1508 -50.8431,6.4257 -79.6053,22.3556 v -0.041 c -6.2839,3.3589 -19.6902,11.5604 -31.0162,25.4341 -11.3447,13.8854 -20.5036,33.4662 -19.0568,58.7075 1.3785,28.6061 -8.0164,47.9124 -18.8644,60.8163 -10.9286,12.9215 -23.5897,19.429 -29.1099,21.7189 0,0 11.2143,-0.9288 27.2968,-4.7375 16.1632,-3.8788 37.1698,-10.433 57.8286,-22.157 z"
           style="fill:#004f65;fill-rule:evenodd"
           id="path105-9" />
        <path
           d="m 1937.2356,1278.3583 0.4409,-0.3914 0.087,-0.064 c 6.4827,-5.2749 16.2315,-16.6893 24.3349,-31.4275 8.0661,-14.7733 14.6978,-32.7652 13.6732,-51.5808 -1.7573,-29.4064 12.9033,-53.0237 28.7374,-68.8485 15.8155,-15.9123 32.4879,-24.073 33.4503,-24.5461 0,0.041 -14.2383,-0.8412 -35.4001,3.3997 -21.0935,4.206 -49.1975,13.6634 -75.091,33.4663 -5.7189,4.1883 -17.61,14.2416 -26.5268,29.5348 -9.0285,15.3691 -14.8095,36.0014 -9.3762,60.7521 6.0045,28.0627 -0.1553,48.5315 -8.8734,62.7907 -8.718,14.3235 -20.1496,22.6477 -25.2787,25.6327 0.043,0.041 10.9101,-2.5119 26.266,-8.5929 15.356,-6.0986 35.0897,-15.556 53.5566,-30.1248 z"
           style="fill:#004f65;fill-rule:evenodd"
           id="path107-3" />
        <path
           d="m 1798.0941,1350.2151 0.416,-0.4965 0.087,-0.018 h -0.043 c 5.5885,-6.1219 13.2944,-18.8156 19.0134,-34.5585 5.6319,-15.743 9.2893,-34.5002 5.2159,-52.9244 -6.4392,-28.8281 4.1603,-54.1979 17.2809,-72.1665 13.102,-17.9919 28.2593,-28.4366 29.0665,-28.9916 0.093,0 -14.1017,1.2326 -34.3445,8.3827 -20.1994,7.15 -46.4654,20.5505 -68.8256,43.794 -4.9738,4.9011 -15.1201,16.5491 -21.5158,32.9697 -6.3709,16.4907 -8.8236,37.6546 0.503,61.4121 10.4505,26.8536 7.65,47.9124 1.3164,63.3282 -6.284,15.3516 -16.2502,25.2005 -20.8762,28.9098 0,0 10.4256,-4.0598 24.577,-12.1971 14.1762,-8.2424 32.2022,-20.4045 48.1295,-37.4443 z"
           style="fill:#004f65;fill-rule:evenodd"
           id="path109-1" />
        <path
           d="m 1672.0049,1440.9927 0.3725,-0.5141 0.043,-0.064 c 4.4708,-6.8405 10.14,-20.5038 13.2944,-36.8251 3.0489,-16.3856 3.5705,-35.464 -3.3903,-53.1055 -10.9535,-27.5546 -4.5143,-54.157 5.5823,-73.7962 10.0345,-19.5984 23.3103,-32.1052 24.0989,-32.7652 0,0 -13.8223,3.2362 -32.6618,13.1902 -18.796,9.9306 -42.6092,26.8477 -61.0513,53.0003 -4.0548,5.6079 -12.2016,18.5235 -15.9025,35.6509 -3.7256,17.1683 -2.7818,38.5133 10.2519,60.6294 14.6729,25.1011 15.2255,46.3059 11.4564,62.4578 -3.8374,16.1168 -12.1395,27.1866 -16.039,31.5093 0,0.041 9.6184,-5.4794 22.3043,-15.5794 12.7046,-10.1176 28.607,-24.663 41.6407,-43.7882 z"
           style="fill:#004f65;fill-rule:evenodd"
           id="path111-9" />
        <path
           d="m 1561.7994,1548.5822 0.2422,-0.5315 0.087,-0.1052 c 3.3904,-7.3779 6.7683,-21.678 7.2278,-38.2913 0.4161,-16.6075 -2.0801,-35.5692 -11.7234,-52.0131 -15.2877,-25.6736 -13.1392,-52.8952 -6.284,-73.7729 6.7932,-20.7725 17.9205,-34.9908 18.5539,-35.797 0.043,0 -13.1206,5.1757 -30.209,17.6999 -16.9767,12.4484 -37.8281,32.5199 -51.7807,60.9799 -3.2041,6.1395 -9.2459,20.0307 -10.1028,37.5261 -0.9625,17.4545 3.3966,38.414 19.802,58.4446 18.4483,22.7704 22.4099,43.648 21.2736,60.092 -1.2047,16.4848 -7.6004,28.6469 -10.8231,33.4896 0,0 8.6125,-6.7996 19.5598,-18.5294 10.9969,-11.8467 24.3162,-28.4775 34.1768,-49.1917 z"
           style="fill:#004f65;fill-rule:evenodd"
           id="path113-4" />
        <path
           d="m 1470.0361,1670.4602 0.1738,-0.5783 0.043,-0.082 c 2.1671,-7.7926 3.2227,-22.4432 1.0308,-38.9105 -2.2106,-16.4439 -7.7308,-34.8448 -19.9138,-49.6823 -19.212,-23.3312 -21.3977,-50.5294 -17.9639,-72.0672 3.3779,-21.5144 12.096,-37.1347 12.6611,-38.0226 0,0 -12.1768,6.9456 -27.0484,21.7247 -14.7661,14.7324 -32.2457,37.5027 -41.5351,67.651 -2.1485,6.4724 -5.8679,21.0821 -3.9865,38.5191 1.8815,17.3903 9.5502,37.4852 28.9361,54.9806 21.9504,19.8846 29.1596,39.9795 30.6499,56.4468 1.4654,16.3622 -2.9619,29.3246 -5.3029,34.5586 0,0 7.4265,-7.9386 16.3868,-21.0821 8.9105,-13.2545 19.4294,-31.5911 25.8686,-53.456 z"
           style="fill:#004f65;fill-rule:evenodd"
           id="path115-7" />
        <path
           d="m 1398.9067,1803.9161 0.1304,-0.6016 v -0.082 c 0.8135,-7.9737 -0.4595,-22.5834 -5.2532,-38.5776 -4.8433,-15.9299 -13.2572,-33.3026 -27.6693,-46.3234 -22.6956,-20.3228 -29.29,-46.8843 -29.3335,-68.6674 -0.087,-21.7597 6.0046,-38.4315 6.4454,-39.4012 0,0 -10.9348,8.5929 -23.242,25.3289 -12.2698,16.6309 -25.8748,41.6678 -30.2524,72.7623 -1.0991,6.7587 -2.4341,21.7247 2.2788,38.6594 4.6633,16.9813 15.443,35.6918 37.4369,50.2431 24.8626,16.5257 35.22,35.4056 39.3865,51.3939 4.0734,16.0117 1.7697,29.453 0.3043,34.909 0,0.064 6.0915,-8.8382 12.7729,-23.1208 6.7683,-14.3643 14.1948,-34.0036 16.9952,-56.5228 z"
           style="fill:#004f65;fill-rule:evenodd"
           id="path117-8" />
        <path
           d="m 1350.1252,1945.9416 v -0.6601 c -0.4408,-8.038 -4.0113,-22.2972 -11.3943,-37.3625 -7.3768,-15.0829 -18.529,-31.0946 -34.8723,-41.8956 -25.6699,-16.771 -36.4309,-42.1409 -40.02,-63.6553 -3.5704,-21.5553 -0.1738,-38.9047 0,-39.8977 0.1118,0 -9.4197,10.0591 -18.9264,28.3373 -9.4197,18.2139 -18.796,44.904 -18.0757,76.3081 0,6.8229 1.0556,21.7831 8.4386,37.8999 7.3831,16.0935 21.0066,33.0515 45.1242,44.3082 27.2719,12.752 40.5229,29.8561 47.2291,45.1492 6.6131,15.2465 6.5696,28.8281 5.9362,34.4944 0,0 4.5578,-9.6211 8.9603,-24.7682 4.2721,-15.0829 8.4759,-35.5867 7.6003,-58.2577 z"
           style="fill:#004f65;fill-rule:evenodd"
           id="path119-4" />
        <path
           d="m 1327.5414,2076.284 -0.18,-0.6368 v -0.064 c -1.6828,-7.8511 -7.5756,-21.4911 -17.2561,-35.3414 -9.6868,-13.8678 -23.2234,-28.0861 -41.1625,-36.4337 -28.1475,-12.9215 -42.8701,-36.4337 -49.8371,-57.1887 -7.0726,-20.7725 -6.464,-38.4081 -6.464,-39.4421 0.05,0 -7.6625,11.2917 -14.1017,30.7499 -6.4206,19.3472 -11.3509,47.0887 -5.6134,77.9145 1.0991,6.7587 4.5826,21.4151 14.4184,36.2935 9.8544,14.8375 26.1542,29.6926 51.7807,37.3625 28.9857,8.7565 44.8881,23.8219 53.8918,37.9584 9.0472,14.1949 11.1274,27.613 11.3882,33.3435 0,-0.041 2.9557,-10.2636 4.862,-25.8021 1.9063,-15.5794 2.7197,-36.4162 -1.7263,-58.7133 z"
           style="fill:#004f65;fill-rule:evenodd"
           id="path121-5" />
      </g>
      <g
         id="Layer1004-0"
         transform="matrix(0.05731977,0,0,0.05731977,-30.849325,-16.497409)">
        <path
           d="m 3051.021,2492.2565 v -255.8041 c 0,-24.2987 21.0664,-44.117 46.8955,-44.117 h 129.9734 c 25.8291,0 46.8955,19.8183 46.8955,44.117 v 254.6485 h 156.5923 c 25.8291,0 46.8956,19.8183 46.8956,44.117 v 97.3753 c 0,24.2987 -21.0665,44.117 -46.8956,44.117 h -333.4612 c -7.2755,0 -14.1732,-1.5725 -20.3285,-4.3745 -6.2509,2.8751 -13.2487,4.3745 -20.7416,4.3745 h -136.2467 c -20.9814,0 -38.7756,-12.4114 -44.8723,-31.2979 l -10.9712,-33.988 h -77.9294 l -11.0399,34.0425 c -6.1165,18.86 -23.8946,31.2434 -44.8546,31.2434 h -132.8159 c -15.8745,0 -29.5271,-6.7307 -38.5609,-19.0104 -9.0341,-12.2796 -10.9206,-26.6712 -5.3286,-40.6478 l 158.4969,-396.1408 c 7.0136,-17.5292 23.98,-28.5758 43.8895,-28.5758 h 142.4222 c 19.9329,0 36.9178,11.0756 43.913,28.6348 z m -1293.1808,-6.3201 106.0372,-265.0252 c 7.0136,-17.5292 23.98,-28.5758 43.8896,-28.5758 h 142.4221 c 19.9329,0 36.9178,11.0756 43.913,28.6348 l 157.8109,396.1408 c 5.5668,13.9737 3.6656,28.3502 -5.3712,40.6147 -9.0365,12.2645 -22.6794,18.9845 -38.5418,18.9845 h -136.2467 c -20.9814,0 -38.7755,-12.4114 -44.8723,-31.2979 l -10.9712,-33.988 h -77.9294 l -11.0399,34.0425 c -6.1165,18.86 -23.8946,31.2434 -44.8546,31.2434 H 1749.27 c -6.9516,0 -13.4771,-1.2908 -19.3752,-3.773 -5.8,2.4246 -12.2129,3.773 -18.9502,3.773 h -122.9162 c -16.0195,0 -29.7955,-6.8646 -38.7954,-19.3321 l -71.3358,-98.8204 v 74.0355 c 0,24.2987 -21.0665,44.117 -46.8956,44.117 h -122.328 c -25.8291,0 -46.8956,-19.8183 -46.8956,-44.117 v -396.1408 c 0,-24.2987 21.0665,-44.117 46.8956,-44.117 h 121.4457 c 16.0189,0 29.7941,6.864 38.794,19.3302 l 72.2195,100.0336 v -75.2468 c 0,-24.2987 21.0665,-44.117 46.8956,-44.117 h 122.9162 c 25.8291,0 46.8956,19.8183 46.8956,44.117 z m 807.513,-767.532 c 2.6978,-21.9154 22.5852,-39.0246 46.584,-39.0246 h 395.8018 c 25.8291,0 46.8956,19.8183 46.8956,44.117 v 97.9286 c 0,24.2987 -21.0665,44.117 -46.8956,44.117 h -86.0188 v 254.0952 c 0,24.2987 -21.0665,44.117 -46.8956,44.117 h -129.9733 c -25.8291,0 -46.8956,-19.8183 -46.8956,-44.117 v -254.0952 h -83.2791 c -3.2325,16.5385 -9.1972,32.4767 -18.4266,47.3186 -9.6344,15.4929 -21.7609,28.8969 -36.1086,40.1597 8.401,9.8289 17.3132,20.8758 23.3269,32.1981 l 63.0226,114.0733 c 7.7729,14.0698 7.2212,29.691 -1.5275,43.2444 -8.7487,13.5534 -23.2284,21.2181 -40.0836,21.2181 h -147.0287 c -17.6719,0 -32.8309,-8.4973 -41.2426,-23.1183 l -48.3048,-83.9628 v 62.9641 c 0,24.2987 -21.0664,44.117 -46.8955,44.117 h -130.5616 c -7.6272,0 -14.8387,-1.7282 -21.2155,-4.7893 -6.471,3.1453 -13.7736,4.7893 -21.6189,4.7893 h -136.2466 c -20.9815,0 -38.7756,-12.4114 -44.8724,-31.2979 l -10.9712,-33.988 h -77.9294 l -11.0398,34.0425 c -6.1166,18.86 -23.8947,31.2434 -44.8546,31.2434 h -132.816 c -15.8744,0 -29.5271,-6.7307 -38.5608,-19.0104 -9.0341,-12.2796 -10.9207,-26.6712 -5.3287,-40.6478 l 158.4969,-396.1408 c 7.0136,-17.5292 23.9801,-28.5758 43.8896,-28.5758 h 142.4221 c 19.933,0 36.9179,11.0756 43.913,28.6348 l 109.8368,275.715 v -260.2328 c 0,-24.2987 21.0664,-44.117 46.8955,-44.117 h 216.8186 c 34.2974,0 73.8622,1.8958 106.6582,11.9425 19.2403,5.894 36.3458,15.0127 51.0298,27.0821 z m -159.3866,654.5223 49.0256,-149.4809 c 6.1641,-18.7951 23.903,-31.1104 44.811,-31.1104 h 132.0321 c 15.8373,0 29.4588,6.697 38.5009,18.929 9.0422,12.2321 10.9746,26.5761 5.4624,40.5432 l -156.3408,396.1408 c -6.9552,17.6241 -23.9797,28.7618 -43.9632,28.7618 H 2334.543 c -19.8894,0 -36.8402,-11.022 -43.8691,-28.5254 L 2131.5884,2252.044 c -5.6137,-13.9788 -3.7399,-28.3833 5.2918,-40.6759 9.0318,-12.2929 22.6928,-19.0327 38.5773,-19.0327 h 135.9529 c 20.8404,0 38.5274,12.2264 44.7538,30.9364 z"
           style="fill:#004f65;fill-rule:evenodd"
           id="path124-3" />
        <path
           d="m 1990.6909,2054.3519 h -147.4212 l -21.1719,65.2859 h -132.8162 l 158.4972,-396.1409 h 142.422 l 157.8109,396.1409 H 2011.765 Z m -27.5432,-85.7568 -45.9711,-142.3746 -46.167,142.3746 z m 227.6986,151.0427 v -396.1409 h 216.8187 c 40.1879,0 70.9656,3.2272 92.1379,9.7744 21.27,6.4548 38.4236,18.5343 51.4601,36.0547 13.0366,17.6122 19.5058,39.0977 19.5058,64.3635 0,21.9464 -4.9989,40.9422 -14.997,56.8947 -9.8997,16.0447 -23.6225,28.9545 -41.1681,38.9132 -11.0761,6.2705 -26.367,11.5265 -45.6766,15.6761 15.4868,4.8873 26.759,9.6821 33.8164,14.5693 4.705,3.2275 11.6643,10.2356 20.7802,20.84 9.0179,10.6041 15.0948,18.811 18.1336,24.6203 l 63.2222,114.4347 h -147.0291 l -69.4956,-120.7973 c -8.8217,-15.6759 -16.6632,-25.8191 -23.5244,-30.5221 -9.4099,-6.086 -20.094,-9.1287 -31.9544,-9.1287 h -11.4682 v 160.4481 z m 130.5615,-235.1396 h 54.9888 c 5.8813,0 17.4475,-1.8442 34.503,-5.4405 8.6255,-1.5676 15.683,-5.7172 21.0742,-12.4486 5.489,-6.7315 8.2335,-14.385 8.2335,-23.0528 0,-12.8174 -4.3129,-22.6842 -12.9388,-29.5078 -8.6255,-6.916 -24.7986,-10.3277 -48.6175,-10.3277 h -57.2432 z m 290.5291,-161.0013 h 395.8016 v 97.9285 h -132.914 v 298.2124 h -129.9736 v -298.2124 h -132.914 z m -1303.2638,512.9558 h 121.4459 l 157.909,218.7258 v -218.7258 h 122.9159 v 396.1408 H 1588.028 l -157.0269,-217.527 v 217.527 h -122.328 z m 742.0054,330.855 h -147.4209 l -21.1719,65.2858 h -132.8162 l 158.4972,-396.1408 h 142.422 l 157.8109,396.1408 h -136.2469 z m -27.5431,-85.7568 -45.9712,-142.3746 -46.167,142.3746 z m 152.3216,-245.0982 h 135.9528 l 94.8829,285.118 93.5102,-285.118 h 132.0321 l -156.3409,396.1408 h -140.9516 z m 724.068,330.855 h -147.4208 l -21.172,65.2858 H 2598.116 l 158.497,-396.1408 h 142.4222 l 157.811,396.1408 h -136.247 z m -27.5431,-85.7568 -45.9711,-142.3746 -46.1671,142.3746 z m 225.934,-245.0982 h 129.9739 v 298.7654 h 203.4879 v 97.3754 h -333.4618 z"
           style="fill:#f8b51c;fill-rule:evenodd"
           id="path126-6" />
      </g>
      <path
         d="m 159.68727,59.814017 h -10.13243 v 24.234856 h 10.13243 z"
         style="fill:#004f65;fill-rule:evenodd;stroke-width:0.0573198"
         id="path131-0" />
    </g>
  </g>
</svg>
