<?xml version="1.0" encoding="UTF-8" standalone="no"?>
<svg
   xmlns:dc="http://purl.org/dc/elements/1.1/"
   xmlns:cc="http://creativecommons.org/ns#"
   xmlns:rdf="http://www.w3.org/1999/02/22-rdf-syntax-ns#"
   xmlns:svg="http://www.w3.org/2000/svg"
   xmlns="http://www.w3.org/2000/svg"
   xmlns:sodipodi="http://sodipodi.sourceforge.net/DTD/sodipodi-0.dtd"
   xmlns:inkscape="http://www.inkscape.org/namespaces/inkscape"
   width="923.18353mm"
   height="1140.3787mm"
   viewBox="0 0 923.18353 1140.3787"
   version="1.1"
   id="svg453"
   inkscape:version="1.0.1 (3bc2e813f5, 2020-09-07)"
   sodipodi:docname="logoArtNaval.svg">
  <defs
     id="defs447" />
  <sodipodi:namedview
     id="base"
     pagecolor="#ffffff"
     bordercolor="#666666"
     borderopacity="1.0"
     inkscape:pageopacity="0.0"
     inkscape:pageshadow="2"
     inkscape:zoom="0.0875"
     inkscape:cx="1573.1702"
     inkscape:cy="2155.0463"
     inkscape:document-units="mm"
     inkscape:current-layer="layer1"
     inkscape:document-rotation="0"
     showgrid="false"
     inkscape:window-width="1310"
     inkscape:window-height="704"
     inkscape:window-x="56"
     inkscape:window-y="27"
     inkscape:window-maximized="1" />
  <metadata
     id="metadata450">
    <rdf:RDF>
      <cc:Work
         rdf:about="">
        <dc:format>image/svg+xml</dc:format>
        <dc:type
           rdf:resource="http://purl.org/dc/dcmitype/StillImage" />
        <dc:title></dc:title>
      </cc:Work>
    </rdf:RDF>
  </metadata>
  <g
     inkscape:label="Layer 1"
     inkscape:groupmode="layer"
     id="layer1"
     transform="translate(435.13344,444.70126)">
    <g
       id="Layer1002-3"
       transform="matrix(0.25793895,0,0,0.25793895,-584.8636,-504.62067)">
      <path
         d="m 1160.4628,4381.118 c 120.0825,72.9507 292.0853,95.109 403.8035,93.7888 111.6084,-1.3271 282.9521,-27.578 400.6807,-103.4192 120.0198,72.9507 292.0618,95.1576 403.7251,93.8096 111.7418,-1.3271 282.9521,-27.6058 400.8141,-103.3984 120.0512,72.9994 291.999,95.1368 403.7486,93.7889 111.6633,-1.2994 282.8422,-27.578 400.6807,-103.3706 120.0747,72.9507 292.0853,95.109 403.7487,93.7332 50.1547,-0.5628 93.6163,-4.6068 133.9708,-10.0265 l 2.9895,116.232 c -39.0284,3.7799 -82.9844,6.6426 -134.0022,7.2541 -232.5149,2.7515 -318.3789,-42.2321 -403.7487,-94.0251 -117.8385,75.8899 -289.0409,102.238 -400.7356,103.5652 -111.7182,1.3688 -283.6425,-20.8868 -403.7172,-93.9556 -117.8071,75.9107 -289.0959,102.2866 -400.7906,103.5373 -111.6319,1.3967 -283.6739,-20.8867 -403.7172,-93.9764 -117.76,75.9107 -289.0488,102.2867 -400.7356,103.6138 -111.6947,1.348 -283.6975,-20.8659 -403.7801,-93.9556 -117.7207,75.8899 -288.9859,102.2589 -400.6492,103.5374 -55.5296,0.7087 -98.8187,-5.4406 -134.3318,-14.3136 l -2.9895,-114.2934 c 36.0389,9.6096 79.5005,16.0507 134.3317,15.4184 111.6947,-1.5009 283.007,-27.7517 400.7043,-103.5443 z"
         style="fill:#004f65;fill-rule:evenodd"
         id="path29-6" />
      <path
         d="m 2748.0193,556.168 c 8.6348,5.7794 16.8775,11.9323 24.0344,18.7986 16.6127,14.9977 29.3053,32.4365 37.5428,49.0727 7.0085,15.2151 10.8756,29.1594 10.1869,41.2478 -1.0648,31.6172 -6.6694,63.2121 -13.4554,92.4663 -10.9127,45.3218 -24.0503,85.154 -33.6228,122.7848 -0.9482,3.8567 -1.6051,8.4156 -2.6328,13.4706 -7.8296,-8.2206 -14.5785,-17.2437 -20.2785,-27.2143 -12.3695,-20.2477 -19.9554,-44.6308 -24.5536,-70.8586 -2.0395,-14.8807 -3.6234,-29.7056 -3.046,-44.4915 0.4662,-24.2437 2.9878,-51.0233 4.524,-79.67 0.8953,-11.793 1.2661,-23.4523 1.4939,-35.5073 0.1112,-11.9714 0.1854,-24.4779 -0.694,-36.6276 -1.0065,-19.2111 -2.8182,-39.1857 -7.0455,-58.982 9.7366,4.4809 19.1025,9.6306 27.5466,15.5105 z m 10.3193,1146.2501 c -14.3719,6.0136 -27.8114,8.5717 -38.7983,7.4515 -15.193,-1.3209 -30.4443,-4.0908 -45.6373,-7.5518 -22.3869,-5.3671 -43.6348,-10.9348 -64.7557,-17.1267 -33.6545,-10.1657 -64.5861,-19.6235 -95.4595,-25.5981 -3.8089,-0.7468 -8.6136,-1.3153 -13.6197,-1.7277 8.2004,-9.1624 17.3967,-17.1099 27.6579,-23.8703 20.4639,-14.6076 45.2823,-23.653 71.1443,-28.3513 7.2681,-1.1982 14.6898,-1.945 22.1062,-2.2627 7.178,-0.4905 14.3189,-0.5685 21.2903,-0.1784 9.1751,0.5351 18.684,1.5383 28.5531,2.7922 13.7733,1.8281 27.6049,3.6561 41.6748,5.5455 15.0447,1.984 30.3331,4.0127 45.8969,6.0748 24.7813,2.3185 51.0566,3.6394 78.1741,2.5749 1.7746,-0.056 3.4751,-0.1728 5.1755,-0.3511 -10.2611,18.1688 -22.6147,34.5041 -35.7523,48.6212 -8.4811,8.1983 -17.4338,15.4547 -26.3281,21.6299 -7.1569,4.8543 -14.2236,9.2962 -21.3222,12.3281 z m -66.3237,-114.8652 c -6.3198,-0.9029 -12.6343,-1.8281 -18.8959,-2.7142 -17.063,-2.4745 -34.216,-5.1887 -50.2355,-6.309 -3.8088,-0.2731 -8.4811,-0.3121 -13.3812,-0.195 l 2.5639,-3.305 c 6.1821,-8.4937 13.0423,-16.2795 21.0202,-23.0622 5.647,-4.6425 10.918,-9.3965 17.01,-13.4483 7.0827,-4.9156 14.7427,-9.2405 22.8902,-12.9746 7.8878,-3.9347 15.9399,-7.5128 24.633,-10.344 6.8389,-2.2237 13.9057,-4.0518 21.0784,-5.4841 7.1568,-1.4379 13.7945,-2.8702 20.6865,-3.6394 22.9696,-2.6751 49.0594,-2.9482 75.8378,-5.1106 21.9791,-1.2986 45.6003,-2.7142 68.1355,-7.2119 17.794,-3.2213 36.8912,-6.7603 54.7753,-12.9746 -2.7652,10.6562 -7.1727,20.2032 -11.453,29.7781 -4.5028,9.4188 -9.1751,18.6593 -14.6156,26.9412 -10.277,14.5852 -21.4545,27.5598 -33.0612,37.5304 -2.8394,2.4188 -5.7,4.8376 -8.5553,6.844 -11.9457,8.0032 -23.5471,13.0526 -33.787,14.8639 l -3.74,0.5295 c -14.6526,1.6497 -29.8986,1.594 -44.8903,0.9642 -14.9282,-0.5908 -29.602,-1.789 -43.7461,-3.2437 -17.9212,-2.0286 -35.604,-4.9769 -52.2697,-7.4347 z m -105.1591,-12.5232 -2.654,4.0295 -2.0554,3.578 -2.8024,5.3504 c -21.1738,5.6234 -43.3964,13.8607 -62.8327,27.8998 -15.585,10.1267 -29.4537,23.731 -42.2363,40.384 l -2.5746,3.422 -3.9095,5.7181 c -11.3047,1.711 -22.7789,4.3249 -34.1419,8.0646 0.037,7.6242 0.037,15.293 0.037,23.0009 3.8671,-1.4546 7.7554,-3.0096 11.8133,-4.1688 12.6502,-3.7731 25.7666,-6.309 39.4128,-7.1951 15.1559,-0.8639 30.1635,-0.2954 44.1222,2.1067 11.755,2.0788 23.902,4.9713 36.441,8.3543 12.3536,3.2046 25.0621,6.8217 38.2368,10.6728 21.3221,6.5709 43.4124,13.2143 65.7251,18.0129 17.508,4.0294 35.7152,8.0199 54.1185,10.2214 -12.4808,15.8894 -26.556,29.3767 -41.0921,40.7573 -16.5227,12.0717 -33.9565,20.8051 -50.066,25.6204 -14.5785,3.8734 -27.9015,4.4252 -38.5705,1.828 -28.3147,-6.6823 -56.7036,-17.5001 -83.5563,-27.9388 -20.501,-7.9029 -40.4776,-16.3576 -59.8979,-23.6697 -5.5305,-2.0844 -11.008,-3.9125 -16.5544,-5.8408 0.037,8.0422 0.074,16.1235 0.1112,24.2437 26.4076,8.6498 53.9542,20.075 83.3867,31.673 24.7973,9.4188 50.9612,19.3838 77.8191,26.3448 -13.4978,14.2565 -28.2988,25.6371 -43.3223,35.0782 -16.9146,10.3775 -34.5339,16.9261 -50.6062,20.114 -14.3878,2.8312 -27.4725,2.0064 -37.8236,-1.3989 -9.6466,-3.2436 -19.288,-6.922 -28.8392,-10.7341 0.037,8.0422 0.1536,16.0844 0.1695,24.1824 9.5301,3.9347 19.1396,7.6911 28.9133,11.0685 -9.2334,8.6163 -18.7846,15.9675 -28.5743,22.4158 0.074,8.2205 0.1484,16.4969 0.2596,24.7955 19.6217,-11.3862 39.5453,-27.036 58.3829,-47.3283 20.7076,-2.0454 44.3659,-9.965 68.3421,-24.4388 v 0 c 10.8968,-6.7437 21.8836,-14.7246 32.6268,-23.9874 10.7484,-9.3352 21.2109,-20.5821 31.2654,-32.7151 21.195,-3.461 44.742,-14.7859 68.4374,-31.7343 v 0 c 21.0784,-16.3965 42.2893,-37.6307 59.9721,-65.7479 6.3145,-2.1011 12.8356,-4.8153 19.4892,-8.1203 6.5582,-3.461 13.1005,-7.8026 19.7541,-12.5621 8.9155,-6.4483 17.8258,-13.8998 26.6142,-22.3935 l 0.037,-0.022 c 18.9277,-20.4428 37.617,-45.3386 50.7175,-76.9726 13.1006,-7.117 25.8991,-18.1075 38.1627,-31.9683 6.7807,-7.6298 13.3971,-16.0622 19.807,-25.2636 v -0.061 c 7.9409,-12.2501 14.9123,-26.2279 21.3063,-41.0138 6.4257,-14.797 10.7643,-31.7286 14.6155,-48.755 9.0798,-7.9809 16.7028,-18.8321 24.5748,-30.8871 l 2.1454,-3.5 c 7.0297,-11.2859 12.894,-24.2772 17.8841,-38.595 v -0.017 c 0.9006,-2.6361 1.7959,-5.3113 2.7123,-7.9809 1.5522,-4.6425 3.009,-9.3798 4.1691,-14.3345 0.7628,-3.5223 1.3455,-7.2564 1.9971,-10.8734 0.8423,-4.4419 1.8117,-8.7891 2.4686,-13.3703 2.8394,-16.4356 3.1944,-34.1531 2.3521,-52.1213 6.6906,-10.5168 11.7549,-23.1012 16.0353,-37.2406 2.0924,-7.0558 4.2432,-14.4906 5.6258,-22.2931 1.2502,-7.8472 2.2249,-16.0065 2.9136,-24.4611 v 0 c 2.6381,-30.5137 -1.4197,-64.7615 -12.2794,-98.5802 4.2432,-14.2564 5.8166,-30.692 6.2456,-48.8219 -0.2807,-12.0104 -1.5521,-24.6506 -3.6658,-37.7868 v -0.039 c -2.5374,-14.6856 -7.1356,-29.6108 -12.4807,-44.8258 -6.092,-14.903 -13.2489,-30.0623 -22.371,-44.5361 0.2808,-11.9937 -0.5245,-25.3027 -3.1414,-39.2414 -3.0248,-13.7047 -6.9502,-28.5296 -13.3018,-43.1205 l -0.037,-0.039 c -11.5537,-26.7963 -28.818,-54.4007 -52.8736,-78.1317 -1.7746,-11.9937 -5.4722,-24.5782 -10.8915,-37.5138 -5.1755,-13.1139 -12.6555,-26.2111 -21.6028,-39.325 v -0.0167 c -7.9462,-12.0327 -18.2232,-23.3019 -29.1359,-34.4875 -11.5484,-10.7564 -23.8278,-21.3902 -38.2156,-30.3743 -4.4498,-11.1521 -10.1498,-23.1012 -18.4668,-34.5655 -4.0525,-5.7795 -8.5394,-11.6203 -13.4184,-17.3997 -5.0802,-5.6625 -10.6319,-11.2302 -16.5385,-16.731 v -0.0223 c -10.4836,-10.1044 -23.4358,-19.0327 -36.9283,-27.5822 -14.2395,-8.0645 -29.1518,-15.633 -46.1777,-21.0781 -8.6136,-12.2891 -21.2479,-24.0097 -36.3297,-35.1729 -10.9339,-7.0001 -21.8095,-14.3178 -35.7523,-19.8019 l -0.016,-0.0167 c -7.5329,-3.0319 -15.7386,-6.4873 -23.4729,-8.4937 -7.8137,-2.0677 -15.8128,-3.8957 -24.0714,-5.4283 -8.1634,-1.594 -16.8353,-2.0844 -25.5071,-2.6529 -4.3916,-0.3344 -8.8944,-0.4515 -13.4184,-0.3567 -4.3174,0.0613 -8.6931,0.2954 -13.0634,0.6521 -21.6983,-13.114 -51.6923,-21.2175 -85.6276,-21.5296 h -0.074 c -28.2565,-0.3177 -58.9656,6.0526 -88.324,19.2668 -2.9877,1.3766 -5.9966,2.7142 -8.9526,4.2078 -24.1245,-3.7564 -54.2668,-1.3766 -84.9548,10.2047 h -0.037 c -27.8062,10.383 -56.1209,27.8775 -80.7487,52.2216 -23.1762,3.1823 -49.8381,13.4873 -75.5889,31.8903 h -0.037 c -11.4,8.098 -22.5935,17.8289 -33.2307,29.0368 -1.5309,10.0096 -2.5427,20.2142 -2.5427,30.692 0,8.5717 0.6356,17.0654 1.7057,25.4253 1.8859,-0.0836 3.846,-0.2397 5.6047,-0.1616 15.6804,1.1035 31.1912,3.4219 46.4372,6.5876 22.424,4.8543 44.2335,11.4029 64.7716,17.9682 32.9658,11.1521 62.9598,23.4022 90.8243,33.2669 3.5122,1.1815 7.8296,2.4801 12.3695,3.7564 -7.9409,7.4347 -16.4644,13.883 -25.862,19.4842 -19.4204,11.3862 -42.2576,18.8153 -67.3939,22.438 -13.9375,1.867 -28.4047,2.5915 -42.1198,1.7277 -9.0638,-0.5518 -18.4244,-1.4156 -28.1028,-2.3798 -4.0366,-0.3901 -8.2216,-0.8249 -12.4065,-1.2596 7.268,8.6553 15.3201,16.5359 24.0132,23.731 12.3483,1.633 24.5111,3.1489 36.2873,4.2302 3.6605,0.3121 8.2958,0.4681 13.0264,0.5127 -4.4287,6.4873 -9.3288,12.4061 -14.409,18.0463 1.9071,0.9419 3.7347,1.9841 5.6788,2.8702 13.7203,-10.7174 24.7814,-18.1076 34.1631,-23.5136 l 0.4662,-0.8862 2.4845,-5.1107 c 20.448,-4.1688 40.2763,-10.9348 58.3829,-21.5909 13.7944,-8.2373 26.6142,-18.5757 38.5705,-32.102 l 2.4315,-2.8145 3.74,-4.7373 c 20.1461,1.6497 39.6565,1.0979 58.1922,-3.3997 14.1123,-3.5613 27.7161,-9.0677 41.7489,-17.8568 l 2.8765,-1.8057 2.225,-1.5327 2.4315,-1.7333 c 17.153,8.6497 33.9565,14.8862 51.7293,17.4388 13.3442,2.3631 27.5095,1.7723 43.5236,-0.6855 l 3.3056,-0.5518 5.3663,-1.2205 c 4.916,4.7428 7.9249,9.8312 12.2794,13.7827 4.0896,4.1298 8.7037,8.8671 13.4555,12.3281 1.8488,1.5326 3.7717,3.0318 5.7,4.5255 2.6116,1.9841 5.3027,3.8901 8.1845,5.5008 6.0709,3.9738 12.7244,7.4738 20.0137,10.422 7.178,3.5001 15.193,5.6067 23.6795,8.1203 l 3.491,0.9029 5.1385,1.1035 c 8.7301,19.0104 19.5686,37.5137 34.2955,53.3418 11.1775,12.2501 24.5535,23.1402 40.8166,32.364 l 3.3268,1.8448 5.4934,2.8312 c 4.969,21.5519 12.0146,42.9978 23.6954,62.2089 8.5235,14.7859 19.5475,28.3903 33.5645,40.9524 l 2.9718,2.4969 4.8948,4.0127 c 0.074,22.3544 3.2897,44.3577 10.0916,65.5529 5.5146,15.9451 12.9681,31.4556 23.902,46.5536 l 2.2408,3.0876 3.8141,4.8209 c -2.8235,14.6465 -5.5517,29.5495 -5.308,44.3744 -0.3549,6.5876 -0.3549,13.1919 0.3761,19.8186 1.1549,8.1592 1.7376,16.3352 3.9254,24.5948 2.2779,8.2986 4.6671,16.6362 7.9938,25.1857 l 1.4621,3.4833 2.3521,4.9936 c -9.4559,18.6147 -16.9306,37.9262 -20.2785,58.6476 -3.1573,15.7278 -3.009,32.5591 -1.2502,50.8617 l 0.5244,3.7564 1.0648,6.0972 c -14.2607,15.332 -26.4447,32.2414 -35.4133,51.8872 -1.8117,4.6982 -3.777,9.4913 -5.7,14.3902 -1.086,2.9872 -2.2832,5.9578 -3.1573,9.1401 -1.478,5.1163 -2.5427,10.5391 -3.5916,16.0678 -0.6145,3.4777 -1.2714,6.9777 -1.9442,10.5558 l -0.5191,3.8511 -0.6198,6.4316 c -4.4075,2.9092 -8.6719,6.0358 -12.7615,9.3575 -4.2274,3.2436 -8.709,6.5096 -12.7085,10.0876 -2.2991,1.9451 -4.2803,4.1856 -6.394,6.309 -5.5093,5.5677 -10.6902,11.4865 -15.8075,17.8345 -11.0293,12.9746 -18.6152,29.2541 -26.0898,47.2279 l -1.4409,3.7564 -1.9601,6.1863 c -7.0826,2.77 -13.4925,6.2532 -20.3898,9.7533 -6.8972,3.4777 -13.5825,7.4682 -19.9394,11.9937 -5.753,3.9514 -10.8386,8.5717 -16.4644,13.2086 -12.6132,10.4388 -22.9114,24.0487 -32.9076,39.5201 z m 379.4066,-149.4808 c -2.262,3.0709 -4.5451,6.1585 -6.8601,8.9061 -10.4094,12.9188 -23.0438,20.766 -33.5645,24.6784 -14.8751,5.2111 -29.9198,9.2963 -45.526,12.0105 -22.9644,3.8734 -44.5143,6.8216 -66.6204,8.1035 -16.8193,0.8806 -33.342,1.75 -49.8435,2.5916 -16.1624,0.613 -32.0123,1.0422 -46.7762,2.4411 -3.7347,0.3511 -8.2216,1.0812 -12.9098,1.945 4.6882,-10.6561 10.6319,-20.387 17.8841,-29.2541 8.5765,-11.8599 19.6005,-22.098 31.8428,-31.4221 7.3422,-5.6235 15.0447,-10.9682 23.1921,-15.8839 12.6344,-6.8439 25.47,-13.1139 38.4434,-17.6561 8.0733,-2.8145 16.7399,-5.3671 25.5654,-8.059 5.2285,-1.6719 10.5577,-3.3272 15.8287,-4.9936 3.6817,-1.1648 7.2839,-2.3018 10.9497,-3.4443 9.2493,-2.8869 19.1555,-5.8018 28.9081,-9.0844 9.5883,-3.3997 19.4574,-7.0001 29.5861,-10.9682 l 4.1849,-1.711 c 24.3682,-9.5192 48.0847,-21.7637 72.0979,-37.2797 -1.0435,12.6068 -2.691,25.1689 -5.1914,37.2797 -1.7588,8.7277 -3.9837,17.2437 -7.0668,25.2079 l -0.1854,0.5072 c -3.9837,10.7954 -8.0362,21.3512 -13.5296,30.4356 -3.348,5.6067 -6.8443,10.7564 -10.4095,15.6498 z m -185.6852,-46.5926 -3.4963,1.371 0.3337,-1.371 c 1.78,-8.8504 5.0485,-17.0319 8.3382,-25.2079 l 1.9971,-5.055 c 9.4771,-20.9165 23.8649,-40.0105 41.8444,-57.8227 9.8849,-9.8313 21.7141,-18.9325 32.6321,-26.8744 21.1314,-13.8607 42.3264,-27.7437 64.1888,-42.0559 18.6893,-12.4451 37.3416,-26.4285 55.6548,-42.4294 13.7203,-12.3671 27.9015,-25.9714 40.7583,-41.1307 2.3574,10.7508 3.5546,21.6633 4.5028,32.4197 1.0489,10.7731 0.9006,21.4292 -0.037,31.7732 -1.3826,23.3186 -7.66,44.9652 -15.5638,62.2257 -7.2733,15.4547 -17.0471,26.9189 -26.3123,33.6403 -12.2264,9.0454 -26.1639,16.6529 -39.6194,23.5359 -13.5508,6.8607 -26.8208,12.9189 -40.7954,17.9125 -14.1865,5.2278 -27.5678,9.7142 -40.8749,13.8608 -6.4841,2.0231 -12.984,4.1075 -19.5263,5.8798 -18.3132,5.367 -36.5735,10.6728 -55.3157,16.1625 -2.6011,0.8248 -5.6259,1.9228 -8.709,3.1656 z m 237.6371,-292.2682 c -2.6911,16.7143 -9.3659,30.5137 -16.6127,39.6204 -5.1227,6.309 -10.2823,12.3839 -15.8658,18.2246 -5.7212,5.8576 -11.5696,11.5033 -17.4391,16.9094 -8.8573,7.9029 -17.3968,15.3711 -26.5189,22.4101 -9.1911,7.0223 -18.255,13.6657 -27.1175,20.0192 -13.9587,10.0431 -28.9081,18.9324 -42.4218,27.4818 -13.0422,8.0813 -26.0686,16.1848 -39.4128,24.4612 -3.1202,1.984 -6.7648,4.6592 -10.4253,7.5295 -0.9165,-11.1689 0.2966,-21.9197 2.1507,-32.7765 3.4539,-22.4324 12.6873,-44.6308 25.2051,-66.9629 3.5175,-6.1529 7.48,-12.2501 11.7974,-18.1856 3.9943,-5.9411 8.1262,-11.6983 12.6291,-17.11 5.7953,-7.117 12.6184,-14.4069 19.0071,-21.9029 9.3606,-10.7119 18.7423,-21.485 28.3147,-32.4588 9.7367,-11.5813 19.7117,-23.809 29.8404,-36.9229 8.2057,-10.5001 15.4208,-21.2955 22.9908,-32.8155 7.4906,-11.5032 14.7798,-23.614 21.0202,-36.1148 l 2.4315,-4.8376 c 2.4315,4.793 4.7306,9.6529 6.8973,14.5685 1.9229,4.9547 3.6976,9.9873 5.3609,15.02 3.1944,10.0653 6.2828,20.0526 7.8296,30.1793 2.0025,12.5844 3.1255,24.9906 3.1626,36.7669 -0.3549,9.4968 -1.2926,18.559 -2.8235,26.8966 z m -127.117,-8.4324 c -4.4286,4.8767 -8.8414,9.7087 -13.2488,14.5296 -11.2147,12.3671 -22.5035,24.6952 -33.9936,37.2963 -2.5427,2.8313 -5.3451,6.4483 -8.2269,10.2995 -3.7188,-10.6171 -4.8736,-21.3513 -6.2933,-32.4755 -0.7311,-6.805 -0.7681,-13.727 -0.3179,-20.8051 0.09,-16.6919 3.3639,-34.1307 7.978,-51.9819 4.2803,-14.0781 8.7672,-28.1785 15.1771,-41.1698 5.4722,-10.9738 10.6478,-22.0423 16.8934,-33.7796 6.2404,-11.7596 12.6291,-23.9261 18.8748,-36.5329 5.2497,-10.1823 10.6902,-20.7827 15.7333,-31.6116 4.8577,-10.7397 9.6042,-21.8082 14.0541,-33.2111 7.3793,-17.8735 13.1588,-36.0201 18.4085,-55.4263 6.5052,8.2206 12.6132,16.731 18.0536,25.4811 5.1756,8.9283 9.7738,18.0518 13.7733,27.153 4.6512,10.1489 7.5118,20.922 10.0916,31.0654 2.5375,10.1434 3.9042,20.192 4.1108,29.6888 0.4874,15.0033 -1.1019,28.0392 -5.4404,38.4166 l -1.6264,3.7007 c -13.3442,28.329 -31.4137,54.7351 -49.2978,78.0537 -11.792,14.8249 -23.3987,28.4516 -34.7034,41.3091 z m -320.8754,-400.7965 -2.262,-1.8281 c -5.5676,-4.0295 -10.9498,-9.9706 -15.94,-14.9419 -4.916,-5.2723 -9.7366,-11.481 -15.4949,-17.8958 -8.4441,-10.7119 -16.8193,-21.7414 -23.9762,-33.8744 -6.3887,-10.461 -12.7244,-20.9165 -19.1554,-31.4779 -6.8549,-10.617 -14.1442,-22.4324 -22.2015,-33.9524 -6.4841,-9.2795 -13.4184,-18.8766 -20.909,-28.2342 -7.4958,-9.0844 -15.5479,-18.1466 -24.1827,-27.0527 -13.2859,-13.3145 -28.2035,-26.8966 -44.5354,-38.2661 20.7606,-7.6242 42.6866,-11.1075 63.5002,-11.1242 11.7179,-0.3177 23.1921,1.5326 33.9194,3.3997 10.7484,2.2794 20.7288,5.8185 29.5649,9.6139 14.017,6.7269 25.0462,14.8862 32.0918,23.692 l 2.4633,3.3439 c 13.8103,20.231 24.633,41.8553 33.0612,63.7416 2.744,7.1338 5.2868,14.3122 7.5859,21.4683 5.8695,17.8344 9.6042,36.1371 12.8939,52.9071 1.1019,6.5486 2.2249,13.0359 3.2897,19.5287 2.8765,17.2215 4.9902,34.5432 7.6813,50.1149 0.6145,3.7341 1.5309,8.4547 2.6911,13.192 -9.7367,-3.9125 -19.0443,-7.6298 -27.4725,-13.348 -4.4286,-2.4969 -8.5553,-5.6848 -12.6131,-9.0064 z m 40.4617,-89.1669 c -3.6076,-14.7023 -7.2522,-31.1992 -12.9363,-46.8712 -9.0056,-25.7932 -20.501,-51.5305 -36.102,-76.2425 l -3.1042,-4.7428 c 11.1934,0.3177 22.016,2.0454 32.6321,4.4642 5.3451,1.2595 10.4253,2.2795 15.7121,4.1298 5.3663,1.8503 10.6002,3.8734 15.7175,6.0135 13.1005,5.094 23.6424,12.3671 33.9776,19.3114 7.8084,5.8966 14.5944,12.2668 20.554,18.5758 11.6809,12.9578 18.7847,26.3671 21.5288,38.0487 3.4009,16.5917 5.9278,32.7932 7.0085,49.2901 0.731,12.2278 1.0277,24.1824 1.1442,35.8417 -0.08,11.8544 -0.4132,23.5527 -0.8423,34.7996 -1.8117,36.2931 -5.7212,69.9557 -7.0667,101.1215 -0.2437,3.9682 -0.2066,8.8058 -0.074,13.8607 -9.0056,-6.5876 -17.5663,-13.5263 -25.0409,-21.981 -15.8499,-16.8313 -27.9386,-38.4389 -37.4157,-62.3092 -5.0061,-13.7604 -9.3606,-27.4094 -11.9987,-41.7215 -1.96,-8.9842 -3.6393,-18.5814 -5.3822,-28.6857 -2.4845,-13.5486 -5.1755,-27.7995 -8.3116,-42.9031 z m -221.4958,63.1731 c -4.63,1.5717 -9.3394,3.0263 -14.2395,4.3472 -20.109,4.8376 -42.5701,5.367 -67.1289,2.1011 -13.5297,-1.8671 -27.5413,-4.8934 -40.6419,-9.0845 -21.979,-7.0947 -45.828,-16.1402 -71.8754,-25.1243 -20.9301,-7.3344 -43.1316,-14.3512 -65.9105,-19.3281 -17.8629,-4.1465 -36.2715,-7.3902 -55.2415,-9.0622 12.9681,-16.7309 27.9386,-31.1267 43.8044,-42.4516 17.794,-12.7795 36.9972,-21.5296 54.5846,-25.5758 15.7333,-3.7396 30.0894,-3.4052 40.9279,-0.1003 29.1888,9.3185 56.8678,23.0622 81.7604,38.4166 38.1997,23.4969 69.7035,49.8028 97.5308,72.3356 2.8236,2.1067 6.3199,4.7372 10.1287,7.6298 -4.5028,2.0064 -9.0427,4.2468 -13.6991,5.8965 z m 29.3212,-138.2005 c 13.4555,14.1171 25.5283,28.9643 36.3509,43.6109 20.7606,28.8027 36.3297,57.9397 50.5162,83.1477 1.7747,3.3216 4.1108,7.1783 6.537,11.0685 -9.6201,0.4124 -19.1342,0.7078 -28.5372,-1.1202 -16.6657,-2.4188 -33.485,-8.3767 -51.1095,-17.1824 -2.993,-1.477 -5.9437,-2.8536 -9.0268,-4.5255 -11.5484,-6.6044 -23.4358,-13.7828 -34.4068,-22.0981 -27.0963,-20.2867 -58.2663,-45.4556 -95.8674,-67.8713 -23.51,-13.9555 -49.5415,-27.0304 -77.3318,-36.2542 16.6498,-13.3703 35.3179,-23.6697 54.0284,-30.7868 21.248,-7.6521 42.7926,-11.4085 61.6673,-10.0486 16.7293,0.6855 31.0641,5.6792 40.7054,11.9937 13.6038,9.6752 26.1057,19.5009 37.7865,31.0822 2.9931,2.9092 5.8696,5.9578 8.6878,8.9841 z m 420.1121,191.9548 c 2.3149,-14.6299 3.9783,-29.5105 4.6352,-44.5695 8.2428,6.4482 15.8287,13.504 22.6465,21.0335 6.8601,7.4905 13.5137,15.0813 18.8959,23.3019 12.6343,18.0853 21.3804,37.692 25.9944,55.6603 3.9466,16.1625 4.2221,30.9874 1.6264,42.3513 -3.8142,15.9061 -9.1169,31.712 -14.5574,46.7709 -8.5977,22.3767 -18.5409,43.7503 -28.2935,63.8809 -8.354,16.2238 -16.2207,31.3776 -24.241,46.1077 -8.2746,14.786 -15.3413,28.7247 -22.5193,42.5464 -1.8118,3.5001 -3.7559,7.8249 -5.6206,12.3839 -2.9189,-4.8154 -5.3663,-9.7867 -7.5912,-14.9197 -2.4633,-5.0717 -4.577,-10.305 -6.3516,-15.7278 -7.178,-22.4157 -10.6319,-47.2669 -9.1752,-74.2026 0.2066,-14.5518 2.7441,-30.0845 5.6789,-44.0623 3.8512,-17.4611 9.3658,-36.1984 14.5573,-55.7216 5.6259,-19.7573 11.1405,-40.384 16.1306,-62.3817 3.3268,-13.9053 5.8643,-27.8831 8.1846,-42.4516 z"
         style="fill:#004f65;fill-rule:evenodd"
         id="path31-7" />
      <path
         d="m 2517.1555,1241.2984 c 549.9306,76.4405 929.8686,557.8019 848.6137,1075.1489 -81.2549,517.347 -592.9335,874.7735 -1142.8641,798.333 -549.9306,-76.4405 -929.8686,-557.8019 -848.6137,-1075.1489 81.2549,-517.347 592.9335,-874.7735 1142.8641,-798.333 z m -1487.3829,488.2151 c 25.4312,15.1399 24.5222,46.1852 41.6054,45.3331 16.9836,-0.7555 19.5086,-7.0085 19.5086,-7.0085 8.5076,23.2021 31.1039,12.931 31.1039,12.931 l -4.6857,11.1436 68.5617,25.398 c -82.8836,240.4018 -83.84,506.7872 13.8031,759.6146 l -67.5078,27.5863 4.9999,10.9355 c 0,0 -22.7685,-9.5077 -30.5505,13.8762 0,0 -2.7296,-6.0046 -19.7482,-6.3113 -16.9946,-0.2951 -14.9668,30.6849 -39.9035,46.6741 -24.9641,15.9536 -252.02,59.5951 -327.9125,95.0266 -75.9916,35.3618 -62.3464,94.8434 -54.9828,110.6994 7.3012,15.8232 44.2148,65.8222 123.5328,37.7391 79.3218,-28.0514 268.1371,-154.4669 297.6043,-160.6985 29.4085,-6.2314 52.117,16.2618 63.4491,4.3932 11.4213,-11.8479 8.593,-17.9766 8.593,-17.9766 23.4384,10.6893 31.6765,-11.4316 31.6765,-11.4316 l 5.0622,10.9131 67.5344,-27.597 c 129.839,239.614 337.4685,420.721 580.7949,527.7769 l -27.0086,64.5387 11.8141,4.2849 c 0,0 -23.2344,8.5184 -11.2217,30.1723 0,0 -6.5353,-2.4394 -18.6638,8.6794 -12.3265,11.2017 12.4839,31.7943 6.7523,59.6361 -5.5839,27.8631 -133.3289,209.7495 -160.4252,285.3046 -27.1566,75.5142 27.3106,108.4736 44.3284,114.8153 17.046,6.3774 80.7294,17.1778 115.66,-55.4496 35.0706,-72.6072 73.539,-287.5822 89.7372,-311.5791 16.102,-23.9784 49.0487,-23.1542 48.2784,-39.1821 -0.9179,-15.9933 -7.4864,-18.4372 -7.4864,-18.4372 24.4751,-7.9821 13.6917,-29.1339 13.6917,-29.1339 l 11.8308,4.3425 27.0689,-64.4569 c 255.5399,77.9405 538.6699,78.8349 807.3463,-12.9991 l 29.325,63.5059 11.7025,-4.7723 c 0,0 -10.0944,21.5006 14.7463,28.7088 0,0 -6.436,2.584 -6.7717,18.6556 -0.3264,16.0177 32.6829,14.1451 49.6254,37.5726 16.9803,23.4018 63.428,237.0118 100.9828,308.5037 37.5975,71.4344 100.7979,58.5628 117.7082,51.706 16.8254,-6.8996 69.9647,-41.6272 40.1832,-116.2676 -29.9373,-74.606 -164.3118,-252.2577 -170.8538,-279.9123 -6.6636,-27.6792 17.2907,-49.0594 4.6795,-59.7512 -12.718,-10.7543 -19.1712,-8.1167 -19.1712,-8.1167 11.3547,-21.9948 -12.135,-29.7414 -12.135,-29.7414 l 11.5717,-4.7428 -29.428,-63.7198 2.4359,-1.1757 c 248.0954,-119.5643 436.8319,-308.5866 551.1171,-530.4741 2.5079,-4.8598 4.9797,-9.7344 7.4153,-14.6247 l 68.717,25.5142 4.6733,-11.1211 c 0,0 9.0468,21.9042 31.9911,10.4819 0,0 -2.5604,6.161 9.2708,17.652 11.8216,11.5524 33.7637,-11.7489 63.4091,-6.4603 29.5557,5.2761 222.9108,125.5319 303.1833,150.9066 80.3062,25.5851 115.4448,-25.6172 122.1987,-41.6566 6.5989,-16.0611 18.1127,-75.9673 -59.0645,-108.8249 -77.247,-32.946 -305.6912,-69.2048 -331.2655,-84.3964 -25.3821,-15.0787 -24.5832,-46.1702 -41.5471,-45.325 -17.079,0.7741 -19.7048,6.9729 -19.7048,6.9729 -8.4141,-23.1021 -30.904,-12.9191 -30.904,-12.9191 l 4.7322,-11.066 -68.779,-25.4887 c 0.4976,-1.4481 0.9928,-2.8966 1.4842,-4.3463 80.1692,-235.9784 81.6106,-496.6524 -11.569,-744.8445 -1.2717,-3.4057 -2.5555,-6.8108 -3.8528,-10.2125 l 67.7965,-27.6839 -5.0574,-10.9435 c 0,0 22.8381,9.4387 30.5016,-13.9382 0,0 2.8331,6.0983 19.8302,6.3779 17.0262,0.2526 15.0607,-30.7505 39.8741,-46.7016 24.9318,-15.9581 252.086,-59.6419 327.9754,-95.049 75.9287,-35.3395 62.3214,-94.8476 54.9529,-110.6725 -7.2719,-15.8508 -44.2723,-65.8301 -123.512,-37.7128 -79.3095,28.029 -268.1901,154.4362 -297.5986,160.6676 -29.407,6.2165 -52.0511,-16.3078 -63.5396,-4.4057 -11.3945,11.8917 -8.611,17.9271 -8.611,17.9271 -23.3234,-10.674 -31.6315,11.5241 -31.6315,11.5241 l -5.0036,-10.9125 -67.824,27.6952 c -1.6004,-2.9258 -3.2081,-5.8457 -4.8239,-8.76 -129.1344,-233.6005 -332.6032,-410.7806 -570.7954,-516.812 -1.6532,-0.7358 -3.3072,-1.4672 -4.964,-2.196 l 27.1469,-64.6608 -11.8582,-4.3781 c 0,0 23.3366,-8.4172 11.0898,-30.0801 0,0 6.5964,2.4243 18.8569,-8.7313 12.2227,-11.1299 -12.5003,-31.7413 -6.8919,-59.5458 5.6245,-27.912 133.3366,-209.8037 160.4292,-285.3351 27.1322,-75.5176 -27.2117,-108.515 -44.2948,-114.8658 -17.0178,-6.3418 -80.7679,-17.0962 -115.723,55.4718 -35.0125,72.616 -73.5439,287.6133 -89.5837,311.5694 -16.132,24.006 -49.141,23.2042 -48.2805,39.1902 0.8785,16.0347 7.368,18.4434 7.368,18.4434 -24.4788,8.0058 -13.633,29.1344 -13.633,29.1344 l -11.9126,-4.3538 -27.0286,64.6758 c -5.2262,-1.591 -10.4647,-3.1504 -15.7139,-4.6765 -250.6212,-73.0294 -526.5866,-72.3122 -788.987,16.7991 l -2.5306,0.8622 -29.4607,-63.6752 -11.5668,4.7109 c 0,0 10.0168,-21.4312 -14.8274,-28.6165 0,0 6.456,-2.6606 6.7745,-18.6794 0.3058,-16.0447 -32.621,-14.1599 -49.6209,-37.5954 -17.0378,-23.4098 -63.4155,-237.097 -100.9836,-308.5038 -37.6548,-71.4431 -100.8956,-58.5295 -117.6835,-51.6481 -16.784,6.8509 -70.0497,41.5844 -40.203,116.1786 29.9458,74.552 164.2532,252.2571 170.8613,279.921 6.6618,27.6395 -17.3849,49.0705 -4.6955,59.7966 12.6981,10.7273 19.1749,8.093 19.1749,8.093 -11.3548,21.9955 12.1972,29.719 12.1972,29.719 l -11.695,4.7809 29.4387,63.7796 c -5.6844,2.7595 -11.3453,5.5487 -16.9864,8.365 -29.9028,14.8254 -59.0261,30.564 -87.1846,47.4706 -203.3815,121.931 -359.1649,293.7027 -456.9045,490.2461 l -68.5586,-25.3968 -4.6742,11.1217 c 0,0 -9.1078,-21.8892 -32.0437,-10.5209 0,0 2.6169,-6.0904 -9.2133,-17.644 -11.8875,-11.5064 -33.7601,11.7259 -63.4104,6.4684 -29.5415,-5.3611 -222.9758,-125.4865 -303.2876,-150.9847 -80.1358,-25.4978 -115.33,25.6332 -122.0845,41.7278 -6.6642,16.052 -18.1828,75.9886 59.0523,108.8466 77.1968,32.8921 305.7558,69.1668 331.2152,84.3425 z"
         style="fill:#f8b51c;fill-rule:evenodd"
         id="path33-5" />
      <path
         d="m 2370.0258,3889.5772 c -133.1153,3.7304 -218.6486,-202.7623 -394.2477,-266.9752 -313.8125,-148.6752 -561.3505,-89.5247 -965.2282,-473.2026 l -23.7907,137.4848 -224.3135,-487.5908 487.7118,286.1596 -143.5947,1.5988 c 576.7982,388.2258 1095.0747,448.1387 1144.5088,140.682 l -37.3841,-1638.6226 c -5.7602,-69.8527 -36.156,-100.6711 -84.9665,-102.3136 l -698.4309,9.5919 2.5491,-165.0612 690.7835,-1.1994 c 163.9871,-10.9242 142.7449,-316.0013 20.3921,-322.9287 -146.7334,5.4573 -139.4642,-155.9973 -0.8494,-151.0733 l 59.0534,1.1985 v -15.8707 c -90.2623,-52.8203 -150.3613,-146.9625 -150.3613,-254.3243 0,-165.3078 142.4491,-299.3168 318.1683,-299.3168 175.7192,0 318.1684,134.009 318.1684,299.3168 0,107.3618 -60.099,201.504 -150.3613,254.3243 v 15.8707 l 59.0534,-1.1985 c 138.6148,-4.924 145.884,156.5306 -0.8494,151.0733 -122.3529,6.9274 -143.595,312.0045 20.3921,322.9287 l 690.7834,1.1994 2.5492,165.0612 -698.431,-9.5919 c -48.8104,1.6425 -79.2062,32.4609 -84.9664,102.3136 l -37.3841,1638.6226 c 49.434,307.4567 567.7106,247.5438 1144.5087,-140.682 l -143.5946,-1.5988 487.7118,-286.1596 -224.3135,487.5908 -23.7907,-137.4848 c -403.8777,383.6779 -651.4157,324.5274 -965.2282,473.2026 -175.5991,64.2129 -261.1324,270.7056 -394.2478,266.9752 z m 0,-3501.1862 c 114.4998,0 207.32,87.3205 207.32,195.0361 0,107.7156 -92.8202,195.0362 -207.32,195.0362 -114.4997,0 -207.3199,-87.3206 -207.3199,-195.0362 0,-107.7156 92.8202,-195.0361 207.3199,-195.0361 z"
         style="fill:#004f65;fill-rule:evenodd"
         id="path35-3" />
      <path
         d="m 2516.4887,1241.298 c 64.7638,9.0022 127.133,23.6859 186.7057,43.3175 V 1050.195 c -213.1109,-55.9722 -442.99,-59.0707 -666.3371,-0.5331 v 234.4948 c 149.0231,-49.1937 312.5474,-66.0834 479.6314,-42.8587 z"
         style="fill:#f8b51c;fill-rule:evenodd"
         id="path37-5" />
      <g
         id="Layer1003-6">
        <path
           d="m 1331.5714,2328.8314 -0.2173,-0.5549 -0.05,-0.1227 v 0.041 c -3.527,-7.337 -12.5493,-19.353 -25.2787,-30.8317 -12.7667,-11.4377 -29.3708,-22.4607 -48.8001,-26.8302 -30.5195,-6.6535 -50.4953,-26.4388 -62.2126,-45.1901 -11.8104,-18.7339 -15.5361,-36.0015 -15.7099,-37.0121 0.043,0 -4.7503,12.5886 -6.3958,32.8879 -1.6206,20.1942 0.1987,48.1811 13.1455,77.0909 2.67,6.3088 9.5501,19.8904 22.739,32.2745 13.0771,12.3666 32.4382,23.4713 59.2506,25.5334 30.3394,2.4301 49.3963,13.7452 61.6413,25.6152 12.0712,11.87 17.3492,24.5228 19.0196,29.9846 0.043,0 0.4781,-10.5732 -1.4717,-26.1292 -1.8193,-15.521 -6.0231,-36.0014 -15.6602,-56.7565 z"
           style="fill:#004f65;fill-rule:evenodd"
           id="path39-2" />
        <path
           d="m 1326.728,2197.7647 -0.2173,-0.5549 v -0.082 h -0.068 c -3.024,-7.5005 -11.0839,-20.0716 -23.0433,-32.333 -11.916,-12.1971 -27.6445,-24.1723 -46.7448,-29.675 -29.9917,-8.6163 -48.5455,-29.5933 -58.9712,-49.0281 -10.494,-19.4114 -12.9467,-36.8835 -13.102,-37.9174 0.068,0 -5.6257,12.2847 -8.6746,32.4205 -2.9992,20.0716 -3.2165,48.1577 7.7122,77.7685 2.2602,6.4958 8.153,20.3812 20.4601,33.5947 12.183,13.1844 30.7368,25.4458 57.3071,29.1552 30.1655,4.2701 48.4089,16.7769 59.735,29.3479 11.2826,12.6353 15.6602,25.5509 16.8649,31.1179 0,0 1.2294,-10.5089 0.416,-26.1526 -0.8072,-15.6203 -3.4773,-36.311 -11.6738,-57.6619 z"
           style="fill:#004f65;fill-rule:evenodd"
           id="path41-9" />
        <path
           d="m 1372.0074,2475.5185 -0.3291,-0.4966 -0.062,-0.1226 h 0.043 c -4.6695,-6.7003 -15.5112,-17.291 -29.9916,-26.8127 -14.4557,-9.4984 -32.5935,-18.0095 -52.4637,-19.5108 -31.2584,-2.2899 -54.1713,-19.0668 -68.7822,-35.9021 -14.6792,-16.8996 -21.1184,-33.4837 -21.4661,-34.4359 0.043,-0.041 -2.7197,13.1493 -0.9873,33.4487 1.5337,20.2175 7.8177,47.7079 25.2539,74.4329 3.707,5.8766 12.6176,18.3191 27.6693,28.6469 14.9834,10.4272 35.9279,18.5878 62.7404,16.7945 30.358,-1.9569 51.0355,6.5133 64.9881,16.5082 13.9589,10.0533 21.2302,21.7597 23.7264,26.912 0,0 -1.2295,-10.4681 -5.6755,-25.5509 -4.3776,-15.1472 -11.7172,-34.728 -24.6639,-53.9116 z"
           style="fill:#004f65;fill-rule:evenodd"
           id="path43-1" />
        <path
           d="m 1423.1981,2603.2672 -0.4781,-0.4148 v -0.082 c -5.7624,-5.9759 -18.0757,-14.9018 -33.9098,-22.2563 -15.859,-7.3136 -35.2015,-13.126 -55.1152,-11.8116 -31.1963,2.2256 -56.6054,-11.0639 -73.7559,-25.7379 -17.194,-14.4636 -26.2412,-30.043 -26.769,-30.9076 0.068,0 -0.5278,13.4122 4.3591,33.215 4.8433,19.7678 15.4863,46.0372 37.089,69.9876 h -0.043 c 4.5764,5.2749 15.4864,16.257 32.0035,24.4001 16.4923,8.0964 38.5297,13.1844 64.7088,7.5823 29.6812,-6.2271 51.495,-0.7827 66.9193,7.0449 15.3994,7.9153 24.4032,18.4652 27.7314,23.2903 0,0 -2.937,-10.2227 -9.6619,-24.5228 -6.7683,-14.2826 -17.2126,-32.7068 -33.0778,-49.7875 z"
           style="fill:#004f65;fill-rule:evenodd"
           id="path45-2" />
        <path
           d="m 1502.3004,2732.7216 -0.4781,-0.3913 -0.1118,-0.064 c -6.551,-5.088 -20.2428,-12.1562 -37.0208,-17.1625 -16.8462,-4.9886 -36.909,-8.0204 -56.3818,-3.8554 -30.4947,6.636 -57.7045,-2.8623 -77.047,-14.855 -19.3859,-11.9109 -30.7989,-25.9482 -31.4323,-26.7952 0,0 1.5772,13.3363 9.662,32.2103 8.035,18.8799 22.7142,43.2975 47.9308,63.8422 h -0.043 c 5.3401,4.5798 17.8956,13.8912 35.487,19.5984 17.5852,5.6488 40.169,7.5882 65.2118,-1.6882 28.3896,-10.3629 50.7995,-8.0964 67.2732,-2.5352 16.4489,5.6487 27.1167,14.82 31.1466,19.1018 0,0 -4.4708,-9.7028 -13.4745,-22.893 -8.954,-13.1902 -22.3416,-29.9029 -40.7216,-44.5126 z"
           style="fill:#004f65;fill-rule:evenodd"
           id="path47-7" />
        <path
           d="m 1601.2916,2849.5058 -0.5465,-0.2862 -0.087,-0.064 c -7.3396,-4.0832 -21.9691,-9.1479 -39.43,-11.7649 -17.4362,-2.5177 -37.679,-2.6579 -56.3198,4.1592 -29.0913,10.9237 -57.481,5.3567 -78.5062,-3.7094 -21.0749,-9.0894 -34.568,-21.3274 -35.338,-22.046 0,0 3.6574,12.9391 14.6543,30.4579 10.9349,17.472 29.3583,39.5647 57.5058,56.3183 6.0853,3.7736 19.864,11.2333 38.2689,14.3001 18.2868,3.1778 40.8768,1.8167 64.2058,-10.8186 26.3529,-14.2825 48.8932,-15.2055 66.0872,-11.9926 17.2375,3.2771 29.1783,10.8185 33.8664,14.4695 0,0 -6.0046,-8.9668 -17.0201,-20.7142 -10.9535,-11.7882 -26.7938,-26.3745 -47.3409,-38.3088 z"
           style="fill:#004f65;fill-rule:evenodd"
           id="path49-0" />
        <path
           d="m 1717.7686,2951.061 -0.5713,-0.2453 -0.087,-0.023 v 0.023 c -7.886,-3.0727 -23.1986,-5.9817 -40.8334,-6.1044 -17.6784,-0.041 -37.7908,2.6579 -55.0282,12.0978 -27.0298,14.8375 -56.0528,13.3772 -78.2702,7.337 -22.2547,-5.9584 -37.5859,-16.1343 -38.3993,-16.7536 0,-0.023 5.694,12.2615 19.3424,28.0453 13.5615,15.7254 35.3381,34.9324 65.8265,47.5619 v -0.041 c 6.5944,2.9091 21.4909,8.2833 40.1131,8.7798 18.5973,0.5374 40.7402,-3.9547 61.7034,-19.7853 23.8132,-17.8634 45.9624,-21.9642 63.4606,-21.1814 17.5231,0.8236 30.5816,6.636 35.7727,9.5392 0,0 -7.3831,-8.0555 -20.0441,-18.0737 -12.7667,-10.1351 -30.7306,-22.3381 -52.9853,-31.1764 z"
           style="fill:#004f65;fill-rule:evenodd"
           id="path51-9" />
        <path
           d="m 1849.111,3034.9515 -0.6147,-0.1227 -0.1056,-0.058 c -8.2834,-1.8576 -23.8567,-2.5995 -41.3364,-0.187 -17.4609,2.4535 -36.8469,7.9153 -52.4202,19.7211 -24.3411,18.4651 -53.2523,21.1464 -76.2087,18.3015 -22.9377,-2.7864 -39.7405,-10.6549 -40.7029,-11.1281 0,-0.041 7.6686,11.2917 23.6331,24.9551 15.9521,13.6809 40.5478,29.6108 72.7066,37.7305 6.9918,1.9394 22.5651,5.1347 41.0321,3.0318 18.4855,-2.1439 39.6722,-9.7262 57.8721,-28.314 20.6775,-21.0003 41.9263,-28.2322 59.3624,-29.9671 17.3741,-1.6707 31.2398,2.1438 36.8469,4.3286 0,0 -8.5628,-6.8814 -22.7142,-15.0011 -14.2382,-8.1606 -33.9098,-17.7057 -57.3505,-23.2902 z"
           style="fill:#004f65;fill-rule:evenodd"
           id="path53-3" />
        <path
           d="m 1992.3756,3099.2084 -0.6396,-0.041 -0.1304,-0.041 v 0.041 c -8.4511,-0.7185 -23.9188,0.8062 -40.8334,5.6255 -16.84,4.9069 -35.1579,13.1084 -48.6697,26.9528 -21.1432,21.7423 -49.2658,28.46 -72.4457,28.9566 -23.0868,0.514 -40.9638,-4.9244 -41.9697,-5.2983 0,0 9.3079,10.1409 27.3588,21.3742 17.964,11.2275 44.8199,23.5297 77.9846,27.0171 l -0.043,-0.047 c 7.2092,0.9522 23.1551,1.8751 41.0756,-2.8623 17.9391,-4.7375 37.679,-15.2465 52.6189,-36.2059 17.0636,-23.7225 36.8842,-33.8576 53.8422,-38.0635 16.9767,-4.1826 31.2584,-2.3308 37.1077,-0.9873 0,-0.064 -9.5501,-5.5669 -24.8626,-11.6246 -15.3809,-6.0168 -36.3874,-12.6119 -60.3932,-14.7967 z"
           style="fill:#004f65;fill-rule:evenodd"
           id="path55-6" />
        <path
           d="m 2144.29,3142.2373 -0.6334,0.064 h -0.043 c -8.569,0.5141 -23.6394,4.2234 -39.5418,11.4378 -15.8838,7.2318 -32.6431,18.0094 -43.7705,33.5888 -17.3492,24.5404 -44.0747,35.1778 -66.9193,38.9281 -22.739,3.832 -41.2929,0.9697 -42.3236,0.8003 0,-0.018 10.91,8.6571 30.4511,17.2092 19.5598,8.5345 48.1916,16.8178 81.4681,15.5385 7.2278,-0.1227 23.1302,-1.4429 40.0634,-8.6981 17.0015,-7.2318 34.7668,-20.4396 46.1984,-43.315 13.015,-25.9073 30.9541,-38.7821 47.0739,-45.3363 16.1011,-6.5542 30.5195,-6.7586 36.5426,-6.3088 0,0 -10.3387,-4.0774 -26.4833,-7.892 -16.126,-3.7678 -37.946,-7.2318 -62.0821,-6.0167 z"
           style="fill:#004f65;fill-rule:evenodd"
           id="path57-0" />
        <path
           d="m 2301.4824,3163.0916 -0.6334,0.1635 h -0.068 c -8.3455,1.735 -22.7142,7.5239 -37.2381,16.923 -14.586,9.4341 -29.377,22.4607 -37.8529,39.4421 -13.2323,26.7251 -37.8963,41.0894 -59.8653,48.035 -21.907,7.0683 -40.6782,6.8813 -41.7773,6.8813 0,-0.041 12.183,6.9865 32.9226,12.6119 20.7271,5.6488 50.2966,9.7262 82.9832,3.7912 7.2029,-1.215 22.6272,-4.7375 38.2005,-14.3585 15.6417,-9.5626 31.1094,-25.142 38.6849,-49.3786 8.7616,-27.426 24.4901,-42.6958 39.3866,-51.4173 14.8717,-8.7798 29.1162,-11.0054 35.1828,-11.3968 0,0 -10.91,-2.6345 -27.4955,-4.0599 -16.604,-1.4837 -38.7904,-1.8926 -62.4298,2.7631 z"
           style="fill:#004f65;fill-rule:evenodd"
           id="path59-6" />
        <path
           d="m 2460.4072,3161.6487 -0.6334,0.2278 -0.087,0.064 c -7.9295,2.9032 -21.2301,10.6082 -34.1272,21.9058 -12.9281,11.3735 -25.5022,26.3161 -31.2646,44.3256 -8.7615,28.2497 -30.9045,45.8912 -51.4764,55.927 -20.5036,10.0357 -39.0761,12.5301 -40.1503,12.6761 0,-0.064 13.1206,5.1698 34.4997,7.8101 21.404,2.6988 51.2156,2.5762 82.5858,-7.9561 6.8739,-2.1614 21.6399,-7.8277 35.5305,-19.5166 13.9092,-11.6422 26.7255,-29.2194 30.4263,-54.2388 4.3156,-28.3315 17.4362,-45.6224 30.7555,-56.3826 13.2758,-10.7133 27.0297,-14.9602 32.9039,-16.1986 0,0 -11.177,-1.0047 -27.7811,-0.1635 -16.6227,0.8879 -38.5732,3.6276 -61.1818,11.5195 z"
           style="fill:#004f65;fill-rule:evenodd"
           id="path61-2" />
        <path
           d="m 2617.0532,3137.8269 -0.5651,0.3096 -0.087,0.041 c -7.3831,4.0423 -19.2121,13.5582 -30.1656,26.544 -10.91,13.0208 -21.0066,29.6341 -23.7698,48.2219 -4.1851,29.2019 -23.2854,49.7641 -42.0566,62.5454 -18.7091,12.793 -36.6917,17.8868 -37.7225,18.1964 0,-0.082 13.754,3.2771 35.4436,2.9033 21.5096,-0.4323 51.0418,-4.6791 80.4125,-19.5166 6.4206,-3.1311 20.1559,-10.8595 31.9601,-24.3593 11.9656,-13.4764 21.7765,-32.6834 21.4723,-57.989 -0.3105,-28.5826 9.8792,-47.5385 21.2674,-60.0919 11.4129,-12.4893 24.3348,-18.5878 29.9482,-20.6499 0,0 -11.2392,0.5374 -27.4955,3.7736 -16.275,3.2538 -37.5672,9.0895 -58.6421,20.0716 z"
           style="fill:#004f65;fill-rule:evenodd"
           id="path63-6" />
        <path
           d="m 2768.0734,3091.9941 -0.5465,0.333 -0.087,0.1227 h 0.043 c -6.6628,4.9653 -16.8897,16.0934 -25.5892,30.522 -8.6932,14.4462 -15.9707,32.2512 -15.7285,51.0201 0.6147,29.4706 -14.9586,52.5096 -31.4572,67.8203 -16.4736,15.3341 -33.4068,22.8989 -34.3879,23.3487 0,0 14.1513,1.2968 35.5305,-2.2023 21.2239,-3.4231 49.7005,-11.9343 76.3391,-30.7674 5.9362,-4.0015 18.2495,-13.5816 27.7128,-28.6236 9.5936,-15.0069 16.2501,-35.3822 11.8041,-60.3022 -4.8806,-28.2906 2.0802,-48.444 11.3075,-62.4987 9.2831,-13.973 21.0686,-21.8474 26.2846,-24.7331 0,0 -10.997,2.1263 -26.5268,7.6875 -15.5795,5.567 -35.6858,14.3468 -54.6991,28.273 z"
           style="fill:#004f65;fill-rule:evenodd"
           id="path65-1" />
        <path
           d="m 2909.9533,3025.0617 -0.4782,0.4557 -0.087,0.041 h 0.044 c -5.8059,5.8941 -14.0458,18.3599 -20.3981,33.8575 -6.2405,15.5385 -10.5374,34.1439 -7.3147,52.6908 5.3215,29.0208 -6.3088,54.0343 -20.1559,71.5297 -13.7788,17.4954 -29.3087,27.4085 -30.1594,27.9868 -0.087,0 14.17,-0.7185 34.6736,-7.2318 20.485,-6.4491 47.2726,-18.8565 70.5146,-41.3406 5.1477,-4.7609 15.7534,-15.9883 22.7577,-32.2278 7.0788,-16.222 10.3884,-37.3041 1.9932,-61.307 -9.4135,-27.2684 -5.7375,-48.1636 1.2047,-63.3691 6.8614,-15.1062 17.2436,-24.5871 21.9318,-28.1329 0,-0.041 -10.5375,3.6685 -24.9745,11.3794 -14.5425,7.6641 -33.0094,19.2245 -49.5514,35.6684 z"
           style="fill:#004f65;fill-rule:evenodd"
           id="path67-8" />
        <path
           d="m 3039.5074,2938.7179 -0.354,0.5549 -0.062,0.041 v -0.041 c -4.8433,6.6769 -10.9969,20.1533 -14.766,36.3928 -3.6574,16.257 -4.9738,35.2596 1.2232,53.1698 9.9227,27.8992 2.4093,54.2796 -8.4511,73.5275 -10.7796,19.2479 -24.5335,31.2406 -25.347,31.9415 0,0 13.9092,-2.7221 33.1648,-12.0569 19.1437,-9.253 43.6338,-25.3465 63.0694,-50.8156 h -0.05 c 4.3404,-5.4852 13.0585,-18.138 17.3989,-35.1194 4.3342,-17.0222 4.2473,-38.3672 -7.9108,-60.8747 -13.6236,-25.6561 -13.3814,-46.8609 -8.9168,-62.8316 4.3839,-15.9708 13.102,-26.7894 17.2437,-30.931 0,-0.082 -9.8793,5.1289 -22.9129,14.7732 -13.1889,9.6269 -29.5757,23.6817 -43.3296,42.2695 z"
           style="fill:#004f65;fill-rule:evenodd"
           id="path69-7" />
        <path
           d="m 3153.8297,2835.083 -0.2422,0.5316 -0.087,0.1052 v -0.041 c -3.6574,7.2727 -7.6439,21.491 -8.7367,38.0226 -1.0743,16.5666 0.6768,35.6275 9.6371,52.3636 14.2817,26.2519 11.1025,53.3917 3.4152,73.9189 -7.6253,20.6089 -19.2556,34.3716 -19.9759,35.2186 -0.043,-0.082 13.3628,-4.7199 30.8859,-16.6308 17.461,-11.8934 39.014,-31.264 54.1961,-59.1632 3.3904,-6.0226 9.9414,-19.6802 11.5434,-37.1581 1.6393,-17.4311 -1.9063,-38.4957 -17.4796,-59.1222 -17.6163,-23.3312 -20.6589,-44.3899 -18.883,-60.7754 1.7945,-16.4031 8.6933,-28.3549 12.1333,-33.0924 0,0 -8.9168,6.49 -20.3298,17.8868 -11.4564,11.4144 -25.4091,27.5721 -36.0769,47.9357 z"
           style="fill:#004f65;fill-rule:evenodd"
           id="path71-9" />
        <path
           d="m 3250.3433,2716.4646 -0.1739,0.5959 -0.044,0.082 c -2.4527,7.6875 -4.1168,22.2563 -2.5831,38.7821 1.5958,16.5491 6.3274,35.096 17.9391,50.43 18.2496,23.8802 19.4108,51.1895 15.0704,72.5987 -4.2038,21.4151 -13.5366,36.6615 -14.0644,37.567 -0.044,0 12.4003,-6.5075 27.8245,-20.7725 15.3995,-14.1541 33.6863,-36.3695 44.1617,-66.1088 2.3844,-6.4257 6.7248,-20.8718 5.5202,-38.414 -1.186,-17.4312 -8.0412,-37.7714 -26.769,-55.9269 -21.0997,-20.6674 -27.4706,-40.9901 -28.3461,-57.4341 -0.8135,-16.4673 4.092,-29.2428 6.6565,-34.4125 0,0 -7.7556,7.6232 -17.194,20.5447 -9.4632,12.8806 -20.7458,30.8725 -27.9984,52.4687 z"
           style="fill:#004f65;fill-rule:evenodd"
           id="path73-2" />
        <path
           d="m 3326.7755,2585.5615 -0.1304,0.5783 v 0.146 -0.023 c -1.2295,7.9152 -0.503,22.6067 3.676,38.7411 4.21,16.0993 11.9408,33.7758 25.7879,47.2581 21.8821,21.0354 27.4458,47.9123 26.5454,69.6312 -0.7638,21.8006 -7.5569,38.2446 -7.973,39.1967 0,0 11.2826,-8.184 24.248,-24.5228 12.9281,-16.1986 27.452,-40.7039 33.1212,-71.6524 h -0.043 c 1.3598,-6.7002 3.3531,-21.6195 -0.6769,-38.6827 -3.9864,-17.1274 -14.0396,-36.2701 -35.4001,-51.5165 -24.2045,-17.4137 -33.8229,-36.6031 -37.3499,-52.7784 -3.4586,-16.1577 -0.6582,-29.4706 1.0556,-34.9091 0,0 -6.4205,8.6339 -13.6732,22.6886 -7.3396,14.0957 -15.5298,33.4662 -19.1872,55.8452 z"
           style="fill:#004f65;fill-rule:evenodd"
           id="path75-0" />
        <path
           d="m 3381.1207,2445.3878 v 0.701 -0.041 c 0.087,8.0379 3.1978,22.4198 9.904,37.7772 6.7683,15.3107 17.2375,31.6904 33.0964,43.0464 25.0862,17.659 34.8289,43.4026 37.5052,65.0397 2.757,21.6137 -1.3351,38.8463 -1.5586,39.851 -0.062,0 9.7923,-9.6852 20.0006,-27.6714 10.1463,-17.8283 20.6154,-44.1854 21.2053,-75.5486 0.2608,-6.8405 -0.2608,-21.8649 -6.967,-38.1862 -6.7,-16.3447 -19.715,-33.8401 -43.3482,-45.8737 -26.682,-13.7042 -39.3431,-31.3223 -45.3476,-46.8024 -6.0667,-15.4509 -5.4768,-29.0325 -4.6199,-34.6579 0,0 -4.9738,9.4984 -9.8792,24.4001 -4.9303,14.9602 -9.9476,35.3005 -9.991,57.9657 z"
           style="fill:#004f65;fill-rule:evenodd"
           id="path77-2" />
        <path
           d="m 3412.317,2298.9695 0.087,0.6017 v 0.099 c 1.3599,7.9386 6.6814,21.7422 15.8403,35.9021 9.1962,14.1949 22.1429,28.9098 39.7095,37.8357 27.5824,13.8853 41.4233,37.9583 47.5396,58.9353 6.2405,20.9361 4.9676,38.6009 4.8372,39.6115 -0.044,0 8.153,-11.0055 15.356,-30.1949 7.2091,-19.1019 13.2137,-46.6331 8.6994,-77.751 -0.8755,-6.7586 -3.6822,-21.5319 -13.015,-36.679 -9.2211,-15.1705 -24.9248,-30.6857 -50.2035,-39.1968 -28.6132,-9.7086 -43.9257,-25.3465 -52.3767,-39.816 -8.4139,-14.4227 -9.9911,-27.9634 -10.1028,-33.6297 0,0 -3.3904,10.0766 -5.8493,25.5509 -2.4714,15.4976 -4.1355,36.2935 -0.5216,58.7309 z"
           style="fill:#004f65;fill-rule:evenodd"
           id="path79-3" />
        <path
           d="m 3419.7,2149.6888 0.1304,0.555 0.062,0.146 v -0.058 c 2.6514,7.6641 10.1028,20.5856 21.404,33.361 11.326,12.7171 26.4833,25.4283 45.2545,31.7956 29.5322,9.8547 47.0118,31.6319 56.475,51.4815 9.5067,19.8437 11.0839,37.4852 11.1274,38.4549 0,0 6.2902,-12.0394 10.3201,-32.0058 4.0486,-19.8847 5.5823,-47.9358 -3.8374,-78.0022 -1.9063,-6.5717 -7.1161,-20.7316 -18.7464,-34.4125 -11.4999,-13.7276 -29.4204,-26.7484 -55.8168,-31.6553 -29.8364,-5.6839 -47.4465,-18.9559 -58.0957,-32.0643 -10.643,-13.1084 -14.3252,-26.2519 -15.269,-31.9007 0,0 -1.7697,10.4681 -1.8132,26.1293 0,15.6845 1.6828,36.4337 8.805,58.1759 z"
           style="fill:#004f65;fill-rule:evenodd"
           id="path81-7" />
        <path
           d="m 3403.3133,2001.0858 0.2856,0.5608 0.1055,0.099 h -0.1055 c 3.8561,7.15 13.2944,18.8565 26.4585,29.8853 13.2758,10.9412 30.2338,21.4268 49.9054,25.0778 30.6871,5.602 51.4081,24.7097 63.8767,43.0463 12.5928,18.2607 16.9332,35.429 17.1691,36.3928 -0.062,0.088 4.297,-12.7521 5.1042,-33.0748 0.8569,-20.2351 -2.0802,-48.1986 -16.1632,-76.6177 v 0.041 c -2.8936,-6.2855 -10.2767,-19.5575 -23.9437,-31.445 -13.6049,-11.9752 -33.4069,-22.3381 -60.2814,-23.4538 -30.4077,-1.3611 -49.924,-12.057 -62.5665,-23.4305 -12.6176,-11.4552 -18.38,-23.9036 -20.1931,-29.2836 -0.093,0 -0.1366,10.5498 2.4527,25.989 2.4714,15.4918 7.4265,35.8145 17.8957,56.2132 z"
           style="fill:#004f65;fill-rule:evenodd"
           id="path83-5" />
        <path
           d="m 3363.3119,1856.6478 0.4161,0.4965 0.043,0.082 c 4.9055,6.5542 16.1695,16.7944 30.9293,25.8021 14.8531,8.9609 33.2765,16.8119 53.302,17.659 31.215,1.1566 54.873,17.104 70.1172,33.4253 15.356,16.3446 22.3665,32.7068 22.7825,33.6297 -0.043,0 2.1485,-13.2077 -0.2856,-33.4019 -2.3907,-20.1942 -9.724,-47.4392 -28.2593,-73.51 -3.8995,-5.7656 -13.3379,-17.8459 -28.7373,-27.7181 -15.4243,-9.8255 -36.6731,-17.3085 -63.3551,-14.5688 -30.2711,3.0492 -51.346,-4.6966 -65.6899,-14.1541 -14.2879,-9.5217 -21.9939,-21.0237 -24.6701,-26.0708 -0.043,0 1.6206,10.4505 6.5758,25.3464 5.0172,14.9427 13.2075,34.3366 26.831,52.9829 z"
           style="fill:#004f65;fill-rule:evenodd"
           id="path85-9" />
        <path
           d="m 3300.4225,1719.5876 0.4595,0.4556 0.043,0.082 c 5.9797,5.7481 18.6408,14.2359 34.7854,21.0179 16.1011,6.7587 35.6857,11.9109 55.5125,9.8488 31.1467,-3.318 56.9283,9.0895 74.7371,23.08 17.8335,13.973 27.452,29.1435 27.9301,30.0255 0,0 0.043,-13.4122 -5.6071,-33.0923 -5.6506,-19.5575 -17.3244,-45.4414 -39.8461,-68.6031 v 0.058 c -4.7937,-5.1698 -16.0763,-15.7839 -32.9226,-23.2844 -16.7779,-7.5648 -39.014,-11.8291 -64.9757,-5.3567 -29.3708,7.337 -51.4081,2.6754 -67.1367,-4.6791 -15.6664,-7.3778 -25.1296,-17.6414 -28.6504,-22.2796 0,0.041 3.3034,10.1234 10.643,24.1957 7.3396,14.0547 18.5539,32.0233 35.0275,48.5315 z"
           style="fill:#004f65;fill-rule:evenodd"
           id="path87-2" />
        <path
           d="m 3216.2161,1592.9721 0.503,0.3914 0.087,0.082 c 6.818,4.8835 20.7272,11.4377 37.7659,15.889 17.0201,4.3928 37.176,6.7003 56.4502,1.8985 30.209,-7.7284 57.7666,0.7828 77.612,12.1154 19.8268,11.2099 31.7862,24.8324 32.4009,25.656 0,0 -2.0801,-13.3129 -10.91,-31.8598 -8.7181,-18.5235 -24.4031,-42.4913 -50.3835,-62.0897 -5.5388,-4.4104 -18.3986,-13.3129 -36.2757,-18.3425 -17.7217,-5.0646 -40.3925,-6.1394 -65.0564,3.9372 -27.8867,11.3794 -50.427,9.8722 -67.1429,4.866 -16.6724,-5.0295 -27.7128,-13.8678 -31.8731,-17.951 0,0.023 4.9303,9.4808 14.3935,22.3614 9.4818,12.8981 23.4593,29.0967 42.4292,43.0463 z"
           style="fill:#004f65;fill-rule:evenodd;stroke:#004f65;stroke-width:0.216;stroke-linecap:butt;stroke-linejoin:miter;stroke-dasharray:none"
           id="path89-2" />
        <path
           d="m 3112.7107,1479.7338 0.5278,0.3096 0.1552,0.041 c 7.47,3.8554 22.2795,8.3885 39.8026,10.3454 17.4983,1.9569 37.7846,1.4019 56.1397,-6.122 28.6132,-11.8875 57.2636,-7.2961 78.5993,1.0515 21.4227,8.2658 35.4436,20.0131 36.1639,20.755 0,0 -4.2038,-12.8397 -15.8341,-29.9262 -11.6117,-17.0807 -30.9107,-38.5133 -59.6729,-54.2972 -6.197,-3.5691 -20.3918,-10.468 -38.747,-12.9624 -18.4483,-2.4943 -41.0073,-0.3913 -63.7711,13.0617 -25.7382,15.1881 -48.3034,16.923 -65.6029,14.3235 -17.3058,-2.6988 -29.6005,-9.8079 -34.3508,-13.2895 0,0 6.284,8.7331 17.7405,20.13 11.4564,11.3384 27.8432,25.434 48.8498,36.5797 z"
           style="fill:#004f65;fill-rule:evenodd"
           id="path91-8" />
        <path
           d="m 2992.2782,1382.3027 0.5899,0.2044 0.1304,0.064 h -0.043 c 7.9978,2.7806 23.4841,5.1698 41.0755,4.6323 17.6535,-0.5549 37.6107,-3.9313 54.5439,-13.9496 26.4399,-15.8072 55.4194,-15.334 77.8728,-10.0533 22.4969,5.1464 38.2254,14.7908 39.0389,15.3283 0,0.041 -6.1164,-12.0336 -20.3733,-27.2859 -14.2196,-15.2464 -36.7165,-33.694 -67.6893,-45.2311 -6.7062,-2.6812 -21.82,-7.5414 -40.4359,-7.3545 -18.5974,0.099 -40.5478,5.3742 -60.9024,21.8824 -23.0868,18.7105 -45.0558,23.5532 -62.6286,23.4305 -17.4982,-0.187 -30.774,-5.5612 -36.0086,-8.2658 0,0 7.6438,7.7108 20.7209,17.3319 13.1455,9.6443 31.6124,21.1872 54.1092,29.2661 z"
           style="fill:#004f65;fill-rule:evenodd"
           id="path93-9" />
        <path
           d="m 2857.7131,1303.0855 0.6334,0.1227 0.1552,0.041 c 8.302,1.5889 23.9188,1.7933 41.2681,-1.256 17.3926,-3.0317 36.5364,-9.2296 51.6751,-21.491 23.5897,-19.3764 52.3767,-23.0215 75.3766,-21.0003 23.0867,1.9335 40.1503,9.3114 41.119,9.7261 0,0 -8.0661,-11.0697 -24.5833,-24.1548 -16.4923,-13.085 -41.6592,-28.1679 -74.1719,-35.1953 -7.0043,-1.6473 -22.7328,-4.3286 -41.1128,-1.5246 -18.38,2.7806 -39.2562,11.1048 -56.7358,30.3118 -19.7834,21.7013 -40.7465,29.675 -58.0274,32.0058 -17.4362,2.3249 -31.395,-1.0515 -37.0891,-3.0318 0,0.041 8.8298,6.5951 23.3538,14.2417 14.499,7.6057 34.5866,16.4031 58.1391,21.2048 z"
           style="fill:#004f65;fill-rule:evenodd"
           id="path95-7" />
        <path
           d="m 2712.0144,1243.9632 0.683,0.018 h 0.087 c 8.5628,0.4147 24.0057,-1.6473 40.6781,-7.1092 16.6227,-5.5203 34.5681,-14.341 47.5583,-28.6411 20.1931,-22.5075 48.0612,-30.1716 71.1665,-31.4275 23.093,-1.3611 41.1625,3.4582 42.1685,3.7503 0,0 -9.6806,-9.7904 -28.1661,-20.4221 -18.38,-10.5498 -45.7389,-21.8649 -78.9967,-24.1956 -7.2465,-0.6368 -23.1924,-1.0515 -40.8955,4.3286 -17.7404,5.3566 -37.0394,16.5257 -51.1908,38.0401 -16.1011,24.3183 -35.4684,35.1602 -52.2712,39.9795 -16.7531,4.7433 -31.1466,3.3823 -37.0394,2.2665 0,0.023 9.7923,5.1932 25.3222,10.7368 15.6167,5.4618 36.8469,11.2917 60.8961,12.6761 z"
           style="fill:#004f65;fill-rule:evenodd"
           id="path97-3" />
        <path
           d="m 2558.5228,1206.2678 h 0.6334 0.093 c 8.476,-0.8821 23.4159,-5.088 38.9892,-12.8748 15.6168,-7.7926 31.9601,-19.1252 42.4106,-35.096 16.3868,-25.1245 42.6466,-36.7024 65.2987,-41.2588 22.6521,-4.6791 41.2245,-2.4126 42.3236,-2.2841 0,0 -11.1708,-8.3066 -31.1528,-16.1577 -19.8641,-7.8335 -48.7629,-15.1296 -81.9897,-12.6352 -7.2526,0.3913 -23.0433,2.249 -39.6971,10.1409 -16.6661,7.7868 -33.9533,21.6195 -44.4845,44.8806 -11.9656,26.3161 -29.4018,39.8393 -45.2173,46.9485 -15.8589,7.0857 -30.2959,7.8276 -36.2942,7.5823 0,0 10.5374,3.7502 26.831,6.9631 16.275,3.1953 38.2503,5.9175 62.256,3.7912 z"
           style="fill:#004f65;fill-rule:evenodd"
           id="path99-6" />
        <path
           d="m 2400.5418,1190.9395 0.6582,-0.1635 0.062,-0.041 c 8.24,-2.0445 22.3913,-8.2658 36.5861,-18.1964 14.1514,-9.9131 28.4332,-23.4538 36.3378,-40.7448 12.0712,-27.1632 36.1701,-42.3453 57.81,-50.0737 21.5965,-7.7926 40.3926,-8.3067 41.5103,-8.3067 0,0.058 -12.4624,-6.5717 -33.4256,-11.502 -20.901,-4.8835 -50.6008,-7.9503 -83.0266,-0.8003 -7.0477,1.4195 -22.4969,5.5203 -37.6107,15.6203 -15.2256,10.0767 -30.1158,26.211 -36.7786,50.6754 -7.6438,27.759 -22.7577,43.5195 -37.3064,52.7725 -14.4805,9.2355 -28.6504,11.9752 -34.7171,12.5301 0.087,0.064 11.0404,2.2899 27.6445,3.1545 16.6227,0.9054 38.8588,0.5374 62.256,-4.9245 z"
           style="fill:#004f65;fill-rule:evenodd"
           id="path101-1" />
        <path
           d="m 2241.8592,1197.8851 0.565,-0.2687 0.1118,-0.023 c 7.886,-3.1486 20.7892,-11.3326 33.2765,-23.08 12.3506,-11.8466 24.4466,-27.2216 29.439,-45.3771 7.6438,-28.5827 29.1534,-46.966 49.3093,-57.6619 20.0628,-10.7367 38.5111,-13.8678 39.6039,-14.0314 0,0 -13.2944,-4.7433 -34.8288,-6.6768 -21.404,-1.8752 -51.2156,-0.8237 -82.1698,10.8185 -6.7869,2.3892 -21.3108,8.5754 -34.7605,20.7316 -13.4497,12.0979 -25.5457,30.1307 -28.2593,55.2494 -3.2661,28.5009 -15.5981,46.2416 -28.4331,57.4515 -12.9032,11.1924 -26.4833,15.8482 -32.2705,17.291 0,0.041 11.177,0.6835 27.7128,-0.7594 16.6041,-1.4662 38.4428,-5.012 60.7037,-13.6634 z"
           style="fill:#004f65;fill-rule:evenodd"
           id="path103-2" />
        <path
           d="m 2086.306,1227.1863 0.4782,-0.3096 0.093,-0.082 c 7.2465,-4.2468 18.6843,-14.1774 29.1534,-27.572 10.3388,-13.4181 19.7833,-30.3527 21.8201,-49.0281 2.9991,-29.3246 21.2922,-50.5294 39.5356,-63.9825 18.2061,-13.4589 35.903,-19.1252 36.9773,-19.4172 0,0 -13.9278,-2.8215 -35.5305,-1.7058 -21.491,1.1508 -50.8431,6.4257 -79.6053,22.3556 v -0.041 c -6.2839,3.3589 -19.6902,11.5604 -31.0162,25.4341 -11.3447,13.8854 -20.5036,33.4662 -19.0568,58.7075 1.3785,28.6061 -8.0164,47.9124 -18.8644,60.8163 -10.9286,12.9215 -23.5897,19.429 -29.1099,21.7189 0,0 11.2143,-0.9288 27.2968,-4.7375 16.1632,-3.8788 37.1698,-10.433 57.8286,-22.157 z"
           style="fill:#004f65;fill-rule:evenodd"
           id="path105-9" />
        <path
           d="m 1937.2356,1278.3583 0.4409,-0.3914 0.087,-0.064 c 6.4827,-5.2749 16.2315,-16.6893 24.3349,-31.4275 8.0661,-14.7733 14.6978,-32.7652 13.6732,-51.5808 -1.7573,-29.4064 12.9033,-53.0237 28.7374,-68.8485 15.8155,-15.9123 32.4879,-24.073 33.4503,-24.5461 0,0.041 -14.2383,-0.8412 -35.4001,3.3997 -21.0935,4.206 -49.1975,13.6634 -75.091,33.4663 -5.7189,4.1883 -17.61,14.2416 -26.5268,29.5348 -9.0285,15.3691 -14.8095,36.0014 -9.3762,60.7521 6.0045,28.0627 -0.1553,48.5315 -8.8734,62.7907 -8.718,14.3235 -20.1496,22.6477 -25.2787,25.6327 0.043,0.041 10.9101,-2.5119 26.266,-8.5929 15.356,-6.0986 35.0897,-15.556 53.5566,-30.1248 z"
           style="fill:#004f65;fill-rule:evenodd"
           id="path107-3" />
        <path
           d="m 1798.0941,1350.2151 0.416,-0.4965 0.087,-0.018 h -0.043 c 5.5885,-6.1219 13.2944,-18.8156 19.0134,-34.5585 5.6319,-15.743 9.2893,-34.5002 5.2159,-52.9244 -6.4392,-28.8281 4.1603,-54.1979 17.2809,-72.1665 13.102,-17.9919 28.2593,-28.4366 29.0665,-28.9916 0.093,0 -14.1017,1.2326 -34.3445,8.3827 -20.1994,7.15 -46.4654,20.5505 -68.8256,43.794 -4.9738,4.9011 -15.1201,16.5491 -21.5158,32.9697 -6.3709,16.4907 -8.8236,37.6546 0.503,61.4121 10.4505,26.8536 7.65,47.9124 1.3164,63.3282 -6.284,15.3516 -16.2502,25.2005 -20.8762,28.9098 0,0 10.4256,-4.0598 24.577,-12.1971 14.1762,-8.2424 32.2022,-20.4045 48.1295,-37.4443 z"
           style="fill:#004f65;fill-rule:evenodd"
           id="path109-1" />
        <path
           d="m 1672.0049,1440.9927 0.3725,-0.5141 0.043,-0.064 c 4.4708,-6.8405 10.14,-20.5038 13.2944,-36.8251 3.0489,-16.3856 3.5705,-35.464 -3.3903,-53.1055 -10.9535,-27.5546 -4.5143,-54.157 5.5823,-73.7962 10.0345,-19.5984 23.3103,-32.1052 24.0989,-32.7652 0,0 -13.8223,3.2362 -32.6618,13.1902 -18.796,9.9306 -42.6092,26.8477 -61.0513,53.0003 -4.0548,5.6079 -12.2016,18.5235 -15.9025,35.6509 -3.7256,17.1683 -2.7818,38.5133 10.2519,60.6294 14.6729,25.1011 15.2255,46.3059 11.4564,62.4578 -3.8374,16.1168 -12.1395,27.1866 -16.039,31.5093 0,0.041 9.6184,-5.4794 22.3043,-15.5794 12.7046,-10.1176 28.607,-24.663 41.6407,-43.7882 z"
           style="fill:#004f65;fill-rule:evenodd"
           id="path111-9" />
        <path
           d="m 1561.7994,1548.5822 0.2422,-0.5315 0.087,-0.1052 c 3.3904,-7.3779 6.7683,-21.678 7.2278,-38.2913 0.4161,-16.6075 -2.0801,-35.5692 -11.7234,-52.0131 -15.2877,-25.6736 -13.1392,-52.8952 -6.284,-73.7729 6.7932,-20.7725 17.9205,-34.9908 18.5539,-35.797 0.043,0 -13.1206,5.1757 -30.209,17.6999 -16.9767,12.4484 -37.8281,32.5199 -51.7807,60.9799 -3.2041,6.1395 -9.2459,20.0307 -10.1028,37.5261 -0.9625,17.4545 3.3966,38.414 19.802,58.4446 18.4483,22.7704 22.4099,43.648 21.2736,60.092 -1.2047,16.4848 -7.6004,28.6469 -10.8231,33.4896 0,0 8.6125,-6.7996 19.5598,-18.5294 10.9969,-11.8467 24.3162,-28.4775 34.1768,-49.1917 z"
           style="fill:#004f65;fill-rule:evenodd"
           id="path113-4" />
        <path
           d="m 1470.0361,1670.4602 0.1738,-0.5783 0.043,-0.082 c 2.1671,-7.7926 3.2227,-22.4432 1.0308,-38.9105 -2.2106,-16.4439 -7.7308,-34.8448 -19.9138,-49.6823 -19.212,-23.3312 -21.3977,-50.5294 -17.9639,-72.0672 3.3779,-21.5144 12.096,-37.1347 12.6611,-38.0226 0,0 -12.1768,6.9456 -27.0484,21.7247 -14.7661,14.7324 -32.2457,37.5027 -41.5351,67.651 -2.1485,6.4724 -5.8679,21.0821 -3.9865,38.5191 1.8815,17.3903 9.5502,37.4852 28.9361,54.9806 21.9504,19.8846 29.1596,39.9795 30.6499,56.4468 1.4654,16.3622 -2.9619,29.3246 -5.3029,34.5586 0,0 7.4265,-7.9386 16.3868,-21.0821 8.9105,-13.2545 19.4294,-31.5911 25.8686,-53.456 z"
           style="fill:#004f65;fill-rule:evenodd"
           id="path115-7" />
        <path
           d="m 1398.9067,1803.9161 0.1304,-0.6016 v -0.082 c 0.8135,-7.9737 -0.4595,-22.5834 -5.2532,-38.5776 -4.8433,-15.9299 -13.2572,-33.3026 -27.6693,-46.3234 -22.6956,-20.3228 -29.29,-46.8843 -29.3335,-68.6674 -0.087,-21.7597 6.0046,-38.4315 6.4454,-39.4012 0,0 -10.9348,8.5929 -23.242,25.3289 -12.2698,16.6309 -25.8748,41.6678 -30.2524,72.7623 -1.0991,6.7587 -2.4341,21.7247 2.2788,38.6594 4.6633,16.9813 15.443,35.6918 37.4369,50.2431 24.8626,16.5257 35.22,35.4056 39.3865,51.3939 4.0734,16.0117 1.7697,29.453 0.3043,34.909 0,0.064 6.0915,-8.8382 12.7729,-23.1208 6.7683,-14.3643 14.1948,-34.0036 16.9952,-56.5228 z"
           style="fill:#004f65;fill-rule:evenodd"
           id="path117-8" />
        <path
           d="m 1350.1252,1945.9416 v -0.6601 c -0.4408,-8.038 -4.0113,-22.2972 -11.3943,-37.3625 -7.3768,-15.0829 -18.529,-31.0946 -34.8723,-41.8956 -25.6699,-16.771 -36.4309,-42.1409 -40.02,-63.6553 -3.5704,-21.5553 -0.1738,-38.9047 0,-39.8977 0.1118,0 -9.4197,10.0591 -18.9264,28.3373 -9.4197,18.2139 -18.796,44.904 -18.0757,76.3081 0,6.8229 1.0556,21.7831 8.4386,37.8999 7.3831,16.0935 21.0066,33.0515 45.1242,44.3082 27.2719,12.752 40.5229,29.8561 47.2291,45.1492 6.6131,15.2465 6.5696,28.8281 5.9362,34.4944 0,0 4.5578,-9.6211 8.9603,-24.7682 4.2721,-15.0829 8.4759,-35.5867 7.6003,-58.2577 z"
           style="fill:#004f65;fill-rule:evenodd"
           id="path119-4" />
        <path
           d="m 1327.5414,2076.284 -0.18,-0.6368 v -0.064 c -1.6828,-7.8511 -7.5756,-21.4911 -17.2561,-35.3414 -9.6868,-13.8678 -23.2234,-28.0861 -41.1625,-36.4337 -28.1475,-12.9215 -42.8701,-36.4337 -49.8371,-57.1887 -7.0726,-20.7725 -6.464,-38.4081 -6.464,-39.4421 0.05,0 -7.6625,11.2917 -14.1017,30.7499 -6.4206,19.3472 -11.3509,47.0887 -5.6134,77.9145 1.0991,6.7587 4.5826,21.4151 14.4184,36.2935 9.8544,14.8375 26.1542,29.6926 51.7807,37.3625 28.9857,8.7565 44.8881,23.8219 53.8918,37.9584 9.0472,14.1949 11.1274,27.613 11.3882,33.3435 0,-0.041 2.9557,-10.2636 4.862,-25.8021 1.9063,-15.5794 2.7197,-36.4162 -1.7263,-58.7133 z"
           style="fill:#004f65;fill-rule:evenodd"
           id="path121-5" />
      </g>
      <g
         id="Layer1004-0">
        <path
           d="m 3051.021,2492.2565 v -255.8041 c 0,-24.2987 21.0664,-44.117 46.8955,-44.117 h 129.9734 c 25.8291,0 46.8955,19.8183 46.8955,44.117 v 254.6485 h 156.5923 c 25.8291,0 46.8956,19.8183 46.8956,44.117 v 97.3753 c 0,24.2987 -21.0665,44.117 -46.8956,44.117 h -333.4612 c -7.2755,0 -14.1732,-1.5725 -20.3285,-4.3745 -6.2509,2.8751 -13.2487,4.3745 -20.7416,4.3745 h -136.2467 c -20.9814,0 -38.7756,-12.4114 -44.8723,-31.2979 l -10.9712,-33.988 h -77.9294 l -11.0399,34.0425 c -6.1165,18.86 -23.8946,31.2434 -44.8546,31.2434 h -132.8159 c -15.8745,0 -29.5271,-6.7307 -38.5609,-19.0104 -9.0341,-12.2796 -10.9206,-26.6712 -5.3286,-40.6478 l 158.4969,-396.1408 c 7.0136,-17.5292 23.98,-28.5758 43.8895,-28.5758 h 142.4222 c 19.9329,0 36.9178,11.0756 43.913,28.6348 z m -1293.1808,-6.3201 106.0372,-265.0252 c 7.0136,-17.5292 23.98,-28.5758 43.8896,-28.5758 h 142.4221 c 19.9329,0 36.9178,11.0756 43.913,28.6348 l 157.8109,396.1408 c 5.5668,13.9737 3.6656,28.3502 -5.3712,40.6147 -9.0365,12.2645 -22.6794,18.9845 -38.5418,18.9845 h -136.2467 c -20.9814,0 -38.7755,-12.4114 -44.8723,-31.2979 l -10.9712,-33.988 h -77.9294 l -11.0399,34.0425 c -6.1165,18.86 -23.8946,31.2434 -44.8546,31.2434 H 1749.27 c -6.9516,0 -13.4771,-1.2908 -19.3752,-3.773 -5.8,2.4246 -12.2129,3.773 -18.9502,3.773 h -122.9162 c -16.0195,0 -29.7955,-6.8646 -38.7954,-19.3321 l -71.3358,-98.8204 v 74.0355 c 0,24.2987 -21.0665,44.117 -46.8956,44.117 h -122.328 c -25.8291,0 -46.8956,-19.8183 -46.8956,-44.117 v -396.1408 c 0,-24.2987 21.0665,-44.117 46.8956,-44.117 h 121.4457 c 16.0189,0 29.7941,6.864 38.794,19.3302 l 72.2195,100.0336 v -75.2468 c 0,-24.2987 21.0665,-44.117 46.8956,-44.117 h 122.9162 c 25.8291,0 46.8956,19.8183 46.8956,44.117 z m 807.513,-767.532 c 2.6978,-21.9154 22.5852,-39.0246 46.584,-39.0246 h 395.8018 c 25.8291,0 46.8956,19.8183 46.8956,44.117 v 97.9286 c 0,24.2987 -21.0665,44.117 -46.8956,44.117 h -86.0188 v 254.0952 c 0,24.2987 -21.0665,44.117 -46.8956,44.117 h -129.9733 c -25.8291,0 -46.8956,-19.8183 -46.8956,-44.117 v -254.0952 h -83.2791 c -3.2325,16.5385 -9.1972,32.4767 -18.4266,47.3186 -9.6344,15.4929 -21.7609,28.8969 -36.1086,40.1597 8.401,9.8289 17.3132,20.8758 23.3269,32.1981 l 63.0226,114.0733 c 7.7729,14.0698 7.2212,29.691 -1.5275,43.2444 -8.7487,13.5534 -23.2284,21.2181 -40.0836,21.2181 h -147.0287 c -17.6719,0 -32.8309,-8.4973 -41.2426,-23.1183 l -48.3048,-83.9628 v 62.9641 c 0,24.2987 -21.0664,44.117 -46.8955,44.117 h -130.5616 c -7.6272,0 -14.8387,-1.7282 -21.2155,-4.7893 -6.471,3.1453 -13.7736,4.7893 -21.6189,4.7893 h -136.2466 c -20.9815,0 -38.7756,-12.4114 -44.8724,-31.2979 l -10.9712,-33.988 h -77.9294 l -11.0398,34.0425 c -6.1166,18.86 -23.8947,31.2434 -44.8546,31.2434 h -132.816 c -15.8744,0 -29.5271,-6.7307 -38.5608,-19.0104 -9.0341,-12.2796 -10.9207,-26.6712 -5.3287,-40.6478 l 158.4969,-396.1408 c 7.0136,-17.5292 23.9801,-28.5758 43.8896,-28.5758 h 142.4221 c 19.933,0 36.9179,11.0756 43.913,28.6348 l 109.8368,275.715 v -260.2328 c 0,-24.2987 21.0664,-44.117 46.8955,-44.117 h 216.8186 c 34.2974,0 73.8622,1.8958 106.6582,11.9425 19.2403,5.894 36.3458,15.0127 51.0298,27.0821 z m -159.3866,654.5223 49.0256,-149.4809 c 6.1641,-18.7951 23.903,-31.1104 44.811,-31.1104 h 132.0321 c 15.8373,0 29.4588,6.697 38.5009,18.929 9.0422,12.2321 10.9746,26.5761 5.4624,40.5432 l -156.3408,396.1408 c -6.9552,17.6241 -23.9797,28.7618 -43.9632,28.7618 H 2334.543 c -19.8894,0 -36.8402,-11.022 -43.8691,-28.5254 L 2131.5884,2252.044 c -5.6137,-13.9788 -3.7399,-28.3833 5.2918,-40.6759 9.0318,-12.2929 22.6928,-19.0327 38.5773,-19.0327 h 135.9529 c 20.8404,0 38.5274,12.2264 44.7538,30.9364 z"
           style="fill:#004f65;fill-rule:evenodd"
           id="path124-3" />
        <path
           d="m 1990.6909,2054.3519 h -147.4212 l -21.1719,65.2859 h -132.8162 l 158.4972,-396.1409 h 142.422 l 157.8109,396.1409 H 2011.765 Z m -27.5432,-85.7568 -45.9711,-142.3746 -46.167,142.3746 z m 227.6986,151.0427 v -396.1409 h 216.8187 c 40.1879,0 70.9656,3.2272 92.1379,9.7744 21.27,6.4548 38.4236,18.5343 51.4601,36.0547 13.0366,17.6122 19.5058,39.0977 19.5058,64.3635 0,21.9464 -4.9989,40.9422 -14.997,56.8947 -9.8997,16.0447 -23.6225,28.9545 -41.1681,38.9132 -11.0761,6.2705 -26.367,11.5265 -45.6766,15.6761 15.4868,4.8873 26.759,9.6821 33.8164,14.5693 4.705,3.2275 11.6643,10.2356 20.7802,20.84 9.0179,10.6041 15.0948,18.811 18.1336,24.6203 l 63.2222,114.4347 h -147.0291 l -69.4956,-120.7973 c -8.8217,-15.6759 -16.6632,-25.8191 -23.5244,-30.5221 -9.4099,-6.086 -20.094,-9.1287 -31.9544,-9.1287 h -11.4682 v 160.4481 z m 130.5615,-235.1396 h 54.9888 c 5.8813,0 17.4475,-1.8442 34.503,-5.4405 8.6255,-1.5676 15.683,-5.7172 21.0742,-12.4486 5.489,-6.7315 8.2335,-14.385 8.2335,-23.0528 0,-12.8174 -4.3129,-22.6842 -12.9388,-29.5078 -8.6255,-6.916 -24.7986,-10.3277 -48.6175,-10.3277 h -57.2432 z m 290.5291,-161.0013 h 395.8016 v 97.9285 h -132.914 v 298.2124 h -129.9736 v -298.2124 h -132.914 z m -1303.2638,512.9558 h 121.4459 l 157.909,218.7258 v -218.7258 h 122.9159 v 396.1408 H 1588.028 l -157.0269,-217.527 v 217.527 h -122.328 z m 742.0054,330.855 h -147.4209 l -21.1719,65.2858 h -132.8162 l 158.4972,-396.1408 h 142.422 l 157.8109,396.1408 h -136.2469 z m -27.5431,-85.7568 -45.9712,-142.3746 -46.167,142.3746 z m 152.3216,-245.0982 h 135.9528 l 94.8829,285.118 93.5102,-285.118 h 132.0321 l -156.3409,396.1408 h -140.9516 z m 724.068,330.855 h -147.4208 l -21.172,65.2858 H 2598.116 l 158.497,-396.1408 h 142.4222 l 157.811,396.1408 h -136.247 z m -27.5431,-85.7568 -45.9711,-142.3746 -46.1671,142.3746 z m 225.934,-245.0982 h 129.9739 v 298.7654 h 203.4879 v 97.3754 h -333.4618 z"
           style="fill:#f8b51c;fill-rule:evenodd"
           id="path126-6" />
      </g>
      <path
         d="m 628.6822,4183.8369 74.8953,-4.706 c 1.605,12.1524 4.9334,21.4455 9.9266,27.7599 8.1434,10.306 19.7343,15.4885 34.8322,15.4885 11.2342,0 19.9125,-2.6209 25.9755,-7.9228 6.1226,-5.3019 9.1542,-11.4378 9.1542,-18.4073 0,-6.6124 -2.8533,-12.5697 -8.6193,-17.8118 -5.7657,-5.2424 -19.199,-10.1271 -40.3007,-14.8331 -34.5943,-7.7443 -59.2027,-18.1097 -73.944,-31.0366 -14.8604,-12.8676 -22.2903,-29.3091 -22.2903,-49.3248 0,-13.1057 3.8041,-25.4965 11.4123,-37.1724 7.6085,-11.7354 19.0214,-20.9095 34.2975,-27.5814 15.2762,-6.6719 36.1993,-10.008 62.7693,-10.008 32.633,0 57.4792,6.0763 74.598,18.2883 17.1189,12.1527 27.2834,31.513 30.5526,58.0819 l -74.1818,4.4081 c -1.9616,-11.6163 -6.1226,-20.0755 -12.4231,-25.3176 -6.3604,-5.3019 -15.0979,-7.9228 -26.2134,-7.9228 -9.1542,0 -16.1085,1.9658 -20.7448,5.8379 -4.6363,3.8721 -6.9545,8.6377 -6.9545,14.2373 0,4.051 1.902,7.6847 5.6466,10.961 3.6261,3.3956 12.4231,6.4933 26.3324,9.4125 34.4756,7.4463 59.1435,15.0117 74.0036,22.6369 14.9198,7.6252 25.7972,17.0373 32.5734,28.3558 6.7765,11.2589 10.1642,23.8878 10.1642,37.887 0,16.3823 -4.5173,31.5133 -13.5524,45.3932 -9.0941,13.8206 -21.6958,24.3646 -37.9826,31.513 -16.2269,7.1487 -36.6746,10.7229 -61.4021,10.7229 -43.3916,0 -73.4689,-8.3996 -90.1715,-25.1391 -16.7028,-16.7394 -26.1538,-38.0063 -28.3532,-63.8005 z m 248.2872,-43.1294 c 0,-41.7591 11.5911,-74.285 34.8324,-97.5177 23.2412,-23.2923 55.5772,-34.9087 97.0667,-34.9087 42.4999,0 75.2519,11.4378 98.2554,34.2533 23.0034,22.8753 34.4755,54.9247 34.4755,96.0882 0,29.9047 -4.9929,54.3884 -15.0386,73.5106 -10.0455,19.1223 -24.6082,34.0149 -43.57,44.6783 -19.0207,10.6631 -42.6781,15.965 -71.0314,15.965 -28.7696,0 -52.605,-4.587 -71.5073,-13.7608 -18.8425,-9.2336 -34.1785,-23.7691 -45.8881,-43.6657 -11.7096,-19.8371 -17.5946,-44.7378 -17.5946,-74.6425 z m 78.8184,0.1789 c 0,25.7941 4.8147,44.3803 14.3847,55.6393 9.6296,11.2589 22.7061,16.918 39.2309,16.918 16.9407,0 30.1366,-5.54 39.4093,-16.5606 9.3322,-11.0803 13.9685,-30.8579 13.9685,-59.5117 0,-24.0664 -4.8744,-41.6401 -14.5632,-52.7201 -9.7481,-11.1399 -22.8847,-16.6799 -39.528,-16.6799 -15.9302,0 -28.7691,5.6591 -38.3987,16.918 -9.6888,11.2589 -14.5035,29.9645 -14.5035,55.997 z m 215.4166,-128.3162 h 78.8182 v 193.0102 h 123.3992 v 62.907 h -202.2174 z m 226.1163,0 h 117.2761 c 23.0633,0 41.7869,3.1572 55.9933,9.4122 14.2064,6.3147 25.9756,15.3099 35.3078,27.0453 9.2727,11.795 15.9894,25.437 20.1504,41.0446 4.2202,15.6075 6.3006,32.1086 6.3006,49.5629 0,27.3433 -3.0909,48.5504 -9.332,63.6219 -6.1821,15.0715 -14.8008,27.7004 -25.8568,37.8873 -11.0559,10.1866 -22.8846,16.9776 -35.5453,20.3732 -17.2976,4.6465 -32.9896,6.9698 -47.018,6.9698 h -117.2761 z m 78.8182,57.903 v 139.7537 h 19.3776 c 16.5246,0 28.2938,-1.8467 35.3078,-5.4805 6.9545,-3.6935 12.4231,-10.0675 16.4058,-19.1817 3.9824,-9.1741 5.944,-23.9477 5.944,-44.4402 0,-27.1049 -4.3985,-45.6313 -13.2554,-55.6393 -8.8566,-10.008 -23.5383,-15.012 -44.0456,-15.012 z m 326.4517,155.8378 h -89.3985 l -12.8392,42.1764 h -80.5423 l 96.1158,-255.9172 h 86.3674 l 95.6993,255.9172 h -82.6225 z m -16.7026,-55.4009 -27.8779,-91.9777 -27.9964,91.9777 z m 110.6229,12.9268 74.895,-4.706 c 1.6053,12.1524 4.9337,21.4455 9.927,27.7599 8.1433,10.306 19.7342,15.4885 34.8321,15.4885 11.2342,0 19.9125,-2.6209 25.9755,-7.9228 6.1226,-5.3019 9.154,-11.4378 9.154,-18.4073 0,-6.6124 -2.8534,-12.5697 -8.6191,-17.8118 -5.7656,-5.2424 -19.199,-10.1271 -40.3007,-14.8331 -34.5946,-7.7443 -59.2027,-18.1097 -73.944,-31.0366 -14.8603,-12.8676 -22.2905,-29.3091 -22.2905,-49.3248 0,-13.1057 3.8044,-25.4965 11.4126,-37.1724 7.6084,-11.7354 19.0213,-20.9095 34.2975,-27.5814 15.2759,-6.6719 36.1992,-10.008 62.7692,-10.008 32.633,0 57.479,6.0763 74.598,18.2883 17.119,12.1527 27.2834,31.513 30.5526,58.0819 l -74.1821,4.4081 c -1.9613,-11.6163 -6.1222,-20.0755 -12.4228,-25.3176 -6.3604,-5.3019 -15.0982,-7.9228 -26.2137,-7.9228 -9.1539,0 -16.1081,1.9658 -20.7445,5.8379 -4.6363,3.8721 -6.9545,8.6377 -6.9545,14.2373 0,4.051 1.9021,7.6847 5.6466,10.961 3.6261,3.3956 12.4231,6.4933 26.3322,9.4125 34.4758,7.4463 59.1437,15.0117 74.0038,22.6369 14.9196,7.6252 25.7972,17.0373 32.5735,28.3558 6.7762,11.2589 10.1642,23.8878 10.1642,37.887 0,16.3823 -4.5173,31.5133 -13.5525,45.3932 -9.0944,13.8206 -21.6958,24.3646 -37.9825,31.513 -16.2272,7.1487 -36.6747,10.7229 -61.4021,10.7229 -43.3917,0 -73.469,-8.3996 -90.1718,-25.1391 -16.7026,-16.7394 -26.1536,-38.0063 -28.353,-63.8005 z m 359.382,-171.2667 h 240.0214 v 63.2645 h -80.6017 v 192.6527 h -78.8182 v -192.6527 h -80.6015 z m 265.7628,0 h 79.1751 v 255.9172 h -79.1751 z m 251.1406,163.3439 v -53.2565 h 121.9722 v 108.8363 c -23.36,15.965 -43.986,26.8664 -61.8778,32.6449 -17.9509,5.7784 -39.2309,8.6377 -63.839,8.6377 -30.3148,0 -55.0423,-5.1826 -74.1226,-15.548 -19.0806,-10.3059 -33.8814,-25.7346 -44.4022,-46.2271 -10.521,-20.433 -15.7521,-43.9634 -15.7521,-70.4725 0,-27.9388 5.766,-52.1844 17.2381,-72.8555 11.4718,-20.6115 28.2937,-36.2786 50.4651,-47.0015 17.2973,-8.2803 40.5981,-12.3908 69.8426,-12.3908 28.175,0 49.2763,2.5617 63.2449,7.6847 14.0281,5.1231 25.619,13.0462 34.8324,23.8283 9.2132,10.7825 16.1677,24.4242 20.8043,40.9255 l -75.9653,13.7013 c -3.1502,-9.7101 -8.4405,-17.1564 -15.9299,-22.2795 -7.49,-5.1828 -17.0002,-7.7442 -28.6506,-7.7442 -17.2378,0 -31.0281,6.0165 -41.3113,18.0499 -10.2832,12.0333 -15.395,31.096 -15.395,57.1286 0,27.6409 5.1713,47.4185 15.5733,59.2732 10.3425,11.8545 24.8462,17.8118 43.3919,17.8118 8.797,0 17.1782,-1.2512 25.2028,-3.8126 7.9648,-2.5616 17.1188,-6.9103 27.4615,-12.9866 v -23.9474 z m 274.7979,-163.3439 h 211.1332 v 54.6863 h -131.9585 v 40.7466 h 122.3292 v 52.1841 h -122.3292 v 50.3972 h 135.8816 v 57.903 h -215.0563 z m 362.9483,0 h 104.0808 l 39.6468,155.7187 39.7658,-155.7187 h 103.6052 v 255.9172 h -64.5528 v -195.0951 l -49.811,195.0951 h -58.4898 l -49.6925,-195.0951 v 195.0951 h -64.5525 z m 327.7001,0 h 79.175 v 255.9172 h -79.175 z m 251.1405,163.3439 v -53.2565 h 121.9722 v 108.8363 c -23.36,15.965 -43.986,26.8664 -61.8777,32.6449 -17.951,5.7784 -39.231,8.6377 -63.8391,8.6377 -30.3148,0 -55.042,-5.1826 -74.1226,-15.548 -19.0805,-10.3059 -33.8813,-25.7346 -44.4021,-46.2271 -10.5211,-20.433 -15.7519,-43.9634 -15.7519,-70.4725 0,-27.9388 5.7657,-52.1844 17.2378,-72.8555 11.4718,-20.6115 28.2937,-36.2786 50.4652,-47.0015 17.2973,-8.2803 40.5981,-12.3908 69.8425,-12.3908 28.1753,0 49.2764,2.5617 63.2449,7.6847 14.0281,5.1231 25.619,13.0462 34.8325,23.8283 9.2131,10.7825 16.1679,24.4242 20.8043,40.9255 l -75.9654,13.7013 c -3.1502,-9.7101 -8.4405,-17.1564 -15.9299,-22.2795 -7.4897,-5.1828 -17.0002,-7.7442 -28.6506,-7.7442 -17.2378,0 -31.028,6.0165 -41.3113,18.0499 -10.2829,12.0333 -15.3949,31.096 -15.3949,57.1286 0,27.6409 5.1712,47.4185 15.5735,59.2732 10.3425,11.8545 24.846,17.8118 43.3916,17.8118 8.7971,0 17.1783,-1.2512 25.2029,-3.8126 7.9648,-2.5616 17.1187,-6.9103 27.4615,-12.9866 v -23.9474 z"
         style="fill:#004f65;fill-rule:evenodd"
         id="path129-1" />
      <path
         d="m 3324.0991,1331.3282 h -176.7702 v 422.801 h 176.7702 z"
         style="fill:#004f65;fill-rule:evenodd"
         id="path131-0" />
    </g>
  </g>
</svg>
